<svg id="Layer_1" xmlns="http://www.w3.org/2000/svg" viewBox="0 0 51 51">
    <style>
        .st0{fill:#2e343f}
    </style>
    <path class="st0" d="M23.7 7.9v1.6c.4.5 1.1.8 1.8.8s1.4-.3 1.8-.8V7.9h.4v1c.1-.3.2-.6.2-1 0-1.3-1.1-2.4-2.4-2.4s-2.4 1.1-2.4 2.4c0 .3.1.7.2 1v-1h.4zm.7-1.2c.3-.3.7-.5 1.1-.5s.8.2 1.1.5c.3.3.5.7.5 1.1s-.2.8-.5 1.1-.7.5-1.1.5-.8-.2-1.1-.5c-.3-.3-.5-.7-.5-1.1 0-.4.2-.8.5-1.1z"/>
    <circle class="st0" cx="25.5" cy="7.9" r=".5"/>
    <path class="st0" d="M27.3 20v-1.6c-.4-.5-1.1-.8-1.8-.8s-1.4.3-1.8.8V20h-.4v-1c-.1.3-.2.6-.2 1 0 1.3 1.1 2.4 2.4 2.4.8 0 1.5-.4 1.9-.9-.1-.6-.1-1.1-.1-1.3V20zm-.7 1.2c-.3.3-.7.5-1.1.5s-.8-.2-1.1-.5c-.3-.3-.5-.7-.5-1.1s.2-.8.5-1.1c.3-.3.7-.5 1.1-.5s.8.2 1.1.5c.3.3.5.7.5 1.1s-.2.8-.5 1.1zM27.7 20V20.9c.1-.3.2-.6.2-.9s-.1-.7-.2-1v1z"/>
    <circle class="st0" cx="25.5" cy="20" r=".5"/>
    <path class="st0" d="M8.1 8.7V5.9c0-.2.2-.4.4-.4s.4.2.4.4V3.1h33.2v2.8c0-.2.2-.4.4-.4s.4.2.4.4V2.3H8.1v6.4zM23.7 12.3h3.6v.8h-3.6zM38.4 12.3H27.7v.8h10.7c1.5 0 2.8-.7 3.6-1.9V8.7c0 1-.4 1.9-1.1 2.6-.6.6-1.5 1-2.5 1z"/>
    <path class="st0" d="M12.6 13.1h10.7v-.8H12.6c-1 0-1.9-.4-2.6-1.1-.7-.7-1.1-1.6-1.1-2.6V5.9v5.4c.8 1.1 2.2 1.8 3.7 1.8z"/>
    <path class="st0" d="M42.5 5.4c-.2 0-.4.2-.4.4v8.4h.4v.4h-.4v33.3H8.9V14.6h-.4v-.4h.4V5.9c0-.2-.2-.4-.4-.4s-.4.1-.4.4v42.9h34.8V5.9c0-.3-.2-.5-.4-.5z"/>
    <path class="st0" d="M23.7 14.2V7.9h-.4V14.2zM23.3 20h.4V14.7h-.4V19zM27.5 7.9h-.2V14.2h.4V7.9zM27.3 20v.2c0 .3 0 .7.1 1.3l.3 1.2c.2.5.5 1.1.9 1.5.4.5.9.8 1.6 1 1.8.6 2.7 1.4 3.1 2.2.2.4.3.7.4.9v.4h.4s0-.7-.5-1.5-1.5-1.8-3.4-2.4c-.6-.2-1.1-.5-1.4-.9-.5-.6-.8-1.4-1-2.1-.1-.3-.1-.7-.1-.9v-.7-5.5h-.4V20zM18 40.8h13.5v1.9H18zM21.6 43.7h6.3v1h-6.3zM27.3 14.2H8.5v.5h34v-.5H27.7z"/>
</svg>
