<?xml version="1.0" encoding="utf-8"?>
<!-- Generator: Adobe Illustrator 19.1.0, SVG Export Plug-In . SVG Version: 6.00 Build 0)  -->
<svg version="1.1" id="Layer_1" xmlns="http://www.w3.org/2000/svg" xmlns:xlink="http://www.w3.org/1999/xlink" x="0px" y="0px"
	 viewBox="0 0 51 51" style="enable-background:new 0 0 51 51;" xml:space="preserve">
<metadata><?xpacket begin="﻿" id="W5M0MpCehiHzreSzNTczkc9d"?>
<x:xmpmeta xmlns:x="adobe:ns:meta/" x:xmptk="Adobe XMP Core 5.6-c067 79.157747, 2015/03/30-23:40:42        ">
   <rdf:RDF xmlns:rdf="http://www.w3.org/1999/02/22-rdf-syntax-ns#">
      <rdf:Description rdf:about=""/>
   </rdf:RDF>
</x:xmpmeta>
                                                                                                    
                                                                                                    
                                                                                                    
                                                                                                    
                                                                                                    
                                                                                                    
                                                                                                    
                                                                                                    
                                                                                                    
                                                                                                    
                                                                                                    
                                                                                                    
                                                                                                    
                                                                                                    
                                                                                                    
                                                                                                    
                                                                                                    
                                                                                                    
                                                                                                    
                                                                                                    
                           
<?xpacket end="w"?></metadata>
<style type="text/css">
	.st0{fill:#2E343F;}
</style>
<g>
	<path class="st0" d="M23.7,7.9v1.6c0.4,0.5,1.1,0.8,1.8,0.8c0.7,0,1.4-0.3,1.8-0.8V7.9l0,0h0.2h0.2v1c0.1-0.3,0.2-0.6,0.2-1
		c0-1.3-1.1-2.4-2.4-2.4s-2.4,1.1-2.4,2.4c0,0.3,0.1,0.7,0.2,1v-1C23.3,7.9,23.7,7.9,23.7,7.9z M24.4,6.7c0.3-0.3,0.7-0.5,1.1-0.5
		s0.8,0.2,1.1,0.5c0.3,0.3,0.5,0.7,0.5,1.1s-0.2,0.8-0.5,1.1s-0.7,0.5-1.1,0.5s-0.8-0.2-1.1-0.5c-0.3-0.3-0.5-0.7-0.5-1.1
		C23.9,7.4,24.1,7,24.4,6.7z"/>
	<circle class="st0" cx="25.5" cy="7.9" r="0.5"/>
	<path class="st0" d="M27.3,20v-1.6c-0.4-0.5-1.1-0.8-1.8-0.8c-0.7,0-1.4,0.3-1.8,0.8V20h-0.4v-1c-0.1,0.3-0.2,0.6-0.2,1
		c0,1.3,1.1,2.4,2.4,2.4c0.8,0,1.5-0.4,1.9-0.9c-0.1-0.6-0.1-1.1-0.1-1.3C27.3,20.1,27.3,20,27.3,20z M26.6,21.2
		c-0.3,0.3-0.7,0.5-1.1,0.5s-0.8-0.2-1.1-0.5c-0.3-0.3-0.5-0.7-0.5-1.1s0.2-0.8,0.5-1.1c0.3-0.3,0.7-0.5,1.1-0.5s0.8,0.2,1.1,0.5
		c0.3,0.3,0.5,0.7,0.5,1.1S26.9,20.9,26.6,21.2z"/>
	<path class="st0" d="M27.7,20L27.7,20L27.7,20c0,0.1,0,0.1,0,0.2c0,0.2,0,0.4,0,0.7c0.1-0.3,0.2-0.6,0.2-0.9s-0.1-0.7-0.2-1V20z"/>
	<circle class="st0" cx="25.5" cy="20" r="0.5"/>
	<path class="st0" d="M8.1,8.7L8.1,8.7V5.9c0-0.2,0.2-0.4,0.4-0.4s0.4,0.2,0.4,0.4V3.1h33.2v2.8l0,0c0-0.2,0.2-0.4,0.4-0.4
		s0.4,0.2,0.4,0.4V2.3H8.1V8.7z"/>
	<rect x="23.7" y="12.3" class="st0" width="3.6" height="0.8"/>
	<path class="st0" d="M38.4,12.3H27.7v0.8h10.7c1.5,0,2.8-0.7,3.6-1.9V8.7c0,1-0.4,1.9-1.1,2.6C40.3,11.9,39.4,12.3,38.4,12.3z"/>
	<path class="st0" d="M12.6,13.1h10.7v-0.8H12.6c-1,0-1.9-0.4-2.6-1.1c-0.7-0.7-1.1-1.6-1.1-2.6V5.9v5.4
		C9.7,12.4,11.1,13.1,12.6,13.1z"/>
	<path class="st0" d="M42.5,5.4c-0.2,0-0.4,0.2-0.4,0.4l0,0v2.8v2.6v3h0.4v0.4h-0.4v33.3H8.9V14.6H8.5v-0.4h0.4v-3V5.9
		c0-0.2-0.2-0.4-0.4-0.4S8.1,5.6,8.1,5.9v2.8v40.1h34.8V8.7V5.9C42.9,5.6,42.7,5.4,42.5,5.4z"/>
	<polygon class="st0" points="23.7,14.2 23.7,13.1 23.7,12.3 23.7,9.5 23.7,7.9 23.3,7.9 23.3,8.8 23.3,12.3 23.3,13.1 23.3,14.2 	
		"/>
	<polygon class="st0" points="23.3,20 23.7,20 23.7,18.4 23.7,14.7 23.3,14.7 23.3,19 	"/>
	<polygon class="st0" points="27.5,7.9 27.3,7.9 27.3,7.9 27.3,9.5 27.3,12.3 27.3,13.1 27.3,14.2 27.7,14.2 27.7,13.1 27.7,12.3 
		27.7,8.8 27.7,7.9 	"/>
	<path class="st0" d="M27.3,20c0,0,0,0.1,0,0.2c0,0.3,0,0.7,0.1,1.3c0.1,0.4,0.2,0.8,0.3,1.2c0.2,0.5,0.5,1.1,0.9,1.5
		c0.4,0.5,0.9,0.8,1.6,1c1.8,0.6,2.7,1.4,3.1,2.2c0.2,0.4,0.3,0.7,0.4,0.9c0,0.1,0,0.2,0,0.3v0.1l0,0h0.4c0,0,0-0.7-0.5-1.5
		s-1.5-1.8-3.4-2.4c-0.6-0.2-1.1-0.5-1.4-0.9c-0.5-0.6-0.8-1.4-1-2.1c-0.1-0.3-0.1-0.7-0.1-0.9c0-0.3,0-0.6,0-0.7s0-0.1,0-0.1l0,0
		l0,0v-1v-4.4h-0.4v3.8C27.3,18.5,27.3,20,27.3,20z"/>
	<rect x="18" y="40.8" class="st0" width="13.5" height="1.9"/>
	<rect x="21.6" y="43.7" class="st0" width="6.3" height="1"/>
	<polygon class="st0" points="27.3,14.2 23.7,14.2 23.3,14.2 8.9,14.2 8.5,14.2 8.5,14.7 8.9,14.7 23.3,14.7 23.7,14.7 27.3,14.7 
		27.7,14.7 42.1,14.7 42.5,14.7 42.5,14.2 42.1,14.2 27.7,14.2 	"/>
</g>
</svg>
