<svg id="Layer_1" xmlns="http://www.w3.org/2000/svg" viewBox="0 0 51 51">
    <style>
        .st0{fill:#3c3c3b}.st1{fill:#c6b877}
    </style>
    <path class="st0" d="M-264.3 1310v1.6c.4.5 1.1.8 1.8.8s1.4-.3 1.8-.8v-1.6h.4v1c.1-.3.2-.6.2-1 0-1.3-1.1-2.4-2.4-2.4-1.3 0-2.4 1.1-2.4 2.4 0 .3.1.7.2 1v-1h.4zm.7-1.1c.3-.3.7-.5 1.1-.5.4 0 .8.2 1.1.5.3.3.5.7.5 1.1 0 .4-.2.8-.5 1.1-.3.3-.7.5-1.1.5-.4 0-.8-.2-1.1-.5-.3-.3-.5-.7-.5-1.1 0-.5.2-.8.5-1.1z"/>
    <circle class="st0" cx="-262.5" cy="1310" r=".5"/>
    <path class="st0" d="M-260.7 1322.1v-1.6c-.4-.5-1.1-.8-1.8-.8s-1.4.3-1.8.8v1.6h-.4v-1c-.1.3-.2.6-.2 1 0 1.3 1.1 2.4 2.4 2.4.8 0 1.5-.4 1.9-.9-.1-.6-.1-1.1-.1-1.3v-.2zm-.7 1.2c-.3.3-.7.5-1.1.5-.4 0-.8-.2-1.1-.5-.3-.3-.5-.7-.5-1.1 0-.4.2-.8.5-1.1.3-.3.7-.5 1.1-.5.4 0 .8.2 1.1.5.3.3.5.7.5 1.1 0 .4-.2.8-.5 1.1zM-260.3 1322.2V1323.1c.1-.3.2-.6.2-.9 0-.3-.1-.7-.2-1v1z"/>
    <circle class="st0" cx="-262.5" cy="1322.1" r=".5"/>
    <path class="st0" d="M-279.9 1310.8v-2.8c0-.2.2-.4.4-.4s.4.2.4.4v-2.8h33.2v2.8c0-.2.2-.4.4-.4s.4.2.4.4v-3.6h-34.8v6.4zM-264.3 1314.4h3.6v.8h-3.6zM-249.6 1314.4h-10.7v.8h10.7c1.5 0 2.8-.7 3.6-1.9v-2.6c0 1-.4 1.9-1.1 2.6-.6.7-1.5 1.1-2.5 1.1z"/>
    <path class="st0" d="M-275.4 1315.3h10.7v-.8h-10.7c-1 0-1.9-.4-2.6-1.1-.7-.7-1.1-1.6-1.1-2.6v-2.8 5.4c.8 1.1 2.1 1.9 3.7 1.9z"/>
    <path class="st0" d="M-245.5 1307.6c-.2 0-.4.2-.4.4v8.4h.4v.4h-.4v33.3h-33.2v-33.3h-.4v-.4h.4v-8.4c0-.2-.2-.4-.4-.4s-.4.2-.4.4v42.9h34.8V1308c0-.3-.2-.4-.4-.4z"/>
    <path class="st0" d="M-264.3 1316.4v-6.4h-.4v6.4zM-264.7 1322.1h.4V1316.8h-.4v4.4zM-260.5 1310h-.2v6.4h.4v-6.4zM-260.7 1322.1v.2c0 .3 0 .7.1 1.3l.3 1.2c.2.5.5 1.1.9 1.5.4.5.9.8 1.6 1 1.8.6 2.7 1.4 3.1 2.2.2.4.3.7.4.9v.4h.4s0-.7-.5-1.5-1.5-1.8-3.4-2.4c-.6-.2-1.1-.5-1.4-.9-.5-.6-.8-1.4-1-2.1-.1-.3-.1-.7-.1-.9v-.7-5.5h-.4v5.3zM-270 1343h13.5v1.9H-270zM-266.4 1345.9h6.3v1h-6.3z"/>
    <path class="st0" d="M-260.7 1316.4H-279.5v.4h34v-.4h-14.8z"/>
    <g>
        <path class="st1" d="M23.7 7.9v1.6c.4.5 1.1.8 1.8.8s1.4-.3 1.8-.8V7.9h.4v1c.1-.3.2-.6.2-1 0-1.3-1.1-2.4-2.4-2.4-1.3 0-2.4 1.1-2.4 2.4 0 .3.1.7.2 1v-1h.4zm.7-1.2c.3-.3.7-.5 1.1-.5.4 0 .8.2 1.1.5.3.3.5.7.5 1.1 0 .4-.2.8-.5 1.1-.3.3-.7.5-1.1.5-.4 0-.8-.2-1.1-.5-.3-.3-.5-.7-.5-1.1 0-.4.2-.8.5-1.1z"/>
        <circle class="st1" cx="25.5" cy="7.9" r=".5"/>
        <path class="st1" d="M27.3 20v-1.6c-.4-.5-1.1-.8-1.8-.8s-1.4.3-1.8.8V20h-.4v-1c-.1.3-.2.6-.2 1 0 1.3 1.1 2.4 2.4 2.4.8 0 1.5-.4 1.9-.9-.1-.6-.1-1.1-.1-1.3V20zm-.7 1.2c-.3.3-.7.5-1.1.5-.4 0-.8-.2-1.1-.5-.3-.3-.5-.7-.5-1.1 0-.4.2-.8.5-1.1.3-.3.7-.5 1.1-.5.4 0 .8.2 1.1.5.3.3.5.7.5 1.1 0 .4-.2.8-.5 1.1zM27.7 20V20.9c.1-.3.2-.6.2-.9 0-.3-.1-.7-.2-1v1z"/>
        <circle class="st1" cx="25.5" cy="20" r=".5"/>
        <path class="st1" d="M8.1 8.7V5.9c0-.2.2-.4.4-.4s.4.2.4.4V3.1h33.2v2.8c0-.2.2-.4.4-.4s.4.2.4.4V2.3H8.1v6.4zM23.7 12.3h3.6v.8h-3.6zM38.4 12.3H27.7v.8h10.7c1.5 0 2.8-.7 3.6-1.9V8.7c0 1-.4 1.9-1.1 2.6-.6.6-1.5 1-2.5 1z"/>
        <path class="st1" d="M12.6 13.1h10.7v-.8H12.6c-1 0-1.9-.4-2.6-1.1-.7-.7-1.1-1.6-1.1-2.6V5.9v5.4c.8 1.1 2.2 1.8 3.7 1.8z"/>
        <path class="st1" d="M42.5 5.4c-.2 0-.4.2-.4.4v8.4h.4v.4h-.4v33.3H8.9V14.6h-.4v-.4h.4V5.9c0-.2-.2-.4-.4-.4s-.4.1-.4.4v42.9h34.8V5.9c0-.3-.2-.5-.4-.5z"/>
        <path class="st1" d="M23.7 14.2V7.9h-.4V14.2zM23.3 20h.4V14.7h-.4V19zM27.5 7.9h-.2V14.2h.4V7.9zM27.3 20v.2c0 .3 0 .7.1 1.3l.3 1.2c.2.5.5 1.1.9 1.5.4.5.9.8 1.6 1 1.8.6 2.7 1.4 3.1 2.2.2.4.3.7.4.9v.4h.4s0-.7-.5-1.5-1.5-1.8-3.4-2.4c-.6-.2-1.1-.5-1.4-.9-.5-.6-.8-1.4-1-2.1-.1-.3-.1-.7-.1-.9v-.7-5.5h-.4V20zM18 40.8h13.5v1.9H18zM21.6 43.7h6.3v1h-6.3zM27.3 14.2H8.5v.5h34v-.5H27.7z"/>
    </g>
</svg>
