<svg id="Layer_1" xmlns="http://www.w3.org/2000/svg" viewBox="38 12 127 27">
    <style>
        .st0{fill:#2e343f}
    </style>
    <path class="st0" d="M76.7 26.7l4.8-7.9h1.8V32h-2.5v-7.3l-3.1 5.2h-1.8l-3.1-5.2V32h-2.5V18.9h1.8l4.6 7.8zM94.1 32h-2.3v-.7c-.7.6-1.6.9-2.5.9-1.3 0-2.6-.6-3.4-1.5-.7-.8-1.2-1.9-1.2-3.2 0-2.7 2-4.7 4.5-4.7 1 0 1.9.3 2.7.9V23h2.3v9zm-2.4-5.9c-.5-.7-1.3-1.1-2.2-1.1-1.4 0-2.3 1.2-2.3 2.5 0 1.4 1 2.5 2.4 2.5.9 0 1.7-.4 2.2-1.1v-2.8zM101.7 25.1c-.2-.1-.5-.1-.9-.1-1.1 0-1.9.8-2.2 1.3V32h-2.4v-9.1h2.3v.9c.5-.7 1.5-1.1 2.6-1.1.4 0 .6 0 .8.1l-.2 2.3zM103.1 32v-9.1h2.3v.7c.7-.6 1.6-.9 2.5-.9 1.2 0 2.3.6 3.1 1.4.7-.8 1.9-1.4 3.2-1.4 1.3 0 2.5.6 3.2 1.5.6.7.9 1.6.9 3V32h-2.4v-4.9c0-.8-.2-1.2-.4-1.6-.4-.4-.9-.6-1.4-.6-1 0-1.9.7-2.2 1.2 0 .3.1.6.1 1V32h-2.4v-4.9c0-.8-.2-1.2-.4-1.6-.4-.4-.9-.6-1.4-.6-1 0-1.8.7-2.1 1.1v6h-2.6zM128.9 32h-2.3v-.7c-.7.6-1.6.9-2.5.9-1.3 0-2.6-.6-3.4-1.5-.7-.8-1.2-1.9-1.2-3.2 0-2.7 2-4.7 4.5-4.7 1 0 1.9.3 2.7.9V23h2.3v9zm-2.5-5.9c-.5-.7-1.3-1.1-2.2-1.1-1.4 0-2.3 1.2-2.3 2.5 0 1.4 1 2.5 2.4 2.5.9 0 1.7-.4 2.2-1.1v-2.8zM133.4 32H131V18.7h2.4V32zM144.1 32h-2.3v-.7c-.7.6-1.6.9-2.5.9-1.3 0-2.6-.6-3.4-1.5-.7-.8-1.2-1.9-1.2-3.2 0-2.7 2-4.7 4.5-4.7 1 0 1.9.3 2.7.9V23h2.3v9zm-2.4-5.9c-.5-.7-1.3-1.1-2.2-1.1-1.4 0-2.3 1.2-2.3 2.5 0 1.4 1 2.5 2.4 2.5.9 0 1.7-.4 2.2-1.1v-2.8zM152.6 32v-.7c-.7.6-1.6.9-2.5.9-1.3 0-2.6-.6-3.4-1.5-.7-.8-1.2-1.9-1.2-3.2 0-2.7 2-4.7 4.5-4.7 1 0 1.9.3 2.6.8v-4.9h2.4V32h-2.4zm-.1-5.9c-.5-.7-1.3-1.1-2.2-1.1-1.4 0-2.3 1.2-2.3 2.5 0 1.4 1 2.5 2.4 2.5.9 0 1.7-.4 2.2-1.1v-2.8zM164.7 30.6c-.9 1-2.3 1.6-3.7 1.6-2.7 0-4.8-1.9-4.8-4.7 0-2.5 1.7-4.7 4.4-4.7 2.5 0 4.3 2.1 4.3 4.6 0 .2 0 .5-.1.7h-6.3c.1 1.3 1.2 2.2 2.5 2.2 1 0 1.9-.6 2.3-1l1.4 1.3zm-2.2-4.3c-.1-.8-.8-1.6-1.8-1.6s-1.8.8-1.9 1.6h3.7zM47.2 19.1c-.1-.2-.2-.3-.4-.2l-.5.1c-.1 0-.2-.1-.2-.2l.1-.5c0-.2 0-.4-.2-.4-.2-.1-.4 0-.5.3l-.1.7c0 .2-.2.4-.5.4l-.7.1c-.2 0-.3.2-.3.3 0 .2.2.4.4.3l.5-.1c.1 0 .2.1.2.2v.5c0 .2 0 .4.2.4.2.1.4 0 .5-.3l.1-.7c0-.2.2-.4.5-.4l.7-.1c.2 0 .3-.2.2-.4zM60.5 29.1s-.1.2-.2.5c0 .2-.1.4-.2.6-.1.2-.2.5-.4.8-.1.1-.2.3-.2.4-.1.1-.2.3-.3.4-.2.3-.5.6-.7.9-.3.3-.6.6-.9.8-.3.3-.7.5-1 .7-.4.2-.7.4-1.1.5-.5.3-.9.3-1.3.5-.4.1-.8.2-1.1.2h-1c-.3 0-.6 0-.9-.1-.3 0-.5-.1-.7-.1-.4-.1-.6-.1-.6-.1-.2 0-.3-.2-.3-.4 0-.1.1-.2.3-.3h.2s.2 0 .6-.1c.2 0 .4 0 .6-.1.2 0 .5 0 .8-.1.3 0 .6-.1.9-.2.3-.1.6-.2.9-.2.3-.1.6-.2.9-.4.3-.1.6-.3.9-.4.3-.2.6-.3.9-.6.3-.2.5-.4.8-.6.2-.2.5-.4.7-.7l.3-.3.3-.3c.2-.2.3-.4.5-.6.1-.1.1-.2.2-.3.1-.1.1-.2.1-.3.2-.3.3-.5.3-.5l.1-.1c.1-.2.3-.2.5-.1.1.3.2.4.1.6z"/>
    <path class="st0" d="M64 25.5h-1c0 3.1-1.3 6-3.3 8.1-2.1 2.1-4.9 3.3-8.1 3.3-3.1 0-6-1.3-8.1-3.3-2.1-2.1-3.3-4.9-3.3-8.1 0-3.1 1.3-6 3.3-8.1 2.1-2.1 4.9-3.3 8.1-3.3 3.1 0 6 1.3 8.1 3.3 2.1 2.1 3.3 4.9 3.3 8.1h2.1C65.1 18 59 12 51.6 12c-7.5 0-13.5 6-13.5 13.5S44.1 39 51.6 39s13.5-6 13.5-13.5H64z"/>
</svg>
