<?xml version="1.0" encoding="utf-8"?>
<!-- Generator: Adobe Illustrator 19.1.0, SVG Export Plug-In . SVG Version: 6.00 Build 0)  -->
<svg version="1.1" id="Layer_1" xmlns="http://www.w3.org/2000/svg" xmlns:xlink="http://www.w3.org/1999/xlink" x="0px" y="0px"
	 viewBox="38 12 127 27" style="enable-background:new 38 12 127 27;" xml:space="preserve">
<metadata><?xpacket begin="﻿" id="W5M0MpCehiHzreSzNTczkc9d"?>
<x:xmpmeta xmlns:x="adobe:ns:meta/" x:xmptk="Adobe XMP Core 5.6-c067 79.157747, 2015/03/30-23:40:42        ">
   <rdf:RDF xmlns:rdf="http://www.w3.org/1999/02/22-rdf-syntax-ns#">
      <rdf:Description rdf:about=""/>
   </rdf:RDF>
</x:xmpmeta>
                                                                                                    
                                                                                                    
                                                                                                    
                                                                                                    
                                                                                                    
                                                                                                    
                                                                                                    
                                                                                                    
                                                                                                    
                                                                                                    
                                                                                                    
                                                                                                    
                                                                                                    
                                                                                                    
                                                                                                    
                                                                                                    
                                                                                                    
                                                                                                    
                                                                                                    
                                                                                                    
                           
<?xpacket end="w"?></metadata>
<style type="text/css">
	.st0{fill:#2E343F;}
</style>
<g>
	<g>
		<path class="st0" d="M76.7,26.7l4.8-7.9h1.8V32h-2.5v-7.3l-3.1,5.2h-1.8l-3.1-5.2V32h-2.5V18.9h1.8L76.7,26.7z"/>
		<path class="st0" d="M94.1,32h-2.3v-0.7c-0.7,0.6-1.6,0.9-2.5,0.9c-1.3,0-2.6-0.6-3.4-1.5c-0.7-0.8-1.2-1.9-1.2-3.2
			c0-2.7,2-4.7,4.5-4.7c1,0,1.9,0.3,2.7,0.9v-0.7h2.3V32z M91.7,26.1c-0.5-0.7-1.3-1.1-2.2-1.1c-1.4,0-2.3,1.2-2.3,2.5
			c0,1.4,1,2.5,2.4,2.5c0.9,0,1.7-0.4,2.2-1.1V26.1z"/>
		<path class="st0" d="M101.7,25.1c-0.2-0.1-0.5-0.1-0.9-0.1c-1.1,0-1.9,0.8-2.2,1.3V32h-2.4v-9.1h2.3v0.9c0.5-0.7,1.5-1.1,2.6-1.1
			c0.4,0,0.6,0,0.8,0.1L101.7,25.1z"/>
		<path class="st0" d="M103.1,32v-9.1h2.3v0.7c0.7-0.6,1.6-0.9,2.5-0.9c1.2,0,2.3,0.6,3.1,1.4c0.7-0.8,1.9-1.4,3.2-1.4
			c1.3,0,2.5,0.6,3.2,1.5c0.6,0.7,0.9,1.6,0.9,3V32h-2.4v-4.9c0-0.8-0.2-1.2-0.4-1.6c-0.4-0.4-0.9-0.6-1.4-0.6c-1,0-1.9,0.7-2.2,1.2
			c0,0.3,0.1,0.6,0.1,1V32h-2.4v-4.9c0-0.8-0.2-1.2-0.4-1.6c-0.4-0.4-0.9-0.6-1.4-0.6c-1,0-1.8,0.7-2.1,1.1V32H103.1z"/>
		<path class="st0" d="M128.9,32h-2.3v-0.7c-0.7,0.6-1.6,0.9-2.5,0.9c-1.3,0-2.6-0.6-3.4-1.5c-0.7-0.8-1.2-1.9-1.2-3.2
			c0-2.7,2-4.7,4.5-4.7c1,0,1.9,0.3,2.7,0.9v-0.7h2.3V32z M126.4,26.1c-0.5-0.7-1.3-1.1-2.2-1.1c-1.4,0-2.3,1.2-2.3,2.5
			c0,1.4,1,2.5,2.4,2.5c0.9,0,1.7-0.4,2.2-1.1V26.1z"/>
		<path class="st0" d="M133.4,32h-2.4V18.7h2.4V32z"/>
		<path class="st0" d="M144.1,32h-2.3v-0.7c-0.7,0.6-1.6,0.9-2.5,0.9c-1.3,0-2.6-0.6-3.4-1.5c-0.7-0.8-1.2-1.9-1.2-3.2
			c0-2.7,2-4.7,4.5-4.7c1,0,1.9,0.3,2.7,0.9v-0.7h2.3V32z M141.7,26.1c-0.5-0.7-1.3-1.1-2.2-1.1c-1.4,0-2.3,1.2-2.3,2.5
			c0,1.4,1,2.5,2.4,2.5c0.9,0,1.7-0.4,2.2-1.1V26.1z"/>
		<path class="st0" d="M152.6,32v-0.7c-0.7,0.6-1.6,0.9-2.5,0.9c-1.3,0-2.6-0.6-3.4-1.5c-0.7-0.8-1.2-1.9-1.2-3.2
			c0-2.7,2-4.7,4.5-4.7c1,0,1.9,0.3,2.6,0.8v-4.9h2.4V32H152.6z M152.5,26.1c-0.5-0.7-1.3-1.1-2.2-1.1c-1.4,0-2.3,1.2-2.3,2.5
			c0,1.4,1,2.5,2.4,2.5c0.9,0,1.7-0.4,2.2-1.1V26.1z"/>
		<path class="st0" d="M164.7,30.6c-0.9,1-2.3,1.6-3.7,1.6c-2.7,0-4.8-1.9-4.8-4.7c0-2.5,1.7-4.7,4.4-4.7c2.5,0,4.3,2.1,4.3,4.6
			c0,0.2,0,0.5-0.1,0.7h-6.3c0.1,1.3,1.2,2.2,2.5,2.2c1,0,1.9-0.6,2.3-1L164.7,30.6z M162.5,26.3c-0.1-0.8-0.8-1.6-1.8-1.6
			c-1,0-1.8,0.8-1.9,1.6H162.5z"/>
	</g>
	<path class="st0" d="M47.2,19.1c-0.1-0.2-0.2-0.3-0.4-0.2L46.3,19c-0.1,0-0.2-0.1-0.2-0.2l0.1-0.5c0-0.2,0-0.4-0.2-0.4
		c-0.2-0.1-0.4,0-0.5,0.3l-0.1,0.7c0,0.2-0.2,0.4-0.5,0.4l-0.7,0.1c-0.2,0-0.3,0.2-0.3,0.3c0,0.2,0.2,0.4,0.4,0.3l0.5-0.1
		c0.1,0,0.2,0.1,0.2,0.2L45,20.6c0,0.2,0,0.4,0.2,0.4c0.2,0.1,0.4,0,0.5-0.3l0.1-0.7c0-0.2,0.2-0.4,0.5-0.4l0.7-0.1
		C47.2,19.5,47.3,19.3,47.2,19.1z"/>
	<path class="st0" d="M60.5,29.1c0,0-0.1,0.2-0.2,0.5c0,0.2-0.1,0.4-0.2,0.6c-0.1,0.2-0.2,0.5-0.4,0.8c-0.1,0.1-0.2,0.3-0.2,0.4
		c-0.1,0.1-0.2,0.3-0.3,0.4c-0.2,0.3-0.5,0.6-0.7,0.9c-0.3,0.3-0.6,0.6-0.9,0.8c-0.3,0.3-0.7,0.5-1,0.7c-0.4,0.2-0.7,0.4-1.1,0.5
		C55,35,54.6,35,54.2,35.2c-0.4,0.1-0.8,0.2-1.1,0.2c-0.2,0-0.4,0-0.5,0c-0.2,0-0.3,0-0.5,0c-0.3,0-0.6,0-0.9-0.1
		c-0.3,0-0.5-0.1-0.7-0.1c-0.4-0.1-0.6-0.1-0.6-0.1c-0.2,0-0.3-0.2-0.3-0.4c0-0.1,0.1-0.2,0.3-0.3l0.2,0c0,0,0.2,0,0.6-0.1
		c0.2,0,0.4,0,0.6-0.1c0.2,0,0.5,0,0.8-0.1c0.3,0,0.6-0.1,0.9-0.2c0.3-0.1,0.6-0.2,0.9-0.2c0.3-0.1,0.6-0.2,0.9-0.4
		c0.3-0.1,0.6-0.3,0.9-0.4c0.3-0.2,0.6-0.3,0.9-0.6c0.3-0.2,0.5-0.4,0.8-0.6c0.2-0.2,0.5-0.4,0.7-0.7c0.1-0.1,0.2-0.2,0.3-0.3
		c0.1-0.1,0.2-0.2,0.3-0.3c0.2-0.2,0.3-0.4,0.5-0.6c0.1-0.1,0.1-0.2,0.2-0.3c0.1-0.1,0.1-0.2,0.1-0.3c0.2-0.3,0.3-0.5,0.3-0.5
		l0.1-0.1c0.1-0.2,0.3-0.2,0.5-0.1C60.5,28.8,60.6,28.9,60.5,29.1z"/>
	<path class="st0" d="M64,25.5H63c0,3.1-1.3,6-3.3,8.1c-2.1,2.1-4.9,3.3-8.1,3.3c-3.1,0-6-1.3-8.1-3.3c-2.1-2.1-3.3-4.9-3.3-8.1
		c0-3.1,1.3-6,3.3-8.1c2.1-2.1,4.9-3.3,8.1-3.3c3.1,0,6,1.3,8.1,3.3c2.1,2.1,3.3,4.9,3.3,8.1H64h1.1C65.1,18,59,12,51.6,12
		c-7.5,0-13.5,6-13.5,13.5c0,7.5,6,13.5,13.5,13.5c7.5,0,13.5-6,13.5-13.5H64z"/>
</g>
</svg>
