<?xml version="1.0" encoding="utf-8"?>
<!-- Generator: Adobe Illustrator 19.1.0, SVG Export Plug-In . SVG Version: 6.00 Build 0)  -->
<svg version="1.1" id="Layer_1" xmlns="http://www.w3.org/2000/svg" xmlns:xlink="http://www.w3.org/1999/xlink" x="0px" y="0px"
	 viewBox="-17 20 16 12" style="enable-background:new -17 20 16 12;" xml:space="preserve">
<metadata><?xpacket begin="﻿" id="W5M0MpCehiHzreSzNTczkc9d"?>
<x:xmpmeta xmlns:x="adobe:ns:meta/" x:xmptk="Adobe XMP Core 5.6-c067 79.157747, 2015/03/30-23:40:42        ">
   <rdf:RDF xmlns:rdf="http://www.w3.org/1999/02/22-rdf-syntax-ns#">
      <rdf:Description rdf:about=""/>
   </rdf:RDF>
</x:xmpmeta>
                                                                                                    
                                                                                                    
                                                                                                    
                                                                                                    
                                                                                                    
                                                                                                    
                                                                                                    
                                                                                                    
                                                                                                    
                                                                                                    
                                                                                                    
                                                                                                    
                                                                                                    
                                                                                                    
                                                                                                    
                                                                                                    
                                                                                                    
                                                                                                    
                                                                                                    
                                                                                                    
                           
<?xpacket end="w"?></metadata>
<style type="text/css">
	.st0{fill:#2E343F;}
</style>
<g>
	<path class="st0" d="M-16.3,21.4h14.5c0.4,0,0.7-0.3,0.7-0.7C-1,20.3-1.3,20-1.7,20h-14.6c-0.4,0-0.7,0.3-0.7,0.7
		C-17,21.1-16.7,21.4-16.3,21.4z"/>
	<path class="st0" d="M-1.7,25.3h-14.6c-0.4,0-0.7,0.3-0.7,0.7s0.3,0.7,0.7,0.7h14.5c0.5,0,0.8-0.3,0.8-0.7S-1.3,25.3-1.7,25.3z"/>
	<path class="st0" d="M-1.7,30.6h-14.6c-0.4,0-0.7,0.3-0.7,0.7c0,0.4,0.3,0.7,0.7,0.7h14.5c0.4,0,0.7-0.3,0.7-0.7
		C-1,30.9-1.3,30.6-1.7,30.6z"/>
</g>
</svg>
