<svg id="Layer_1" xmlns="http://www.w3.org/2000/svg" viewBox="0 0 51 51">
    <style>
        .st0{fill:#c6b877}
    </style>
    <path class="st0" d="M.2 43.3h50.7v.8H.2zM.2 6.8h50.7v.8H.2zM39.9 15H10.7V36.1h29.2V15zm-.8 20.2H11.6V15.8h27.5v19.4zM50.8 15.8V15h-7.6v21h7.6v-.8H44V15.8zM7.8 15H.2v.8H7v19.4H.2v.8h7.6zM42.8 10.3h2v2h-2zM46.9 10.3h2v2h-2zM38.8 10.3h2v2h-2zM34.7 10.3h2v2h-2zM30.7 10.3h2v2h-2zM26.6 10.3h2v2h-2zM22.6 10.3h2v2h-2zM18.5 10.3h2v2h-2zM14.5 10.3h2v2h-2zM10.4 10.3h2v2h-2zM6.4 10.3h2v2h-2zM2.3 10.3h2v2h-2zM42.8 38.7h2v2h-2zM46.9 38.7h2v2h-2zM38.8 38.7h2v2h-2zM34.7 38.7h2v2h-2zM30.7 38.7h2v2h-2zM26.6 38.7h2v2h-2zM22.6 38.7h2v2h-2zM18.5 38.7h2v2h-2zM14.5 38.7h2v2h-2zM10.4 38.7h2v2h-2zM6.4 38.7h2v2h-2zM2.3 38.7h2v2h-2z"/>
    <path class="st0" d="M15.4 21l-1.1 1.5 1.1.8 1.1-1.5 1.2 1.5 1.1-.8-1.3-1.5 1.9-.7-.5-1.3-1.7.7v-1.8h-1.4v1.8l-1.7-.5-.5 1.2z"/>
</svg>
