<?xml version="1.0" encoding="utf-8"?>
<!-- Generator: Adobe Illustrator 19.1.0, SVG Export Plug-In . SVG Version: 6.00 Build 0)  -->
<svg version="1.1" id="Layer_1" xmlns="http://www.w3.org/2000/svg" xmlns:xlink="http://www.w3.org/1999/xlink" x="0px" y="0px"
	 viewBox="0 0 51 51" style="enable-background:new 0 0 51 51;" xml:space="preserve">
<metadata><?xpacket begin="﻿" id="W5M0MpCehiHzreSzNTczkc9d"?>
<x:xmpmeta xmlns:x="adobe:ns:meta/" x:xmptk="Adobe XMP Core 5.6-c067 79.157747, 2015/03/30-23:40:42        ">
   <rdf:RDF xmlns:rdf="http://www.w3.org/1999/02/22-rdf-syntax-ns#">
      <rdf:Description rdf:about=""/>
   </rdf:RDF>
</x:xmpmeta>
                                                                                                    
                                                                                                    
                                                                                                    
                                                                                                    
                                                                                                    
                                                                                                    
                                                                                                    
                                                                                                    
                                                                                                    
                                                                                                    
                                                                                                    
                                                                                                    
                                                                                                    
                                                                                                    
                                                                                                    
                                                                                                    
                                                                                                    
                                                                                                    
                                                                                                    
                                                                                                    
                           
<?xpacket end="w"?></metadata>
<style type="text/css">
	.st0{fill:#2E343F;}
</style>
<g>
	<rect x="0.2" y="43.3" class="st0" width="50.7" height="0.8"/>
	<rect x="0.2" y="6.8" class="st0" width="50.7" height="0.8"/>
	<path class="st0" d="M39.9,15H10.7v0.4v20.7h29.2V15z M39.1,35.2H11.6V15.8h27.5V35.2z"/>
	<polygon class="st0" points="50.8,15.8 50.8,15 43.2,15 43.2,36 50.8,36 50.8,35.2 44,35.2 44,15.8 	"/>
	<polygon class="st0" points="7.8,15 0.2,15 0.2,15.8 7,15.8 7,35.2 0.2,35.2 0.2,36 7.8,36 	"/>
	<rect x="42.8" y="10.3" class="st0" width="2" height="2"/>
	<rect x="46.9" y="10.3" class="st0" width="2" height="2"/>
	<rect x="38.8" y="10.3" class="st0" width="2" height="2"/>
	<rect x="34.7" y="10.3" class="st0" width="2" height="2"/>
	<rect x="30.7" y="10.3" class="st0" width="2" height="2"/>
	<rect x="26.6" y="10.3" class="st0" width="2" height="2"/>
	<rect x="22.6" y="10.3" class="st0" width="2" height="2"/>
	<rect x="18.5" y="10.3" class="st0" width="2" height="2"/>
	<rect x="14.5" y="10.3" class="st0" width="2" height="2"/>
	<rect x="10.4" y="10.3" class="st0" width="2" height="2"/>
	<rect x="6.4" y="10.3" class="st0" width="2" height="2"/>
	<rect x="2.3" y="10.3" class="st0" width="2" height="2"/>
	<rect x="42.8" y="38.7" class="st0" width="2" height="2"/>
	<rect x="46.9" y="38.7" class="st0" width="2" height="2"/>
	<rect x="38.8" y="38.7" class="st0" width="2" height="2"/>
	<rect x="34.7" y="38.7" class="st0" width="2" height="2"/>
	<rect x="30.7" y="38.7" class="st0" width="2" height="2"/>
	<rect x="26.6" y="38.7" class="st0" width="2" height="2"/>
	<rect x="22.6" y="38.7" class="st0" width="2" height="2"/>
	<rect x="18.5" y="38.7" class="st0" width="2" height="2"/>
	<rect x="14.5" y="38.7" class="st0" width="2" height="2"/>
	<rect x="10.4" y="38.7" class="st0" width="2" height="2"/>
	<rect x="6.4" y="38.7" class="st0" width="2" height="2"/>
	<rect x="2.3" y="38.7" class="st0" width="2" height="2"/>
	<polygon class="st0" points="15.4,21 14.3,22.5 15.4,23.3 16.5,21.8 17.7,23.3 18.8,22.5 17.5,21 19.4,20.3 18.9,19 17.2,19.7 
		17.2,17.9 15.8,17.9 15.8,19.7 14.1,19.2 13.6,20.4 	"/>
</g>
</svg>
