<svg id="Layer_1" xmlns="http://www.w3.org/2000/svg" viewBox="0 0 51 51">
    <style>
        .st0{fill:#c6b877}
    </style>
    <path class="st0" d="M.2 43.3h50.7v.8H.2zm0-36.5h50.7v.8H.2zM39.9 15H10.7v21.1h29.2V15zm-.8 20.2H11.6V15.8h27.5v19.4zm11.7-19.4V15h-7.6v21h7.6v-.8H44V15.8zm-43-.8H.2v.8H7v19.4H.2v.8h7.6zm35-4.7h2v2h-2zm4.1 0h2v2h-2zm-8.1 0h2v2h-2zm-4.1 0h2v2h-2zm-4 0h2v2h-2zm-4.1 0h2v2h-2zm-4 0h2v2h-2zm-4.1 0h2v2h-2zm-4 0h2v2h-2zm-4.1 0h2v2h-2zm-4 0h2v2h-2zm-4.1 0h2v2h-2zm40.5 28.4h2v2h-2zm4.1 0h2v2h-2zm-8.1 0h2v2h-2zm-4.1 0h2v2h-2zm-4 0h2v2h-2zm-4.1 0h2v2h-2zm-4 0h2v2h-2zm-4.1 0h2v2h-2zm-4 0h2v2h-2zm-4.1 0h2v2h-2zm-4 0h2v2h-2zm-4.1 0h2v2h-2z"/>
    <path class="st0" d="M15.4 21l-1.1 1.5 1.1.8 1.1-1.5 1.2 1.5 1.1-.8-1.3-1.5 1.9-.7-.5-1.3-1.7.7v-1.8h-1.4v1.8l-1.7-.5-.5 1.2z"/>
</svg>
