<svg id="Layer_1" xmlns="http://www.w3.org/2000/svg" viewBox="0 0 51 51">
    <style>
        .st0{fill:#2e343f}
    </style>
    <path class="st0" d="M-264.3 1310v1.6c.4.5 1.1.8 1.8.8s1.4-.3 1.8-.8v-1.6h.4v1c.1-.3.2-.6.2-1 0-1.3-1.1-2.4-2.4-2.4s-2.4 1.1-2.4 2.4c0 .3.1.7.2 1v-1h.4zm.7-1.1c.3-.3.7-.5 1.1-.5s.8.2 1.1.5c.3.3.5.7.5 1.1s-.2.8-.5 1.1c-.3.3-.7.5-1.1.5s-.8-.2-1.1-.5c-.3-.3-.5-.7-.5-1.1 0-.5.2-.8.5-1.1z"/>
    <circle class="st0" cx="-262.5" cy="1310" r=".5"/>
    <path class="st0" d="M-260.7 1322.1v-1.6c-.4-.5-1.1-.8-1.8-.8s-1.4.3-1.8.8v1.6h-.4v-1c-.1.3-.2.6-.2 1 0 1.3 1.1 2.4 2.4 2.4.8 0 1.5-.4 1.9-.9-.1-.6-.1-1.1-.1-1.3v-.2zm-.7 1.2c-.3.3-.7.5-1.1.5s-.8-.2-1.1-.5c-.3-.3-.5-.7-.5-1.1s.2-.8.5-1.1c.3-.3.7-.5 1.1-.5s.8.2 1.1.5c.3.3.5.7.5 1.1 0 .4-.2.8-.5 1.1zM-260.3 1322.2V1323.1c.1-.3.2-.6.2-.9s-.1-.7-.2-1v1z"/>
    <circle class="st0" cx="-262.5" cy="1322.1" r=".5"/>
    <path class="st0" d="M-279.9 1310.8v-2.8c0-.2.2-.4.4-.4s.4.2.4.4v-2.8h33.2v2.8c0-.2.2-.4.4-.4s.4.2.4.4v-3.6h-34.8v6.4zM-264.3 1314.4h3.6v.8h-3.6zM-249.6 1314.4h-10.7v.8h10.7c1.5 0 2.8-.7 3.6-1.9v-2.6c0 1-.4 1.9-1.1 2.6-.6.7-1.5 1.1-2.5 1.1z"/>
    <path class="st0" d="M-275.4 1315.3h10.7v-.8h-10.7c-1 0-1.9-.4-2.6-1.1s-1.1-1.6-1.1-2.6v-2.8 5.4c.8 1.1 2.1 1.9 3.7 1.9z"/>
    <path class="st0" d="M-245.5 1307.6c-.2 0-.4.2-.4.4v8.4h.4v.4h-.4v33.3h-33.2v-33.3h-.4v-.4h.4v-8.4c0-.2-.2-.4-.4-.4s-.4.2-.4.4v42.9h34.8V1308c0-.3-.2-.4-.4-.4z"/>
    <path class="st0" d="M-264.3 1316.4v-6.4h-.4v6.4zM-264.7 1322.1h.4V1316.8h-.4v4.4zM-260.5 1310h-.2v6.4h.4v-6.4zM-260.7 1322.1v.2c0 .3 0 .7.1 1.3l.3 1.2c.2.5.5 1.1.9 1.5.4.5.9.8 1.6 1 1.8.6 2.7 1.4 3.1 2.2.2.4.3.7.4.9v.4h.4s0-.7-.5-1.5-1.5-1.8-3.4-2.4c-.6-.2-1.1-.5-1.4-.9-.5-.6-.8-1.4-1-2.1-.1-.3-.1-.7-.1-.9v-.7-5.5h-.4v5.3zM-270 1343h13.5v1.9H-270zM-266.4 1345.9h6.3v1h-6.3z"/>
    <path class="st0" d="M-260.7 1316.4H-279.5v.4h34v-.4h-14.8z"/>
    <g>
        <path class="st0" d="M42.7 12.9l.1-.4h-.1zM5.4 40.9H2.3l3.2-22.1V13l-4 27.8v.1c0 .5.4.8.8.8h3.2l-.1-.8zM41.9 41.7v3.2H6.3V18.7l-.8-5.8V44.8c0 .5.4.8.8.8h35.6c.5 0 .8-.4.8-.8v-3.2l-.8.1zM41.9 12.5H6.3v.4h35.6z"/>
        <path class="st0" d="M45.4 37.6l.5 3.2H10.3l-3.1-22L5.4 13v-.1-.5l.1.4.8 5.8L9.4 41c.1.4.4.7.8.7h35.6c.5 0 .8-.4.8-.8v-.1l-.4-3.1h-.8v-.1z"/>
        <path class="st0" d="M42.7 12.9c0 .3-.2.4-.4.4s-.4-.2-.4-.4v.1l6.8 23.8H13.1L6.3 12.9v-.1.1c0 .2-.2.4-.4.4s-.4-.2-.4-.4v.1l1.7 5.8L12.3 37c.1.4.4.6.8.6H48.7c.2 0 .4-.1.6-.2.1-.2.2-.4.2-.6v-.2l-6.8-23.7z"/>
        <path class="st0" d="M5.4 12.9c0 .3.2.4.4.4s.4-.2.4-.4v-6c0-.5.4-.8.8-.8h34c.5 0 .8.4.8.8V13c0 .2.2.4.4.4s.4-.2.4-.4V6.9c0-.9-.7-1.7-1.7-1.7h-34c-.7.1-1.5.8-1.5 1.7v6zM12.9 24.2l.5 1.8 1.5-1 2 7.2h1.9L16 22.4zM18.9 24.3H22l-.9 7.9H23l1.1-9.6h-5.7zM31 26.5l-.7 3.5-2.7-3.5h-1.3l1.6 5.7h1.2l-1-3.5 2.9 3.7.8-3.7 1 3.5H34l-1.6-5.7zM36.4 26.5h-1.5l-.3 5.7h1.2l.1-1H38l.6 1h1.3l-3.5-5.7zm-.5 3.8l.1-2.4 1.4 2.4h-1.5zM42.5 30c.8-.2 1.1-.8.9-1.7-.3-1.2-1.3-1.8-2.7-1.8h-1.8l1.6 5.7h1.2l-.6-2.3 2.2 2.3h1.4L42.5 30zm-1.1-.7h-.5l-.5-1.8h.6c.6 0 1 .3 1.2.9.1.5-.1.9-.8.9z"/>
    </g>
</svg>
