<?xml version="1.0" encoding="utf-8"?>
<!-- Generator: Adobe Illustrator 19.1.0, SVG Export Plug-In . SVG Version: 6.00 Build 0)  -->
<svg version="1.1" id="Layer_1" xmlns="http://www.w3.org/2000/svg" xmlns:xlink="http://www.w3.org/1999/xlink" x="0px" y="0px"
	 viewBox="0 0 51 51" style="enable-background:new 0 0 51 51;" xml:space="preserve">
<metadata><?xpacket begin="﻿" id="W5M0MpCehiHzreSzNTczkc9d"?>
<x:xmpmeta xmlns:x="adobe:ns:meta/" x:xmptk="Adobe XMP Core 5.6-c067 79.157747, 2015/03/30-23:40:42        ">
   <rdf:RDF xmlns:rdf="http://www.w3.org/1999/02/22-rdf-syntax-ns#">
      <rdf:Description rdf:about=""/>
   </rdf:RDF>
</x:xmpmeta>
                                                                                                    
                                                                                                    
                                                                                                    
                                                                                                    
                                                                                                    
                                                                                                    
                                                                                                    
                                                                                                    
                                                                                                    
                                                                                                    
                                                                                                    
                                                                                                    
                                                                                                    
                                                                                                    
                                                                                                    
                                                                                                    
                                                                                                    
                                                                                                    
                                                                                                    
                                                                                                    
                           
<?xpacket end="w"?></metadata>
<style type="text/css">
	.st0{fill:#2E343F;}
</style>
<g>
	<path class="st0" d="M-264.3,1310v1.6c0.4,0.5,1.1,0.8,1.8,0.8c0.7,0,1.4-0.3,1.8-0.8v-1.6l0,0h0.2h0.2v1c0.1-0.3,0.2-0.6,0.2-1
		c0-1.3-1.1-2.4-2.4-2.4s-2.4,1.1-2.4,2.4c0,0.3,0.1,0.7,0.2,1v-1H-264.3z M-263.6,1308.9c0.3-0.3,0.7-0.5,1.1-0.5s0.8,0.2,1.1,0.5
		c0.3,0.3,0.5,0.7,0.5,1.1s-0.2,0.8-0.5,1.1c-0.3,0.3-0.7,0.5-1.1,0.5s-0.8-0.2-1.1-0.5c-0.3-0.3-0.5-0.7-0.5-1.1
		C-264.1,1309.5-263.9,1309.2-263.6,1308.9z"/>
	<circle class="st0" cx="-262.5" cy="1310" r="0.5"/>
	<path class="st0" d="M-260.7,1322.1v-1.6c-0.4-0.5-1.1-0.8-1.8-0.8c-0.7,0-1.4,0.3-1.8,0.8v1.6h-0.4v-1c-0.1,0.3-0.2,0.6-0.2,1
		c0,1.3,1.1,2.4,2.4,2.4c0.8,0,1.5-0.4,1.9-0.9c-0.1-0.6-0.1-1.1-0.1-1.3C-260.7,1322.2-260.7,1322.2-260.7,1322.1z M-261.4,1323.3
		c-0.3,0.3-0.7,0.5-1.1,0.5s-0.8-0.2-1.1-0.5c-0.3-0.3-0.5-0.7-0.5-1.1s0.2-0.8,0.5-1.1c0.3-0.3,0.7-0.5,1.1-0.5s0.8,0.2,1.1,0.5
		c0.3,0.3,0.5,0.7,0.5,1.1C-260.9,1322.6-261.1,1323-261.4,1323.3z"/>
	<path class="st0" d="M-260.3,1322.2L-260.3,1322.2L-260.3,1322.2c0,0.1,0,0.1,0,0.2c0,0.2,0,0.4,0,0.7c0.1-0.3,0.2-0.6,0.2-0.9
		s-0.1-0.7-0.2-1V1322.2z"/>
	<circle class="st0" cx="-262.5" cy="1322.1" r="0.5"/>
	<path class="st0" d="M-279.9,1310.8L-279.9,1310.8v-2.8c0-0.2,0.2-0.4,0.4-0.4c0.2,0,0.4,0.2,0.4,0.4v-2.8h33.2v2.8l0,0
		c0-0.2,0.2-0.4,0.4-0.4s0.4,0.2,0.4,0.4v-3.6h-34.8L-279.9,1310.8L-279.9,1310.8z"/>
	<rect x="-264.3" y="1314.4" class="st0" width="3.6" height="0.8"/>
	<path class="st0" d="M-249.6,1314.4h-10.7v0.8h10.7c1.5,0,2.8-0.7,3.6-1.9v-2.6c0,1-0.4,1.9-1.1,2.6
		C-247.7,1314-248.6,1314.4-249.6,1314.4z"/>
	<path class="st0" d="M-275.4,1315.3h10.7v-0.8h-10.7c-1,0-1.9-0.4-2.6-1.1s-1.1-1.6-1.1-2.6v-2.8v5.4
		C-278.3,1314.5-277,1315.3-275.4,1315.3z"/>
	<path class="st0" d="M-245.5,1307.6c-0.2,0-0.4,0.2-0.4,0.4l0,0v2.8v2.6v3h0.4v0.4h-0.4v33.3h-33.2v-33.3h-0.4v-0.4h0.4v-3v-5.4
		c0-0.2-0.2-0.4-0.4-0.4c-0.2,0-0.4,0.2-0.4,0.4v2.8v40.1h34.8v-40.1v-2.8C-245.1,1307.7-245.3,1307.6-245.5,1307.6z"/>
	<polygon class="st0" points="-264.3,1316.4 -264.3,1315.3 -264.3,1314.4 -264.3,1311.6 -264.3,1310 -264.7,1310 -264.7,1311 
		-264.7,1314.4 -264.7,1315.3 -264.7,1316.4 	"/>
	<polygon class="st0" points="-264.7,1322.1 -264.3,1322.1 -264.3,1320.5 -264.3,1316.8 -264.7,1316.8 -264.7,1321.2 	"/>
	<polygon class="st0" points="-260.5,1310 -260.7,1310 -260.7,1310 -260.7,1311.6 -260.7,1314.4 -260.7,1315.3 -260.7,1316.4 
		-260.3,1316.4 -260.3,1315.3 -260.3,1314.4 -260.3,1311 -260.3,1310 	"/>
	<path class="st0" d="M-260.7,1322.1c0,0,0,0.1,0,0.2c0,0.3,0,0.7,0.1,1.3c0.1,0.4,0.2,0.8,0.3,1.2c0.2,0.5,0.5,1.1,0.9,1.5
		c0.4,0.5,0.9,0.8,1.6,1c1.8,0.6,2.7,1.4,3.1,2.2c0.2,0.4,0.3,0.7,0.4,0.9c0,0.1,0,0.2,0,0.3v0.1l0,0h0.4c0,0,0-0.7-0.5-1.5
		s-1.5-1.8-3.4-2.4c-0.6-0.2-1.1-0.5-1.4-0.9c-0.5-0.6-0.8-1.4-1-2.1c-0.1-0.3-0.1-0.7-0.1-0.9c0-0.3,0-0.6,0-0.7s0-0.1,0-0.1l0,0
		l0,0v-1v-4.4h-0.4v3.8V1322.1z"/>
	<rect x="-270" y="1343" class="st0" width="13.5" height="1.9"/>
	<rect x="-266.4" y="1345.9" class="st0" width="6.3" height="1"/>
	<polygon class="st0" points="-260.7,1316.4 -264.3,1316.4 -264.7,1316.4 -279.1,1316.4 -279.5,1316.4 -279.5,1316.8 -279.1,1316.8 
		-264.7,1316.8 -264.3,1316.8 -260.7,1316.8 -260.3,1316.8 -245.9,1316.8 -245.5,1316.8 -245.5,1316.4 -245.9,1316.4 -260.3,1316.4 
			"/>
</g>
<g>
	<polygon class="st0" points="42.7,12.9 42.8,12.5 42.7,12.5 	"/>
	<path class="st0" d="M5.4,40.9H2.3l0,0l0,0l3.2-22.1V13l0,0l-4,27.8l0,0v0.1c0,0.5,0.4,0.8,0.8,0.8h3.2L5.4,40.9L5.4,40.9z"/>
	<path class="st0" d="M41.9,41.7v3.2H6.3V18.7l-0.8-5.8v5.8v22.1v0.8v3.2c0,0.5,0.4,0.8,0.8,0.8h35.6c0.5,0,0.8-0.4,0.8-0.8v-3.2
		L41.9,41.7L41.9,41.7z"/>
	<polygon class="st0" points="41.9,12.5 6.3,12.5 6.3,12.9 6.3,12.9 41.9,12.9 	"/>
	<path class="st0" d="M45.4,37.6l0.5,3.2l0,0h-8l0,0H10.3l0,0l-3.1-22L5.4,13c0,0,0,0,0-0.1c0,0,0,0,0-0.1v-0.4l0,0l0.1,0.4l0,0
		l0.8,5.8L9.4,41c0.1,0.4,0.4,0.7,0.8,0.7h27.6h4h0.8h3.2c0.5,0,0.8-0.4,0.8-0.8v-0.1l-0.4-3.1h-0.8V37.6z"/>
	<path class="st0" d="M42.7,12.9L42.7,12.9L42.7,12.9c0,0.3-0.2,0.4-0.4,0.4s-0.4-0.2-0.4-0.4c0,0,0,0,0,0.1l0,0l6.8,23.8l0,0l0,0
		H13.1l0,0L6.3,12.9v-0.1v0.1c0,0.2-0.2,0.4-0.4,0.4c-0.2,0-0.4-0.2-0.4-0.4c0,0,0,0,0,0.1l1.7,5.8L12.3,37c0.1,0.4,0.4,0.6,0.8,0.6
		h32.3h0.8h2.5c0.2,0,0.4-0.1,0.6-0.2c0.1-0.2,0.2-0.4,0.2-0.6c0-0.1,0-0.2,0-0.2L42.7,12.9z"/>
	<path class="st0" d="M5.4,12.9L5.4,12.9c0,0.3,0.2,0.4,0.4,0.4c0.2,0,0.4-0.2,0.4-0.4v-0.1v-0.4V6.9c0-0.5,0.4-0.8,0.8-0.8h34
		c0.5,0,0.8,0.4,0.8,0.8v5.6v0.4c0,0,0,0,0,0.1c0,0.2,0.2,0.4,0.4,0.4s0.4-0.2,0.4-0.4v-0.1v-0.4V6.9c0-0.9-0.7-1.7-1.7-1.7h-34
		C6.2,5.3,5.4,6,5.4,6.9v5.6V12.9z"/>
	<polygon class="st0" points="12.9,24.2 13.4,26 14.9,25 16.9,32.2 18.8,32.2 16,22.4 	"/>
	<polygon class="st0" points="18.9,24.3 22,24.3 21.1,32.2 23,32.2 24.1,22.6 18.4,22.6 	"/>
	<polygon class="st0" points="31,26.5 30.3,30 27.6,26.5 26.3,26.5 27.9,32.2 29.1,32.2 28.1,28.7 31,32.4 31.8,28.7 32.8,32.2 
		34,32.2 32.4,26.5 	"/>
	<path class="st0" d="M36.4,26.5h-1.5l-0.3,5.7h1.2l0.1-1H38l0.6,1h1.3L36.4,26.5z M35.9,30.3l0.1-2.4l1.4,2.4H35.9z"/>
	<path class="st0" d="M42.5,30c0.8-0.2,1.1-0.8,0.9-1.7c-0.3-1.2-1.3-1.8-2.7-1.8h-1.8l1.6,5.7h1.2l-0.6-2.3l2.2,2.3h1.4L42.5,30z
		 M41.4,29.3h-0.5l-0.5-1.8H41c0.6,0,1,0.3,1.2,0.9C42.3,28.9,42.1,29.3,41.4,29.3z"/>
</g>
</svg>
