<svg id="Layer_1" xmlns="http://www.w3.org/2000/svg" viewBox="52 10 156 32">
    <style>
        .st0{fill:#2e343f}
    </style>
    <path class="st0" d="M67.7 10.3H56.4s-2.2-.3-3.5 1.8c-1.4 2.4.4 5.7.4 5.7l4.9 7.9s.5.6.1 1.3c-.4.6-1 .5-1 .5H52l1.4 7.5H65s2.7.3 4.1-2.5c1.2-2.6-.5-4.9-.5-4.9l-4.9-9s-.1-.3 0-.5.4-.2.4-.2h5l-1.4-7.6zM85.7 35s-8 .9-13.4-7.4c-3-4.5-3.7-17 8.1-17.4H86l1.5 7.6h-5.3c-2.4 0-3.6 1.6-3.6 3.3s.2 5.1 5.9 6.4c1.9.4 3.3 0 3.3 0L85.7 35zM90 18.7h8.6v16.2H90zM146.5 10.3l-2.3 11-2.1-11h-8.5l6 24.7h8.7l1.9-9.6 1.7 8 3.5-14.5-1.2-8.6zM158.8 10.3l-.7 3.5h15.6l1-3.5zM157.9 15l-1.2 4.3h7.4l1.4-4.3zM156.4 20.9l-.8 3.4h14.3l1-3.4zM155.4 25.8h7.5l-2.1 9.2h-7.5zM172.6 35h4.8l6.2-24.7H179zM186.6 10.3h4.7l3.4 8.3 8.1-8.3h5.2l-11.4 12.4L202 35h-4.9l-3.8-8.6-8.1 8.6h-5.3l11.7-12.9zM114.2 10.3h17.7l2 7.3h-10.3V19h8.8l-2.3 7.3h-6.6v1.2h11l-2.4 7.5h-17.9z"/>
    <path class="st0" d="M119.6 37.9c-2.6-1.1-6-2.8-8-4.8-3.7-3.8-4.1-6.7-4.1-6.7s5.9-4.6 4.6-10c-1.5-6.1-5.4-5.9-11.3-5.9l-10.5-.2-1.4 7.6h11.5c1.3 0 2.9.1 2.8 2.2 0 1.8-3.9 3.9-3.9 3.9s-.6 4.4 4.9 11.1c2.1 2.6 4.6 4.9 6.9 6.7l8.5-3.9z"/>
</svg>
