<?xml version="1.0" encoding="utf-8"?>
<!-- Generator: Adobe Illustrator 19.1.0, SVG Export Plug-In . SVG Version: 6.00 Build 0)  -->
<svg version="1.1" id="Layer_1" xmlns="http://www.w3.org/2000/svg" xmlns:xlink="http://www.w3.org/1999/xlink" x="0px" y="0px"
	 viewBox="52 10 156 32" style="enable-background:new 52 10 156 32;" xml:space="preserve">
<metadata><?xpacket begin="﻿" id="W5M0MpCehiHzreSzNTczkc9d"?>
<x:xmpmeta xmlns:x="adobe:ns:meta/" x:xmptk="Adobe XMP Core 5.6-c067 79.157747, 2015/03/30-23:40:42        ">
   <rdf:RDF xmlns:rdf="http://www.w3.org/1999/02/22-rdf-syntax-ns#">
      <rdf:Description rdf:about=""/>
   </rdf:RDF>
</x:xmpmeta>
                                                                                                    
                                                                                                    
                                                                                                    
                                                                                                    
                                                                                                    
                                                                                                    
                                                                                                    
                                                                                                    
                                                                                                    
                                                                                                    
                                                                                                    
                                                                                                    
                                                                                                    
                                                                                                    
                                                                                                    
                                                                                                    
                                                                                                    
                                                                                                    
                                                                                                    
                                                                                                    
                           
<?xpacket end="w"?></metadata>
<style type="text/css">
	.st0{fill:#2E343F;}
</style>
<g>
	<g>
		<path class="st0" d="M67.7,10.3H56.4c0,0-2.2-0.3-3.5,1.8c-1.4,2.4,0.4,5.7,0.4,5.7l4.9,7.9c0,0,0.5,0.6,0.1,1.3
			c-0.4,0.6-1,0.5-1,0.5H52l1.4,7.5H65c0,0,2.7,0.3,4.1-2.5c1.2-2.6-0.5-4.9-0.5-4.9l-4.9-9c0,0-0.1-0.3,0-0.5s0.4-0.2,0.4-0.2h5
			L67.7,10.3z"/>
		<path class="st0" d="M85.7,35c0,0-8,0.9-13.4-7.4c-3-4.5-3.7-17,8.1-17.4c3.1,0,5.6,0,5.6,0l1.5,7.6c0,0-2.8,0-5.3,0
			c-2.4,0-3.6,1.6-3.6,3.3s0.2,5.1,5.9,6.4c1.9,0.4,3.3,0,3.3,0L85.7,35z"/>
		<rect x="90" y="18.7" class="st0" width="8.6" height="16.2"/>
		<polygon class="st0" points="146.5,10.3 144.2,21.3 142.1,10.3 133.6,10.3 139.6,35 148.3,35 150.2,25.4 151.9,33.4 155.4,18.9 
			154.2,10.3 		"/>
		<polygon class="st0" points="158.8,10.3 158.1,13.8 173.7,13.8 174.7,10.3 		"/>
		<polygon class="st0" points="157.9,15 156.7,19.3 164.1,19.3 165.5,15 		"/>
		<polygon class="st0" points="156.4,20.9 155.6,24.3 169.9,24.3 170.9,20.9 		"/>
		<polygon class="st0" points="155.4,25.8 162.9,25.8 160.8,35 153.3,35 		"/>
		<polygon class="st0" points="172.6,35 177.4,35 183.6,10.3 179,10.3 		"/>
		<polygon class="st0" points="186.6,10.3 191.3,10.3 194.7,18.6 202.8,10.3 208,10.3 196.6,22.7 202,35 197.1,35 193.3,26.4 
			185.2,35 179.9,35 191.6,22.1 		"/>
		<polygon class="st0" points="114.2,10.3 131.9,10.3 133.9,17.6 123.6,17.6 123.6,19 132.4,19 130.1,26.3 123.5,26.3 123.5,27.5 
			134.5,27.5 132.1,35 114.2,35 		"/>
		<path class="st0" d="M119.6,37.9c-2.6-1.1-6-2.8-8-4.8c-3.7-3.8-4.1-6.7-4.1-6.7s5.9-4.6,4.6-10c-1.5-6.1-5.4-5.9-11.3-5.9
			l-10.5-0.2l-1.4,7.6c0,0,10.2,0,11.5,0c1.3,0,2.9,0.1,2.8,2.2c0,1.8-3.9,3.9-3.9,3.9s-0.6,4.4,4.9,11.1c2.1,2.6,4.6,4.9,6.9,6.7
			L119.6,37.9z"/>
	</g>
</g>
</svg>
