<svg id="Layer_1" xmlns="http://www.w3.org/2000/svg" viewBox="0 0 51 51">
    <style>
        .st0{fill:#3c3c3b}.st1{fill:#2e343f}
    </style>
    <path class="st0" d="M-264.3 1310v1.6c.4.5 1.1.8 1.8.8s1.4-.3 1.8-.8v-1.6h.4v1c.1-.3.2-.6.2-1 0-1.3-1.1-2.4-2.4-2.4s-2.4 1.1-2.4 2.4c0 .3.1.7.2 1v-1h.4zm.7-1.1c.3-.3.7-.5 1.1-.5s.8.2 1.1.5c.3.3.5.7.5 1.1s-.2.8-.5 1.1c-.3.3-.7.5-1.1.5s-.8-.2-1.1-.5c-.3-.3-.5-.7-.5-1.1 0-.5.2-.8.5-1.1z"/>
    <circle class="st0" cx="-262.5" cy="1310" r=".5"/>
    <path class="st0" d="M-260.7 1322.1v-1.6c-.4-.5-1.1-.8-1.8-.8s-1.4.3-1.8.8v1.6h-.4v-1c-.1.3-.2.6-.2 1 0 1.3 1.1 2.4 2.4 2.4.8 0 1.5-.4 1.9-.9-.1-.6-.1-1.1-.1-1.3v-.2zm-.7 1.2c-.3.3-.7.5-1.1.5s-.8-.2-1.1-.5c-.3-.3-.5-.7-.5-1.1s.2-.8.5-1.1c.3-.3.7-.5 1.1-.5s.8.2 1.1.5c.3.3.5.7.5 1.1 0 .4-.2.8-.5 1.1zm1.1-1.1v.9c.1-.3.2-.6.2-.9s-.1-.7-.2-1v1z"/>
    <circle class="st0" cx="-262.5" cy="1322.1" r=".5"/>
    <path class="st0" d="M-279.9 1310.8v-2.8c0-.2.2-.4.4-.4s.4.2.4.4v-2.8h33.2v2.8c0-.2.2-.4.4-.4s.4.2.4.4v-3.6h-34.8v6.4zm15.6 3.6h3.6v.8h-3.6zm14.7 0h-10.7v.8h10.7c1.5 0 2.8-.7 3.6-1.9v-2.6c0 1-.4 1.9-1.1 2.6-.6.7-1.5 1.1-2.5 1.1z"/>
    <path class="st0" d="M-275.4 1315.3h10.7v-.8h-10.7c-1 0-1.9-.4-2.6-1.1s-1.1-1.6-1.1-2.6v-2.8 5.4c.8 1.1 2.1 1.9 3.7 1.9z"/>
    <path class="st0" d="M-245.5 1307.6c-.2 0-.4.2-.4.4v8.4h.4v.4h-.4v33.3h-33.2v-33.3h-.4v-.4h.4v-8.4c0-.2-.2-.4-.4-.4s-.4.2-.4.4v42.9h34.8V1308c0-.3-.2-.4-.4-.4z"/>
    <path class="st0" d="M-264.3 1316.4v-6.4h-.4v6.4zm-.4 5.7h.4v-5.3h-.4v4.4zm4.2-12.1h-.2v6.4h.4v-6.4zm-.2 12.1v.2c0 .3 0 .7.1 1.3l.3 1.2c.2.5.5 1.1.9 1.5.4.5.9.8 1.6 1 1.8.6 2.7 1.4 3.1 2.2.2.4.3.7.4.9v.4h.4s0-.7-.5-1.5-1.5-1.8-3.4-2.4c-.6-.2-1.1-.5-1.4-.9-.5-.6-.8-1.4-1-2.1-.1-.3-.1-.7-.1-.9v-6.2h-.4v5.3zm-9.3 20.9h13.5v1.9H-270zm3.6 2.9h6.3v1h-6.3z"/>
    <path class="st0" d="M-260.7 1316.4h-18.8v.4h34v-.4h-14.8z"/>
    <path class="st1" d="M7.1 16.8l40.4-7.1v-.2l.4-.1-.8-4.4-44.7 7.9.8 4.4v27.9c0 .4.4.8.8.8h43.7c.5 0 .8-.4.8-.8V16.8H7.1zm40.6.9v3.4H4v-3.4h43.7zm-34.5-2.4l-.4-2.2 3 1.8-2.6.4zM46.5 6l.2 1.6-2.1-1.3 1.9-.3zm-2.5.4l2.8 1.7.3 1.2-2.1.4L40.5 7l3.5-.6zm-4.1.7l4.4 2.7-3.4.6-4.5-2.7 3.5-.6zm-4.1.7l4.5 2.7-3.5.7-4.5-2.7 3.5-.7zm-4.1.8l4.5 2.7-3.5.6-4.4-2.7 3.4-.6zm-4.1.7l4.5 2.7-3.5.6-4.4-2.7 3.4-.6zm-4 .7l4.4 2.7-3.5.6-4.4-2.7 3.5-.6zm-4.1.7l4.4 2.7-3.4.6-4.5-2.7 3.5-.6zm-4.1.7l4.4 2.7-3.4.7-3.7-2.3-.1-.6 2.8-.5zm-3.2.6l.6 3.4-8 1.4h-.9l-.5-3.2 8.8-1.6zm35.6 33.2H4V21.5h43.8v23.7z"/>
    <path class="st1" d="M44.1 33.2h-18v-7.9h-.4v7.9H7.6v.4h36.5zM7.6 41.3h36.5v.4H7.6zm0-4h36.5v.4H7.6z"/>
    <path class="st1" d="M7.8 25.3h14.4v1.9H7.8zm0 2.9h9.8v1.9H7.8z"/>
</svg>
