<?xml version="1.0" encoding="utf-8"?>
<!-- Generator: Adobe Illustrator 19.1.0, SVG Export Plug-In . SVG Version: 6.00 Build 0)  -->
<svg version="1.1" id="Layer_1" xmlns="http://www.w3.org/2000/svg" xmlns:xlink="http://www.w3.org/1999/xlink" x="0px" y="0px"
	 viewBox="0 0 51 51" style="enable-background:new 0 0 51 51;" xml:space="preserve">
<metadata><?xpacket begin="﻿" id="W5M0MpCehiHzreSzNTczkc9d"?>
<x:xmpmeta xmlns:x="adobe:ns:meta/" x:xmptk="Adobe XMP Core 5.6-c067 79.157747, 2015/03/30-23:40:42        ">
   <rdf:RDF xmlns:rdf="http://www.w3.org/1999/02/22-rdf-syntax-ns#">
      <rdf:Description rdf:about=""/>
   </rdf:RDF>
</x:xmpmeta>
                                                                                                    
                                                                                                    
                                                                                                    
                                                                                                    
                                                                                                    
                                                                                                    
                                                                                                    
                                                                                                    
                                                                                                    
                                                                                                    
                                                                                                    
                                                                                                    
                                                                                                    
                                                                                                    
                                                                                                    
                                                                                                    
                                                                                                    
                                                                                                    
                                                                                                    
                                                                                                    
                           
<?xpacket end="w"?></metadata>
<style type="text/css">
	.st0{fill:#3C3C3B;}
	.st1{fill:#C6B877;}
</style>
<g>
	<path class="st0" d="M-264.3,1310v1.6c0.4,0.5,1.1,0.8,1.8,0.8c0.7,0,1.4-0.3,1.8-0.8v-1.6l0,0h0.2h0.2v1c0.1-0.3,0.2-0.6,0.2-1
		c0-1.3-1.1-2.4-2.4-2.4c-1.3,0-2.4,1.1-2.4,2.4c0,0.3,0.1,0.7,0.2,1v-1H-264.3z M-263.6,1308.9c0.3-0.3,0.7-0.5,1.1-0.5
		c0.4,0,0.8,0.2,1.1,0.5c0.3,0.3,0.5,0.7,0.5,1.1c0,0.4-0.2,0.8-0.5,1.1c-0.3,0.3-0.7,0.5-1.1,0.5c-0.4,0-0.8-0.2-1.1-0.5
		c-0.3-0.3-0.5-0.7-0.5-1.1C-264.1,1309.5-263.9,1309.2-263.6,1308.9z"/>
	<circle class="st0" cx="-262.5" cy="1310" r="0.5"/>
	<path class="st0" d="M-260.7,1322.1v-1.6c-0.4-0.5-1.1-0.8-1.8-0.8c-0.7,0-1.4,0.3-1.8,0.8v1.6h-0.4v-1c-0.1,0.3-0.2,0.6-0.2,1
		c0,1.3,1.1,2.4,2.4,2.4c0.8,0,1.5-0.4,1.9-0.9c-0.1-0.6-0.1-1.1-0.1-1.3C-260.7,1322.2-260.7,1322.2-260.7,1322.1z M-261.4,1323.3
		c-0.3,0.3-0.7,0.5-1.1,0.5c-0.4,0-0.8-0.2-1.1-0.5c-0.3-0.3-0.5-0.7-0.5-1.1c0-0.4,0.2-0.8,0.5-1.1c0.3-0.3,0.7-0.5,1.1-0.5
		c0.4,0,0.8,0.2,1.1,0.5c0.3,0.3,0.5,0.7,0.5,1.1C-260.9,1322.6-261.1,1323-261.4,1323.3z"/>
	<path class="st0" d="M-260.3,1322.2L-260.3,1322.2L-260.3,1322.2c0,0.1,0,0.1,0,0.2c0,0.2,0,0.4,0,0.7c0.1-0.3,0.2-0.6,0.2-0.9
		c0-0.3-0.1-0.7-0.2-1V1322.2z"/>
	<circle class="st0" cx="-262.5" cy="1322.1" r="0.5"/>
	<path class="st0" d="M-279.9,1310.8L-279.9,1310.8l0-2.8c0-0.2,0.2-0.4,0.4-0.4c0.2,0,0.4,0.2,0.4,0.4v-2.8h33.2v2.8h0
		c0-0.2,0.2-0.4,0.4-0.4c0.2,0,0.4,0.2,0.4,0.4v-3.6h-34.8V1310.8z"/>
	<rect x="-264.3" y="1314.4" class="st0" width="3.6" height="0.8"/>
	<path class="st0" d="M-249.6,1314.4h-10.7v0.8h10.7c1.5,0,2.8-0.7,3.6-1.9v-2.6c0,1-0.4,1.9-1.1,2.6
		C-247.7,1314-248.6,1314.4-249.6,1314.4z"/>
	<path class="st0" d="M-275.4,1315.3h10.7v-0.8h-10.7c-1,0-1.9-0.4-2.6-1.1c-0.7-0.7-1.1-1.6-1.1-2.6v-2.8v5.4
		C-278.3,1314.5-277,1315.3-275.4,1315.3z"/>
	<path class="st0" d="M-245.5,1307.6c-0.2,0-0.4,0.2-0.4,0.4h0v2.8v2.6v3h0.4v0.4h-0.4v33.3h-33.2l0-33.3h-0.4v-0.4h0.4v-3v-5.4
		c0-0.2-0.2-0.4-0.4-0.4c-0.2,0-0.4,0.2-0.4,0.4v2.8l0,40.1h34.8v-40.1v-2.8C-245.1,1307.7-245.3,1307.6-245.5,1307.6z"/>
	<polygon class="st0" points="-264.3,1316.4 -264.3,1315.3 -264.3,1314.4 -264.3,1311.6 -264.3,1310 -264.7,1310 -264.7,1311 
		-264.7,1314.4 -264.7,1315.3 -264.7,1316.4 	"/>
	<polygon class="st0" points="-264.7,1322.1 -264.3,1322.1 -264.3,1320.5 -264.3,1316.8 -264.7,1316.8 -264.7,1321.2 	"/>
	<polygon class="st0" points="-260.5,1310 -260.7,1310 -260.7,1310 -260.7,1311.6 -260.7,1314.4 -260.7,1315.3 -260.7,1316.4 
		-260.3,1316.4 -260.3,1315.3 -260.3,1314.4 -260.3,1311 -260.3,1310 	"/>
	<path class="st0" d="M-260.7,1322.1c0,0,0,0.1,0,0.2c0,0.3,0,0.7,0.1,1.3c0.1,0.4,0.2,0.8,0.3,1.2c0.2,0.5,0.5,1.1,0.9,1.5
		c0.4,0.5,0.9,0.8,1.6,1c1.8,0.6,2.7,1.4,3.1,2.2c0.2,0.4,0.3,0.7,0.4,0.9c0,0.1,0,0.2,0,0.3l0,0.1l0,0h0.4c0,0,0-0.7-0.5-1.5
		c-0.5-0.8-1.5-1.8-3.4-2.4c-0.6-0.2-1.1-0.5-1.4-0.9c-0.5-0.6-0.8-1.4-1-2.1c-0.1-0.3-0.1-0.7-0.1-0.9c0-0.3,0-0.6,0-0.7
		c0-0.1,0-0.1,0-0.1l0,0l0,0v-1v-4.4h-0.4v3.8V1322.1z"/>
	<rect x="-270" y="1343" class="st0" width="13.5" height="1.9"/>
	<rect x="-266.4" y="1345.9" class="st0" width="6.3" height="1"/>
	<polygon class="st0" points="-260.7,1316.4 -264.3,1316.4 -264.7,1316.4 -279.1,1316.4 -279.5,1316.4 -279.5,1316.8 -279.1,1316.8 
		-264.7,1316.8 -264.3,1316.8 -260.7,1316.8 -260.3,1316.8 -245.9,1316.8 -245.5,1316.8 -245.5,1316.4 -245.9,1316.4 -260.3,1316.4 
			"/>
</g>
<g>
	<polygon class="st1" points="3.9,16.8 4,16.9 4.8,16.8 	"/>
	<path class="st1" d="M3.6,17.4l0-0.2l-0.4,0.1l0,0v27.9C3.2,45.6,3.6,46,4,46h43.7c0.5,0,0.8-0.4,0.8-0.8V16.8H7.1L3.6,17.4z
		 M48.2,21.5h-0.4v23.7H4h0V21.5H3.6v-0.4H4v-3.4h43.7v3.4h0.4V21.5z"/>
	<polygon class="st1" points="44.1,33.2 26.1,33.2 26.1,33.4 25.7,33.4 25.7,33.2 7.6,33.2 7.6,33.6 44.1,33.6 	"/>
	<rect x="7.6" y="41.3" class="st1" width="36.5" height="0.4"/>
	<rect x="7.6" y="37.3" class="st1" width="36.5" height="0.4"/>
	<polygon class="st1" points="26.1,33.4 26.1,33.2 26.1,25.3 25.7,25.3 25.7,33.2 25.7,33.4 	"/>
	<polygon class="st1" points="4,21.1 3.6,21.1 3.6,21.5 4,21.5 47.8,21.5 48.2,21.5 48.2,21.1 47.8,21.1 	"/>
	<polygon class="st1" points="13.2,15.3 12.8,13.1 12.4,12.9 12.7,12.5 12.7,12.5 12.6,11.9 12.2,12 12.8,15.4 	"/>
	<polygon class="st1" points="28.6,12.6 24.2,9.9 23.6,10 28,12.7 	"/>
	<polygon class="st1" points="32.7,11.9 28.3,9.2 27.6,9.3 32.1,12 	"/>
	<polygon class="st1" points="36.8,11.2 32.3,8.5 31.7,8.6 36.2,11.3 	"/>
	<polygon class="st1" points="24.5,13.3 20.1,10.6 19.5,10.7 23.9,13.4 	"/>
	<polygon class="st1" points="20.5,14 16,11.3 15.4,11.4 19.8,14.1 	"/>
	<polygon class="st1" points="12.7,12.5 12.4,12.9 12.8,13.1 15.8,14.9 16.4,14.8 12.7,12.5 	"/>
	<polygon class="st1" points="40.9,10.4 36.4,7.7 35.8,7.8 40.3,10.5 	"/>
	<polygon class="st1" points="45,9.7 40.5,7 39.9,7.1 44.3,9.8 	"/>
	<polygon class="st1" points="46.7,7.6 44.6,6.3 44,6.4 46.8,8.1 	"/>
	<polygon class="st1" points="3.6,17.2 3.6,17 4,16.9 3.9,16.8 3.4,13.6 12.2,12 12.6,11.9 15.4,11.4 16,11.3 19.5,10.7 20.1,10.6 
		23.6,10 24.2,9.9 27.6,9.3 28.3,9.2 31.7,8.6 32.3,8.5 35.8,7.8 36.4,7.7 39.9,7.1 40.5,7 44,6.4 44.6,6.3 46.5,6 46.7,7.6 
		46.8,8.1 47.1,9.3 47.5,9.3 47.5,9.5 47.9,9.4 47.9,9.4 47.1,5 2.4,12.9 3.2,17.3 3.2,17.3 	"/>
	<polygon class="st1" points="47.1,9.3 45,9.7 44.3,9.8 40.9,10.4 40.3,10.5 36.8,11.2 36.2,11.3 32.7,11.9 32.1,12 28.6,12.6 
		28,12.7 24.5,13.3 23.9,13.4 20.5,14 19.8,14.1 16.4,14.8 15.8,14.9 13.2,15.3 12.8,15.4 4.8,16.8 4,16.9 3.6,17 3.6,17.2 
		3.6,17.4 7.1,16.8 47.5,9.7 47.5,9.5 47.5,9.3 	"/>
	<rect x="7.8" y="25.3" class="st1" width="14.4" height="1.9"/>
	<rect x="7.8" y="28.2" class="st1" width="9.8" height="1.9"/>
</g>
</svg>
