<svg id="Layer_1" xmlns="http://www.w3.org/2000/svg" viewBox="-14 15 22 22">
    <style>
        .st0{fill:#2e343f}
    </style>
    <path class="st0" d="M-3 15c-6.1 0-11 4.9-11 11s4.9 11 11 11S8 32.1 8 26 3.1 15-3 15zm3.7 9.2v.2c0 2.4-1.8 5.1-5.1 5.1-1 0-1.9-.3-2.7-.8h.4c.8 0 1.6-.3 2.2-.8-.8 0-1.5-.5-1.7-1.3.1 0 .2.1.3.1.2 0 .3 0 .5-.1-.8-.1-1.4-.8-1.4-1.7.3.2.5.2.8.2-.5-.3-.8-.9-.8-1.5 0-.3.1-.6.3-.9.9 1.1 2.2 1.8 3.7 1.9-.1-.2-.1-.3-.1-.4 0-1 .8-1.8 1.8-1.8.5 0 1 .2 1.3.6.4-.1.8-.2 1.2-.4-.2.4-.4.8-.8 1 .4-.1.7-.2 1-.3-.3.3-.6.7-.9.9z"/>
</svg>
