<?xml version="1.0" encoding="utf-8"?>
<!-- Generator: Adobe Illustrator 19.1.0, SVG Export Plug-In . SVG Version: 6.00 Build 0)  -->
<svg version="1.1" id="Layer_1" xmlns="http://www.w3.org/2000/svg" xmlns:xlink="http://www.w3.org/1999/xlink" x="0px" y="0px"
	 viewBox="-14 15 22 22" style="enable-background:new -14 15 22 22;" xml:space="preserve">
<metadata><?xpacket begin="﻿" id="W5M0MpCehiHzreSzNTczkc9d"?>
<x:xmpmeta xmlns:x="adobe:ns:meta/" x:xmptk="Adobe XMP Core 5.6-c067 79.157747, 2015/03/30-23:40:42        ">
   <rdf:RDF xmlns:rdf="http://www.w3.org/1999/02/22-rdf-syntax-ns#">
      <rdf:Description rdf:about=""/>
   </rdf:RDF>
</x:xmpmeta>
                                                                                                    
                                                                                                    
                                                                                                    
                                                                                                    
                                                                                                    
                                                                                                    
                                                                                                    
                                                                                                    
                                                                                                    
                                                                                                    
                                                                                                    
                                                                                                    
                                                                                                    
                                                                                                    
                                                                                                    
                                                                                                    
                                                                                                    
                                                                                                    
                                                                                                    
                                                                                                    
                           
<?xpacket end="w"?></metadata>
<style type="text/css">
	.st0{fill:#2E343F;}
</style>
<path class="st0" d="M-3,15c-6.1,0-11,4.9-11,11s4.9,11,11,11S8,32.1,8,26S3.1,15-3,15z M1.1,23.7C1,24.2,0.4,26-0.7,27.5
	c-0.5,0.6-1,1.3-1.8,1.7c-0.3,0.2-0.8,0.4-1.2,0.2c-0.7-0.3-0.9-1.5-1.2-2.4c-0.1-0.5-0.2-0.9-0.4-1.4c-0.1-0.3-0.2-0.6-0.3-0.9
	c-0.3-0.5-0.7,0-1.1-0.1c-0.2,0-0.2-0.2-0.3-0.3l0,0c0.6-0.5,1.2-1.1,1.9-1.5c0.2-0.2,0.6-0.3,0.9-0.2c0.3,0.1,0.5,0.5,0.6,0.8
	c0.1,0.4,0.2,0.8,0.3,1.2c0.1,0.6,0.1,1.6,0.5,2.1c0.5,0.6,0.9-0.2,1.2-0.6c0.2-0.4,0.4-0.7,0.4-1c0.1-0.8-0.3-0.9-1-0.8
	c0.4-1.3,1.6-1.8,1.9-1.8c0.4-0.1,1-0.1,1.4,0.3C1.1,23,1.1,23.3,1.1,23.7z"/>
</svg>
