<svg id="Layer_1" xmlns="http://www.w3.org/2000/svg" viewBox="-14 15 22 22">
    <style>
        .st0{fill:#2e343f}
    </style>
    <path class="st0" d="M-3 15c-6.1 0-11 4.9-11 11s4.9 11 11 11S8 32.1 8 26 3.1 15-3 15zm4.1 8.7C1 24.2.4 26-.7 27.5c-.5.6-1 1.3-1.8 1.7-.3.2-.8.4-1.2.2-.7-.3-.9-1.5-1.2-2.4-.1-.5-.2-.9-.4-1.4l-.3-.9c-.3-.5-.7 0-1.1-.1-.2 0-.2-.2-.3-.3.6-.5 1.2-1.1 1.9-1.5.2-.2.6-.3.9-.2.3.1.5.5.6.8l.3 1.2c.1.6.1 1.6.5 2.1.5.6.9-.2 1.2-.6.2-.4.4-.7.4-1 .1-.8-.3-.9-1-.8.4-1.3 1.6-1.8 1.9-1.8.4-.1 1-.1 1.4.3v.9z"/>
</svg>
