<?xml version="1.0" encoding="utf-8"?>
<!-- Generator: Adobe Illustrator 19.1.0, SVG Export Plug-In . SVG Version: 6.00 Build 0)  -->
<svg version="1.1" id="Layer_1" xmlns="http://www.w3.org/2000/svg" xmlns:xlink="http://www.w3.org/1999/xlink" x="0px" y="0px"
	 viewBox="0 0 400 400" style="enable-background:new 0 0 400 400;" xml:space="preserve">
<style type="text/css">
	.st0{fill:#2E343F;}
	.st1{fill-rule:evenodd;clip-rule:evenodd;fill:#2E343F;}
</style>
<g>
	<g>
		<path class="st0" d="M139.1,187.2l-0.1-0.4c14.8-8.5,30.9-13.6,48-14.9c2.9-0.2,5.7-0.3,8.6-0.3c14.5,0,29.1,2.7,43.6,7.8l0.1,0.4
			c-6.3-1.7-16.8-2.7-29.5-2.7c-6.7,0-14.1,0.3-21.7,0.8C166.3,179.6,147.7,183.3,139.1,187.2"/>
		<g>
			<path class="st0" d="M262,179.9c-7.5-4-21.6-8.6-37.7-11.8c-12-2.4-23-3.6-30.9-3.6c-2.8,0-5.1,0.1-7.1,0.4v-0.5
				c7.2-2,14.5-3.1,22-3.1c5.3,0,10.6,0.5,15.9,1.6c12.9,2.6,25.5,8.2,37.6,16.4V179.9"/>
			<path class="st0" d="M137.1,198.4l-0.1-0.6c19.4-9.3,39.9-14.2,61.5-14.3c0.2,0,0.4,0,0.6,0c21.5,0,42.8,4.9,63.8,14l0.1,0.5
				c-11.5-4.1-35.1-6.9-62.2-6.9c-0.6,0-1.1,0-1.7,0C171.8,191.2,148.3,194.2,137.1,198.4"/>
		</g>
		<path class="st0" d="M149.4,215.4c-4,0-7.3-3.3-7.3-7.3c0-4,3.3-7.3,7.3-7.3c1.4,0,2.7,0.3,3.8,1v2.7c-0.9-0.9-2.2-1.6-3.6-1.6
			c-2.9,0-5.3,2.4-5.3,5.3c0,2.9,2.4,5.3,5.3,5.3c1.4,0,2.7-0.8,3.6-1.7l0,2.6C152.1,215,150.8,215.4,149.4,215.4"/>
		<path class="st0" d="M168.5,205.2c-0.1,0.3-0.7,1.6-0.7,1.6s-1.2,2.7-1.3,2.9h3.9C170.3,209.5,168.6,205.5,168.5,205.2
			 M175.3,215.2h-2.4l-1.5-3.4h-5.8l-1.5,3.4l-2.4,0l6.8-14.9L175.3,215.2"/>
		<path class="st0" d="M180.3,226.3c0,0-0.1,0-0.1,0v4.4c0,0,0.1,0,0.1,0c0.6,0,2.2-0.1,3-0.8c0.3-0.3,0.5-0.8,0.5-1.3l0-0.2
			c0-0.6-0.2-1-0.5-1.3C182.4,226.4,180.9,226.3,180.3,226.3 M187.1,238.3h-2.6l-4-5.7h-0.3v5.7H178v-14h2.9c0,0,0.1,0,0.2,0
			c0.6,0,2.4,0.1,3.4,1c0.7,0.5,1.3,1.5,1.4,3c-0.1,3.4-3,4-3,4L187.1,238.3"/>
		<polygon class="st0" points="256.1,216.1 245.9,205.5 245.9,215.2 243.7,215.2 243.7,200.2 253.8,210.9 253.8,201.3 256.1,201.3 
					"/>
		<polygon class="st0" points="166.9,238.3 164.8,238.3 164.8,226.3 161.6,226.3 161.6,224.3 170.2,224.3 170.2,226.3 166.9,226.3 
					"/>
		<polygon class="st0" points="234.4,238.3 232.2,238.3 232.2,226.3 229,226.3 229,224.3 237.6,224.3 237.6,226.3 234.4,226.3 		"/>
		<g>
			<path class="st0" d="M199.6,238.6c-4.4-0.1-5.1-3.9-5.1-5v-9.3h2.2v8.7c0,0-0.1,3.5,2.9,3.5c0,0,0.1,0,0.1,0c0,0,0.1,0,0.1,0
				c3,0,2.9-3.5,2.9-3.5v-8.7h2.2v9.3C204.7,234.7,204,238.5,199.6,238.6"/>
			<path class="st0" d="M217.5,238.6C217.5,238.6,217.4,238.6,217.5,238.6c-0.1,0-0.2,0-0.2,0c-1.1,0-4.1-0.7-4.4-4.2l2.2-0.5
				c0,0-0.2,2.5,2.3,2.6c1.6,0,2.3-1.4,2.3-2.3c0-0.9-0.1-1.5-2-2.3c-1.9-0.8-4.2-1.5-4.2-4.3c0,0,0-0.1,0-0.1
				c0.3-2.9,3.2-3.5,4.1-3.5c0,0,0.1,0,0.1,0c0.4,0,2.6,0,3.9,2.4l-1.8,1.1c0,0-0.6-1.4-2.1-1.4c0,0,0,0-0.1,0c-1.6,0-2,1.4-2,1.4
				s0,0.1,0,0.2c0,0.4,0.1,1.2,1.3,1.6c1.6,0.7,4.8,1.3,4.9,4.9c0,0.1,0,0.1,0,0.2C221.7,237.7,218.5,238.6,217.5,238.6"/>
		</g>
		<path class="st0" d="M186.6,203.2c0,0-0.1,0-0.1,0v4.4c0,0,0.1,0,0.1,0c0.7,0,2.2-0.1,3-0.8c0.3-0.3,0.5-0.8,0.5-1.3v-0.2
			c0-0.6-0.2-1-0.5-1.3C188.8,203.3,187.3,203.2,186.6,203.2 M193.4,215.2h-2.6l-4-5.7h-0.3v5.7h-2.2v-14h2.9c0,0,0.1,0,0.2,0
			c0.6,0,2.4,0.1,3.4,1c0.7,0.5,1.3,1.5,1.4,3c-0.1,3.4-3.1,4-3.1,4L193.4,215.2"/>
		<path class="st0" d="M204.5,203.1v4.1h0.7c0.9,0,1.4-0.3,1.7-0.6c0.4-0.3,0.5-0.9,0.5-1.5c-0.1-1.9-1.2-2-2.3-2H204.5
			 M204.5,208.9v4.3h1.2c0,0,0,0,0,0c0.3,0,1.6,0,2.4-0.8c0.4-0.3,0.5-0.8,0.5-1.4c0-0.6-0.2-1-0.5-1.4c-0.8-0.8-2.3-0.8-2.4-0.8
			H204.5L204.5,208.9 M206,215.2h-3.7v-14h1.9c0.9,0.1,2.6-0.1,4,1.1c0.7,0.5,1.1,1.3,1.1,2.6c0,0,0.1,1.9-1.1,2.7
			c0.5,0.2,2.4,1.1,2.4,3.6C210.7,214,208.1,215.2,206,215.2"/>
		<path class="st0" d="M226.9,203c-2.8,0-5.1,2.3-5.1,5.2c0,2.9,2.3,5.2,5.1,5.2c2.8,0,5.1-2.3,5.1-5.2
			C232,205.3,229.8,203,226.9,203 M226.9,215.5c-4,0-7.3-3.3-7.3-7.3c0-4,3.3-7.3,7.3-7.3c4,0,7.3,3.3,7.3,7.3
			C234.2,212.2,231,215.5,226.9,215.5"/>
	</g>
</g>
</svg>
