<?xml version="1.0" encoding="utf-8"?>
<!-- Generator: Adobe Illustrator 19.1.0, SVG Export Plug-In . SVG Version: 6.00 Build 0)  -->
<svg version="1.1" id="Layer_1" xmlns="http://www.w3.org/2000/svg" xmlns:xlink="http://www.w3.org/1999/xlink" x="0px" y="0px"
	 viewBox="0 0 400 400" style="enable-background:new 0 0 400 400;" xml:space="preserve">
<style type="text/css">
	.st0{fill:#2E343F;}
	.st1{fill-rule:evenodd;clip-rule:evenodd;fill:#2E343F;}
</style>
<g>
	<path class="st1" d="M167,219.5h1.7v0.4h-7.5v-0.4h1.9l0-39h-1.7V180c0,0,5.7,0,8.2,0c2.2,0,3.7,1.1,4.8,2.9c1,1.6,1.5,3.4,1.7,5.3
		c0.2,2.6,0,5.2-1,7.7c-0.4,1-0.9,1.9-1.6,2.7c-0.7,0.8-1.6,1.2-2.7,1.3c-0.1,0-0.3,0-0.4,0.1c0,0.1,0.2,0.2,0.3,0.2
		c2.3,0.5,3.8,2.1,4.1,4.4c0.2,1.8,0.3,3.6,0.4,5.4c0.1,2,0.2,3.9,0.3,5.9c0,0.5,0.1,0.9,0.2,1.4c0.1,0.5,0.3,0.9,0.9,1
		c0.5,0.1,0.8-0.2,1.1-0.6c0.1-0.1,0.1-0.2,0.2-0.3c0,0,0.1-0.1,0.1-0.1c0,0.1,0,0.1,0,0.2c0,0,0,0.1,0,0.1c-0.3,0.7-0.7,1.4-1.3,2
		c-1,1-2.7,1-3.7-0.3c-0.7-0.9-1.1-2-1.2-3.1c-0.2-2.6-0.3-5.1-0.3-7.7c0-1.7-0.2-3.4-0.7-5.1c-0.2-0.7-0.5-1.3-0.8-2
		c-0.4-0.7-1-1.1-1.9-1.1c-0.2,0-0.4,0-0.6,0c-0.7,0-0.7,0-0.7,0.7C167,204,167,219.5,167,219.5z M167,198.9c0,0.2,0,0.4,0,0.6
		c0,0.3,0.1,0.4,0.4,0.4c1.2,0,2.1-0.5,2.9-1.4c0.7-0.8,1-1.7,1.3-2.7c0.4-1.6,0.6-3.2,0.7-4.8c0.2-2.7-0.2-5.2-1.1-7.6
		c-0.3-0.9-0.8-1.7-1.5-2.3c-0.4-0.3-0.8-0.5-1.3-0.5c-0.3,0-0.7,0-1,0c-0.3,0-0.4,0.1-0.4,0.4c0,0.2,0,0.4,0,0.6
		C167,184.3,167,196,167,198.9z"/>
	<path class="st1" d="M145.1,207.8c0-2.3,0-7.5,0-7.5h-1.8v-0.4h7.8v0.4h-2c0,0,0,13,0,19c0,0.2,0,0.4,0,0.6c0,0,0,0.1-0.1,0.1
		c-0.1,0-0.1-0.1-0.1-0.1c-0.1-0.3-0.1-0.6-0.2-0.8c-0.1-0.3-0.2-0.7-0.4-0.9c-0.3-0.5-0.8-0.6-1.3-0.4c-0.4,0.1-0.7,0.4-1,0.6
		c-0.5,0.4-1,0.8-1.4,1.3c-1.2,1.2-2.6,1.2-4.1,0.6c-1-0.4-1.8-1.2-2.5-2c-1.2-1.5-1.9-3.2-2.5-5.1c-0.8-2.4-1.2-4.9-1.5-7.4
		c-0.4-3.2-0.5-6.3-0.1-9.5c0.4-4,1.1-7.8,2.8-11.5c0.5-1.2,1.2-2.4,2.1-3.4c0.8-0.9,1.8-1.6,3-1.8c1.3-0.2,2.3,0.1,3.1,1.2
		c0.2,0.3,0.4,0.5,0.6,0.7c0.7,0.5,1.3,0.3,1.7-0.4c0.2-0.3,0.2-0.6,0.3-1c0-0.1,0.1-0.2,0.1-0.2c0.1,0,0.1,0.1,0.1,0.2
		c0.1,1.1,0.1,2.2,0.2,3.3c0.1,3,0.2,5.9,0.4,8.9c0,0.3,0.1,0.7,0.1,1c0,0.1,0,0.2-0.1,0.2c-0.1,0-0.1-0.1-0.1-0.2
		c-0.2-1-0.3-2-0.5-3c-0.4-2.4-0.9-4.7-1.8-6.9c-0.4-0.9-0.8-1.9-1.5-2.6c-0.3-0.3-0.8-0.7-1.2-0.9c-0.7-0.3-1.3-0.2-1.8,0.4
		c-0.4,0.5-0.7,1.1-0.9,1.6c-0.7,1.6-1,3.3-1.3,4.9c-0.3,2.5-0.7,4.9-0.9,7.4c-0.2,3.2-0.4,6.3-0.1,9.5c0.1,1.3,0.1,2.5,0.2,3.8
		c0.3,3,0.6,5.9,1.4,8.8c0.2,0.8,0.6,1.6,1,2.3c0.4,0.7,0.9,1.2,1.7,1.2c0.9,0,1.3-0.7,1.7-1.4c0.7-1.3,0.9-2.7,0.9-4.1
		C145.1,212.3,145.1,207.8,145.1,207.8z"/>
	<path class="st1" d="M210.1,219.9c0,0,8.2-33.5,8.8-35.8c0.2-1,0.5-2,0.7-3.1c0.1-0.5-0.1-0.6-0.5-0.6h-3.5c-1.3,0-2.2,0.5-2.9,1.5
		c-0.9,1.2-1.3,2.5-1.5,3.9c-0.3,1.6-0.3,4.9-0.3,4.9h-0.3V180h13.7c0,0-9.3,37.2-9.7,38.7c0,0.1-0.1,0.3-0.1,0.4
		c-0.1,0.3,0.1,0.4,0.4,0.4c0.6,0,1.2,0,1.7,0c0.7,0,1.3,0,2,0c1.7,0,3-0.7,4-2.2c0.8-1.3,1.2-2.7,1.3-4.2c0.1-1.3,0.1-4.8,0.1-4.8
		h0.4v11.6H210.1z"/>
	<path class="st1" d="M195.6,219.9v-0.5h1.6l-2-11.2h-5.8l-2.1,11.2h1.9v0.5h-4.2v-0.5h1.6l7.5-40.1l6.9,40.1h1.5v0.5H195.6z
		 M195.1,207.8l-2.7-15.7l-2.9,15.7H195.1z"/>
	<path class="st1" d="M259.4,219.9v-0.5h1.6l-2-11.2h-5.8l-2.1,11.2h1.9v0.5h-4.2v-0.5h1.6l7.5-40.1l6.9,40.1h1.5v0.5H259.4z
		 M258.9,207.8l-2.7-15.7l-2.9,15.7H258.9z"/>
	<polygon class="st1" points="241.5,180 241.5,180.5 239.8,180.5 239.8,219.5 241.5,219.5 241.5,219.9 234.2,219.9 234.2,219.5 
		235.9,219.5 235.9,180.5 234.2,180.5 234.2,180 	"/>
</g>
</svg>
