<?xml version="1.0" encoding="utf-8"?>
<!-- Generator: Adobe Illustrator 19.1.0, SVG Export Plug-In . SVG Version: 6.00 Build 0)  -->
<svg version="1.1" id="Layer_1" xmlns="http://www.w3.org/2000/svg" xmlns:xlink="http://www.w3.org/1999/xlink" x="0px" y="0px"
	 viewBox="0 0 400 400" style="enable-background:new 0 0 400 400;" xml:space="preserve">
<style type="text/css">
	.st0{fill:#2E343F;}
	.st1{fill-rule:evenodd;clip-rule:evenodd;fill:#2E343F;}
</style>
<g>
	<g>
		<path class="st0" d="M167.2,218l-5.1,4.6l-3.7-3.3l-1.4,1.2l-0.2-0.2l2.3-2v-20.3c0-1.5-0.6-2.5-1.5-2.8l6.3-4.3h0v26.3l1.9,1.7
			l1.1-1L167.2,218"/>
		<path class="st0" d="M139.5,201.7c0,3.2-1.9,5-4.1,5c-1.4,0-2.3-0.7-3-1.5l-0.3,0.3v12l2.1,1.9l1.5-1.3l0.2,0.2l-5,4.4l-4.2-3.7
			l-1.3,1.2l-0.2-0.2l2-1.8v-10.9l-1.9-2l-1.3,1.1l-0.2-0.3l5-4.5l3.2,3.5l3.3-3.5h0.1c0.5,0.6,1.2,1.1,2,1.1c0.7,0,1.6-0.4,2-1
			L139.5,201.7"/>
		<path class="st0" d="M95.1,190.7c-2.5,3.2-5.1,4.7-7.6,4.7c-1.4,0-2-0.5-3.6-0.5c-2,0-3,0.6-4,1.4l-0.1,0c1.1-3.4,4.1-5.4,7-5.4
			c2.2,0,3.6,0.8,5.3,0.8c1,0,2.3-0.7,2.9-1.1L95.1,190.7"/>
		<path class="st0" d="M108.3,218l-5.2,4.6l-4.1-3.5l-1.4,1.3l-0.2-0.2l1.6-1.4v-11.3h-4.5v10.8c0.3,0.2,0.6,0.3,0.9,0.5l-4.1,3.7
			c-0.9-0.7-2.2-1.3-4.5-1.3c-3.2,0-5.4,1.3-6.9,2.5l-0.1-0.1c1.7-2.8,5.5-6.1,11.2-6.1c1.2,0,2.3,0.3,3.1,0.6v-24.4
			c-1.8,1.1-2.3,1.8-2.3,3.5v13.3c0,4.5-3.4,6.7-7.4,8l-0.1-0.1c1.4-1.1,2.2-2.6,2.2-4.9v-6h-1.7c-1.4,0-2.3,0.6-2.6,1.9h-0.1
			c-0.2-0.5-0.4-1.2-0.4-1.9c0-2.2,1.6-4,3.9-4h1v-1.4c0-4.1,3.7-6.7,7.9-9.1h0.1v10.5h4.5v-8.6l-1-0.9l-1.1,1l-0.2-0.2l5-4.5l5.2,5
			l1.3-1.2l0.2,0.2l-4,3.5v18.8l2.6,2.2l1.2-1.1L108.3,218"/>
		<path class="st0" d="M179.2,219.6v-11.8l-4.1-4l-0.2,0.2v12.6l4,3.3L179.2,219.6 M185.6,204.7l-1.5,1.4v11.3
			c-2.4,1.2-6.6,3.8-8.6,5.2l-5.4-4.2l-1.3,1.1l-0.2-0.2l1.4-1.2v-11.6l4.9-3l-4-4.4c-0.1-0.1-0.3-0.2-0.5-0.2
			c-0.2,0-0.4,0.1-0.5,0.2h-0.1v-8.7h0c3.5,3.9,10.4,11.5,14.1,15.3l1.4-1.3L185.6,204.7z"/>
		<path class="st0" d="M147.8,218.6v-8.7c-2.8,0.1-4.9,1.3-4.9,4.3C143,216.8,145.6,219.1,147.8,218.6 M147.8,209.5v-2.6l-2.5-2.4
			c-0.6,1.2-2.3,2.3-4,2.8v0.1c1.7,0.5,3.2,1.5,4,2.6C146.3,209.6,146.9,209.5,147.8,209.5z M156.7,218.3l-4.8,4.3l-4.1-3.5
			l-3.6,3.5c-3.6-0.3-5.5-3-5.5-5.4c0-3.9,3.7-6.1,6.1-7.1V210c-1.4-1.5-2.7-2.1-5.3-2.7v0c1.1-1.3,3-3.8,4-5.3
			c0.7,0.5,1.7,0.9,2.4,0.9c1.2,0,2.4-0.9,3.1-1.5l3.6,3.3l1.2-1.1l0.2,0.2l-1.3,1.1v11.9l2.6,2.4l1.3-1.1L156.7,218.3z"/>
		<path class="st0" d="M119.6,210.9l-4-6.6l-0.1,0v9.6L119.6,210.9 M123.7,208.2l-8.2,6.1v1.4l4.1,3.7l3.8-3.1l0.2,0.2l-7.6,6
			l-5.4-4.4l-1.4,1.2l-0.2-0.2l1.5-1.4v-11.3c2.7-1.4,6.5-3.6,8.8-5.1L123.7,208.2z"/>
		<polyline class="st0" points="303.7,218.5 298.6,223 294.7,219.4 295.7,218.4 295.7,207.9 292.6,205.2 291.5,206.1 291.5,218.1 
			293.2,219.6 289.6,223 285.8,219.6 284.8,220.5 284.6,220.3 286.6,218.5 286.6,207.2 284.6,205.4 283.7,206.2 283.4,206 
			288.1,201.9 291.8,205.4 296.1,201.9 300.4,205.7 301.7,204.5 301.9,204.7 300.6,205.9 300.6,217.6 302.4,219.2 303.6,218.2 
			303.7,218.5 		"/>
		<polyline class="st0" points="283.2,218.7 278.5,223 274.8,219.7 269.7,223 265.8,219.6 264.6,220.7 264.3,220.4 265.9,219.1 
			265.9,206.8 264.1,205.2 263.1,206.1 263,205.9 267.4,201.9 270.8,204.9 270.8,217.7 273.5,220.2 274.9,219.2 274.9,206.6 
			273.3,205.1 276.9,201.9 280.4,205 281.4,204.2 281.6,204.4 279.8,206 279.8,217.7 281.9,219.5 283,218.4 283.2,218.7 		"/>
		<polyline class="st0" points="239.7,197 236.3,200.2 232.8,197.1 236.2,193.8 239.7,197 		"/>
		<polyline class="st0" points="244,218.7 239.3,223 235.2,219.4 234.1,220.4 233.9,220.2 235.4,218.9 235.4,207.4 233,205.4 
			231.9,206.4 231.7,206.1 236.5,201.9 240.4,205.5 241.6,204.5 241.8,204.7 240.3,206 240.3,217.5 242.7,219.6 243.8,218.5 
			244,218.7 		"/>
		<path class="st0" d="M232.1,202.1c0,3.2-1.9,5-4.1,5c-1.4,0-1.9-0.7-2.6-1.5l-0.3,0.3v12l2.1,1.9l1.5-1.3l0.2,0.2l-5,4.4l-4.2-3.7
			l-1.3,1.2l-0.2-0.2l2-1.8v-10.9l-1.9-2l-1.3,1.1l-0.2-0.3l5-4.5l3.2,3.5l2.9-3.5h0.1c0.5,0.6,1.2,1.1,2,1.1c0.7,0,1.6-0.4,2-1
			L232.1,202.1"/>
		<path class="st0" d="M315.3,211.3l-4-6.6l-0.1,0v9.6L315.3,211.3 M319.4,208.6l-8.2,6.1v1.4l4.1,3.7l3.8-3.1l0.2,0.2l-7.6,6
			l-5.4-4.4l-1.4,1.2l-0.2-0.2l1.5-1.4v-11.3c2.7-1.4,6.5-3.6,8.8-5.1L319.4,208.6z"/>
		<path class="st0" d="M320,221.8c0-0.7-0.5-1.2-1.2-1.2c-0.7,0-1.2,0.5-1.2,1.2c0,0.7,0.5,1.2,1.2,1.2
			C319.5,223,320,222.5,320,221.8 M320.2,221.8c0,0.8-0.6,1.4-1.4,1.4c-0.8,0-1.4-0.6-1.4-1.4c0-0.8,0.6-1.4,1.4-1.4
			C319.6,220.4,320.2,221,320.2,221.8z"/>
		<path class="st0" d="M255.3,219.8v-11.6l-3.8-3.5l-0.5,0.5V216L255.3,219.8L255.3,219.8 M261.5,205.5l-1.3,1.1v10.8
			c-2.4,1.3-6.6,3.9-8.5,5.5l-5.5-5l-1,1l-0.1-0.2l1-1V198c0-1-0.4-1.8-1.2-2.1v-0.1l6-4.4l0,0v13.3l3.7-2.9l5.5,4.5l1.2-1.1
			L261.5,205.5z"/>
		<path class="st0" d="M202.8,214.6v-11.9l-3.8,1.9c-0.3,1.1-0.5,2.3-0.5,3.9c0,3.1,0.9,5.5,2.4,7.2L202.8,214.6 M217.5,194.1
			c0,3.9-3.3,5.1-5.1,5.2v5.5l2.5,2.3l-2.5,2.3v8.3c2-1.1,3.6-2.9,4.7-5.1l0.2,0c-0.1,6.8-5.1,10.8-11.3,10.8
			c-5.4,0-11.7-4.6-11.7-12.3c0-6.4,3.9-10.3,8.9-12.4l0.1,0.2c-2,1.8-3.3,3.2-4,5.1l8.8-4.2v12.4l-6.8,3.7c1.8,1.9,4.2,2.8,6.8,2.8
			c1.4,0,2.7-0.3,3.9-0.9v-8.5l-2.4-2.3l2.4-2.3v-5.5c-3.2,0.1-9.5-2.8-12.5-2.8c-1.6,0-2.5,0.8-2.5,2.1c0,0.7,0.3,1.2,0.6,1.5
			l-0.1,0.2c-1.2-0.3-2.3-1.5-2.3-3.8c0-3.4,2.6-5.5,6-5.5c2.6,0,8.4,2.7,11.2,2.7c1.6,0,2.2-0.6,2.2-1.6c0-1.3-0.6-1.9-2.1-1.8
			v-0.4C215.3,189.6,217.5,191.3,217.5,194.1z"/>
		<path class="st0" d="M319.7,222.3h-0.2v-0.6c-0.1,0.2-0.2,0.6-0.2,0.6h-0.2l-0.2-0.6v0.6h-0.2v-0.9h0.2l0.2,0.7
			c0-0.1,0.2-0.7,0.2-0.7h0.2V222.3"/>
		<polyline class="st0" points="318.7,221.5 318.4,221.5 318.4,222.3 318.2,222.3 318.2,221.5 317.9,221.5 317.9,221.4 318.7,221.4 
			318.7,221.5 		"/>
	</g>
	<g>
		<path class="st0" d="M155.2,185.9c-0.4,0-1.6,0-1.9,0v-0.2l0.4-0.1c0.7-0.1,0.8-0.3,0.8-2v-4.8c0-1.7-0.1-1.9-0.8-2l-0.4-0.1v-0.2
			c0.2,0,1.4,0,1.9,0c0.4,0,1.6,0,1.9,0v0.2l-0.4,0.1c-0.7,0.1-0.8,0.3-0.8,2v4.8c0,1.7,0.1,1.9,0.8,2l0.4,0.1v0.2
			C156.8,185.9,155.6,185.9,155.2,185.9"/>
		<path class="st0" d="M157.4,176.8l-0.2,0v-0.2c0.2,0,0.7,0,1.1,0c0.3,0,0.9,0,1.2,0l4.6,6.8l0-4.5c0-1.6-0.2-1.9-1-2.1l-0.2,0
			v-0.2c0.2,0,1,0,1.4,0c0.4,0,1.1,0,1.3,0v0.2l-0.1,0c-0.7,0.2-0.9,0.5-0.9,2.1l0,7.1l-0.2,0.1l-5.3-7.8c0,0,0,5.4,0,5.4
			c0,1.6,0.2,1.9,1,2.1l0.2,0v0.2c-0.2,0-1,0-1.4,0c-0.4,0-1.1,0-1.3,0v-0.2l0.1,0c0.7-0.2,0.9-0.5,0.9-2.1l0.1-6
			C158.3,177.2,157.9,176.9,157.4,176.8"/>
		<path class="st0" d="M173,178.9h-0.2l-0.1-0.6c-0.2-0.9-0.5-1.2-1.6-1.2l-0.9,0v6.7c0,1.7,0.1,1.8,0.8,2l0.4,0.1v0.2
			c-0.2,0-1.5,0-1.9,0c-0.4,0-1.7,0-1.9,0v-0.2l0.4-0.1c0.7-0.2,0.8-0.3,0.8-2V177l-0.8,0c-1.1,0-1.5,0.3-1.8,1.2l-0.3,0.6h-0.2
			l0.2-2.6h0.2c0.3,0.3,0.5,0.3,3.4,0.3c3,0,3.2-0.1,3.6-0.3h0.2L173,178.9"/>
		<path class="st0" d="M179.7,185.9h-1.2c-0.7,0-2.3,0-2.7,0c-0.4,0-1.8,0-2.1,0v-0.2l0.3-0.1c0.6-0.1,0.7-0.4,0.7-2v-4.8
			c0-1.6-0.1-1.9-0.7-2l-0.3-0.1v-0.2c0.2,0,1.7,0,2.1,0c0.4,0,2.4,0,2.7,0h0.9l0.3,2h-0.2l-0.3-0.4c-0.6-0.9-1-1.2-1.9-1.2h-0.2
			c-0.4,0-0.8,0.1-1,0.1v3.8l0.8,0c1.2,0,1.5-0.3,1.5-1.1l0-0.3h0.2c0,0.3,0,1.1,0,1.7c0,0.5,0,1.4,0,1.7h-0.2l0-0.3
			c-0.1-0.8-0.3-1.1-1.5-1.2l-0.8,0v2.6c0,1.5,0.2,1.7,1.1,1.7h0.3c0.9,0,1.4-0.2,1.9-1.2l0.3-0.5h0.2L179.7,185.9"/>
		<path class="st0" d="M183.7,176.9c-0.4,0-0.7,0-0.8,0.1v4.3c0.1,0,0.3,0,0.6,0c1,0,1.7-0.6,1.7-2.3
			C185.2,177.6,184.7,176.9,183.7,176.9 M187,186c-1,0-1.5-0.4-2-1.3l-1.6-2.9c-0.2,0-0.4,0-0.6,0v2c0,1.6,0.1,1.9,0.8,2l0.4,0.1
			v0.2c-0.2,0-1.5,0-1.9,0s-1.5,0-1.7,0v-0.2l0.3-0.1c0.6-0.1,0.7-0.4,0.7-2v-4.8c0-1.6-0.1-1.9-0.7-2l-0.3-0.1v-0.2
			c0.2,0,1.4,0,1.8,0c0.4,0,1.2,0,1.7,0c1.6,0,2.8,0.8,2.8,2.4c0,1.2-0.8,2-1.8,2.4l1.7,3c0.6,1.1,0.8,1.3,1.5,1.3l0,0.2
			C187.7,186,187.4,186,187,186z"/>
		<path class="st0" d="M188,176.8l-0.2,0v-0.2c0.2,0,0.7,0,1.1,0c0.3,0,0.9,0,1.2,0l4.6,6.8l0-4.5c0-1.6-0.2-1.9-1-2.1l-0.2,0v-0.2
			c0.2,0,1,0,1.4,0s1.1,0,1.3,0v0.2l-0.1,0c-0.7,0.2-0.9,0.5-0.9,2.1l0,7.1l-0.2,0.1l-5.3-7.8c0,0,0,5.4,0,5.4c0,1.6,0.2,1.9,1,2.1
			l0.2,0v0.2c-0.2,0-1,0-1.4,0c-0.4,0-1.1,0-1.3,0v-0.2l0.1,0c0.7-0.2,0.9-0.5,0.9-2.1l0.1-6C188.8,177.2,188.4,176.9,188,176.8"/>
		<path class="st0" d="M199.5,177.9l-1.2,4.1c0,0,2.5,0,2.5,0L199.5,177.9 M197.7,183.7c-0.1,0.4-0.2,0.9-0.2,1.2
			c0,0.4,0.2,0.7,0.6,0.8l0.3,0.1v0.2c-0.2,0-0.9,0-1.3,0c-0.4,0-1.1,0-1.4,0v-0.2l0.2,0c0.5-0.1,0.8-0.6,1.2-1.6l2.3-7.1l0.8-0.7
			h0.2l2.5,8c0.2,0.8,0.5,1.2,0.9,1.3l0.3,0.1v0.2c-0.2,0-1.2,0-1.7,0c-0.4,0-1.7,0-1.9,0v-0.2l0.4-0.1c0.5-0.1,0.6-0.3,0.6-0.7
			c0-0.2,0-0.5-0.1-0.8l-0.5-1.8h-2.7L197.7,183.7z"/>
		<path class="st0" d="M210.4,178.9h-0.2l-0.1-0.6c-0.2-0.9-0.5-1.2-1.6-1.2l-0.9,0v6.7c0,1.7,0.1,1.8,0.8,2l0.4,0.1v0.2
			c-0.2,0-1.5,0-1.9,0c-0.4,0-1.7,0-1.9,0v-0.2l0.4-0.1c0.7-0.2,0.8-0.3,0.8-2V177l-0.8,0c-1.1,0-1.5,0.3-1.8,1.2l-0.3,0.6h-0.2
			l0.2-2.6h0.2c0.3,0.3,0.5,0.3,3.4,0.3c3,0,3.2-0.1,3.6-0.3h0.2L210.4,178.9"/>
		<path class="st0" d="M212.9,185.9c-0.4,0-1.6,0-1.9,0v-0.2l0.4-0.1c0.7-0.1,0.8-0.3,0.8-2v-4.8c0-1.7-0.1-1.9-0.8-2l-0.4-0.1v-0.2
			c0.2,0,1.4,0,1.9,0c0.4,0,1.7,0,1.9,0v0.2l-0.4,0.1c-0.7,0.1-0.8,0.3-0.8,2v4.8c0,1.7,0.1,1.9,0.8,2l0.4,0.1v0.2
			C214.6,185.9,213.3,185.9,212.9,185.9"/>
		<path class="st0" d="M219.1,176.7c-1.4,0-2.1,1.7-2.1,4.1c0,2.7,0.9,4.9,2.5,4.9c1.4,0,2.1-1.7,2.1-4.1
			C221.6,179,220.7,176.7,219.1,176.7 M219.3,186.1c-2.3,0-3.9-2-3.9-4.8c0-2.8,1.6-4.8,3.9-4.8c2.2,0,3.9,2,3.9,4.8
			C223.2,184.1,221.5,186.1,219.3,186.1z"/>
		<path class="st0" d="M223.8,176.8l-0.2,0v-0.2c0.2,0,0.7,0,1.1,0c0.3,0,0.9,0,1.2,0l4.6,6.8l0-4.5c0-1.6-0.2-1.9-1-2.1l-0.2,0
			v-0.2c0.2,0,1,0,1.4,0c0.4,0,1.1,0,1.3,0v0.2l-0.1,0c-0.7,0.2-0.9,0.5-0.9,2.1l0,7.1l-0.2,0.1l-5.3-7.8c0,0,0,5.4,0,5.4
			c0,1.6,0.2,1.9,1,2.1l0.2,0v0.2c-0.2,0-1,0-1.4,0c-0.4,0-1.1,0-1.3,0v-0.2l0.1,0c0.7-0.2,0.9-0.5,0.9-2.1l0.1-6
			C224.6,177.2,224.2,176.9,223.8,176.8"/>
		<path class="st0" d="M235.3,177.9l-1.2,4.1c0,0,2.5,0,2.5,0L235.3,177.9 M233.5,183.7c-0.1,0.4-0.2,0.9-0.2,1.2
			c0,0.4,0.2,0.7,0.6,0.8l0.3,0.1v0.2c-0.2,0-0.9,0-1.3,0c-0.4,0-1.1,0-1.4,0v-0.2l0.2,0c0.5-0.1,0.8-0.6,1.2-1.6l2.3-7.1l0.8-0.7
			h0.2l2.5,8c0.2,0.8,0.5,1.2,0.9,1.3l0.3,0.1v0.2c-0.2,0-1.2,0-1.7,0c-0.4,0-1.7,0-1.9,0v-0.2l0.4-0.1c0.5-0.1,0.6-0.3,0.6-0.7
			c0-0.2,0-0.5-0.1-0.8l-0.5-1.8h-2.7L233.5,183.7z"/>
		<path class="st0" d="M246.3,185.9h-1.2c-0.7,0-2,0-2.4,0c-0.4,0-1.9,0-2.2,0v-0.2l0.3-0.1c0.6-0.1,0.7-0.4,0.7-2v-4.8
			c0-1.6-0.1-1.9-0.7-2l-0.3-0.1v-0.2c0.2,0,1.3,0,1.7,0c0.4,0,1.7,0,1.9,0v0.2l-0.4,0.1c-0.7,0.2-0.8,0.3-0.8,2v5
			c0,1.5,0.2,1.7,1.1,1.7h0.3c0.9,0,1.3-0.3,1.8-1.3l0.3-0.7h0.2L246.3,185.9"/>
	</g>
</g>
</svg>
