<?xml version="1.0" encoding="utf-8"?>
<!-- Generator: Adobe Illustrator 19.1.0, SVG Export Plug-In . SVG Version: 6.00 Build 0)  -->
<svg version="1.1" id="Layer_1" xmlns="http://www.w3.org/2000/svg" xmlns:xlink="http://www.w3.org/1999/xlink" x="0px" y="0px"
	 viewBox="0 0 400 400" style="enable-background:new 0 0 400 400;" xml:space="preserve">
<style type="text/css">
	.st0{fill:#2E343F;}
	.st1{fill-rule:evenodd;clip-rule:evenodd;fill:#2E343F;}
</style>
<g>
	<g>
		<path class="st0" d="M119,204.9c0,0.3,0,20.9,0,20.9s8.4,0,8.6,0c0,0.2-0.3,3.8-0.3,4c-0.2,0-12.8,0-13.1,0c0-0.2,0-24.2,0-24.4
			C114.4,205.4,118.7,204.9,119,204.9"/>
		<path class="st0" d="M136.8,210.6c-1.5,0-3.8,0.3-5.2,0.6c0,0.2-0.5,3.6-0.5,3.9c1.4-0.3,3.3-0.8,5.1-0.8c2.1,0,4.2,0.4,4.7,3.2
			l0,0.1l-3.4-0.1c-4.1,0-8.3,2.1-8.3,6.2c0,5.5,5.7,6.4,9.1,6.4c2.5,0,4.5-0.2,7.2-0.6c0-0.2,0-10.2,0-10.2
			C145.5,213.6,142.5,210.6,136.8,210.6 M140.8,226.3c-0.6,0.1-1.4,0.2-2.2,0.2c-3.1,0-4.7-1.1-4.7-2.7c0-1.2,1.2-2.5,3.8-2.5
			c1.1,0,2.1,0.1,3,0.1V226.3z"/>
		<path class="st0" d="M162.1,211.9c1.8-0.8,3.9-1.3,5.9-1.3c5.4,0,8.5,2.8,8.5,7.8c0,0,0,11.3,0,11.5c-0.2,0-4.5,0-4.7,0
			c0-0.2,0-11.4,0-11.4c0-2.5-1.6-4-4.2-4c-1.3,0-2.2,0.4-2.9,0.7l-0.1,0l0,0.1c0.2,0.7,0.2,1.7,0.2,2.3c0,0,0,12,0,12.3
			c-0.2,0-4.4,0-4.6,0c0-0.2,0-12.1,0-12.1c0-2.2-1.2-3.3-3.7-3.3c-1.1,0-2,0.2-3.1,0.4l-0.1,0c0,0,0,14.7,0,14.9
			c-0.2,0-4.4,0-4.6,0c0-0.2,0-18,0-18.2c2-0.4,4.9-1,8-1c2.5,0,4.1,0.6,5.4,1.3L162.1,211.9"/>
		<path class="st0" d="M185.8,210.6c-0.6,0-1,0-1.7,0.1l-0.1,0c0,0,0-7.9,0-8.2c-0.2,0-4.4,0.5-4.6,0.5c0,0.2,0,26,0,26.2
			c2.1,0.6,4,0.9,6.1,0.9c7.2,0,11.5-3.9,11.5-10.4C196.9,215.5,194,210.6,185.8,210.6 M185.9,226.1c-0.7,0-1.2,0-1.8-0.2l-0.1,0
			v-11.3l0.1,0c0.5-0.1,0.9-0.1,1.4-0.1c4,0,6.7,2.1,6.7,5.3C192.2,223.7,189.8,226.1,185.9,226.1z"/>
		<path class="st0" d="M216.8,220.7c0-6.4-3.1-10.1-8.4-10.1c-5.5,0-9.4,3.9-9.4,9.5c0,7,5.7,10.2,11,10.2c1.8,0,3.7-0.2,5.2-0.5
			c0-0.2,0.5-3.9,0.5-4.3c-2,0.7-3.8,1-5.4,1c-3.5,0-6.2-2.1-6.5-5.2l0-0.1c0,0,12.8,0,13,0C216.8,221.1,216.8,220.7,216.8,220.7
			 M204.1,217.7l0-0.2c0.5-1.9,2.1-3.2,4-3.2c1.8,0,3.2,1.2,3.6,3.2l0,0.1H204.1z"/>
		<path class="st0" d="M224.2,206.3c0,0.3,0,4.8,0,4.8s6.2,0,6.4,0c0,0.2-0.2,3.4-0.2,3.6c-0.2,0-6.2,0-6.2,0v8.1
			c0,3.2,2.7,3.5,3.9,3.5c0.6,0,1.1-0.1,2.7-0.4c0,0.3-0.6,3.7-0.6,3.9c-1.1,0.2-1.8,0.3-2.6,0.3c-1.9,0-8.1-0.5-8.1-6.9
			c0,0,0-16.2,0-16.4C219.7,206.7,224,206.3,224.2,206.3"/>
		<path class="st0" d="M237.8,202.5c0,0.3,0,10.3,0,10.3l0.2-0.2c1.1-0.9,2.9-2,5.2-2c4.1,0,6.8,2.6,6.8,6.5c0,0,0,12.4,0,12.7
			c-0.2,0-4.5,0-4.7,0c0-0.2,0-11.9,0-11.9c0-2.2-1.1-3.4-3-3.4c-1.7,0-3.4,1.2-4.5,2.3l0,0c0,0,0,12.7,0,13c-0.2,0-4.5,0-4.7,0
			c0-0.2,0-26.6,0-26.8C233.3,203,237.6,202.5,237.8,202.5"/>
		<path class="st0" d="M274.3,176.5c-10.5,10.4-19.9,13.5-26.5,12.4c-8.9-1.5-15.3-3.8-33.8,0.4c7.6-7.5,14.5-9.7,19.3-8.9
			c6.6,1.1,11.4,2.9,25.2-0.4l-7.9-6.8c-9,8.4-15.5,7.3-17.2,7c-2-0.3-13.1-3.3-27.8,1.9c5.9-5.8,11.1-7.5,14.8-6.8
			c5,0.9,8.7,2.2,19.3-0.3l-6.1-5.2c-6.9,6.5-11.9,5.6-13.2,5.4c-1.5-0.2-10.1-2.5-21.4,1.5l25.5,22c12.2-11.4,21-9.9,23.4-9.6
			c2.7,0.4,18,4.5,38-2.6"/>
	</g>
</g>
</svg>
