<?xml version="1.0" encoding="utf-8"?>
<!-- Generator: Adobe Illustrator 19.1.0, SVG Export Plug-In . SVG Version: 6.00 Build 0)  -->
<svg version="1.1" id="Layer_1" xmlns="http://www.w3.org/2000/svg" xmlns:xlink="http://www.w3.org/1999/xlink" x="0px" y="0px"
	 viewBox="0 0 400 400" style="enable-background:new 0 0 400 400;" xml:space="preserve">
<style type="text/css">
	.st0{fill:#2E343F;}
	.st1{fill-rule:evenodd;clip-rule:evenodd;fill:#2E343F;}
</style>
<g>
	<path class="st0" d="M249.2,189.6l-3,1.1c-1.2-3.8-4.6-6.2-9.1-6.2c-5,0-8.3,2.5-8.3,6.7c0,9,20.7,4.3,20.7,17
		c0,6.1-4.9,10.3-12.1,10.3c-6.7,0-10.8-3.2-13.6-8.4l2.8-1.7c1.9,3.9,5.3,7,10.5,7c6,0,9.1-2.8,9.1-7.3c0-9.1-20.7-4.6-20.7-17
		c0-7.3,6.6-9.7,11.5-9.7C242.4,181.4,247.4,183.9,249.2,189.6 M198.4,189.7c0,2,1.3,3.7,4.3,6.9c3.5-2,5.4-4.2,5.4-6.9
		c0-2.7-1.8-4.8-4.9-4.8C200.2,184.9,198.4,187.2,198.4,189.7z M201.8,200.4c-4.7,2.6-6.8,4.7-6.8,7.9c0,3.7,3.3,6.7,7.6,6.7
		c3.8,0,5.8-1.8,7.9-5.2L201.8,200.4z M218.7,218.6l-6-6.4c-2.2,3.4-5.1,5.9-10,5.9c-6.3,0-10.9-4.4-10.9-9.7c0-4.5,2.8-7.2,8-10.2
		c-3-3-4.7-5.5-4.7-8.5c0-4.3,3.6-7.7,8-7.7c4.7,0,8.1,3.4,8.1,7.7c0,4.2-3.3,7-6.5,9.1l7.5,8.1l4.4-7.2l2.6,1.7l-4.9,7.9l6.7,7.1
		L218.7,218.6z M183.4,181.9v36.2h-3.3v-29.6l-11.9,23.2h-2.3l-11.9-23.1v29.5h-3.3v-36.2h3.5l13,25l13-25H183.4z"/>
</g>
</svg>
