<?xml version="1.0" encoding="utf-8"?>
<!-- Generator: Adobe Illustrator 19.1.0, SVG Export Plug-In . SVG Version: 6.00 Build 0)  -->
<svg version="1.1" id="Layer_1" xmlns="http://www.w3.org/2000/svg" xmlns:xlink="http://www.w3.org/1999/xlink" x="0px" y="0px"
	 viewBox="0 0 400 400" style="enable-background:new 0 0 400 400;" xml:space="preserve">
<style type="text/css">
	.st0{fill:#2E343F;}
	.st1{fill-rule:evenodd;clip-rule:evenodd;fill:#2E343F;}
</style>
<g>
	<path class="st0" d="M161,207.3c0-1.7,0-7.4,0-8.1c0-1,0.3-5.8-6.2-5.8c-5.4,0-6.6,2.7-7.1,3.3c-0.5-0.3-1.2-3.2-6.5-3.2
		c-4.4,0-6.4,2.8-6.4,2.8l0-2.2h-11.1l0,3.7l1.8,0c0,0,1.6,0.1,1.6,1.4c0,1.3,0,7.1,0,8c0,1.8-1.9,1.7-1.9,1.7h-1.6v3.6l12.9,0.1
		l0-3.6c0,0-1.8,0-1.8-1.7c0-1.7,0-7.4,0-7.4s0.4-2.6,3-2.6c2.4,0,2.5,1.9,2.5,1.9s0,6.3,0,8c0,1.7-1.8,1.7-1.8,1.7l0,3.6l11.2,0.1
		l0-3.6c0,0-1.8,0.2-1.8-1.7c0-1.7,0-6.9,0-6.9s0.1-3,3.1-3c2.7,0,2.6,2.1,2.6,2.1s0,6.6,0,7.9c0,1.5-2,1.6-2,1.6l0,3.6h12.8V209
		c0,0-1.4,0-1.9,0C161.8,209,161,208.8,161,207.3z"/>
	<path class="st0" d="M175.4,193.4c-9.7,0-11,7.8-11,10.2c0,2.4,1,9.5,10.5,9.5c8.1,0,10-6.9,10-6.9h-5.2c0,0-0.7,3-3.7,3
		c-2.7,0-3.7-1.9-3.7-4.7h13C185.4,201.6,185,193.4,175.4,193.4z M172.2,201.2l0.1-1.3c0,0,0.5-2.7,3-2.7c2.5,0,2.8,2.7,2.8,2.7
		l0,1.3H172.2z"/>
	<path class="st0" d="M210.2,207.4c0-1.7,0-8.5,0-9.5c0-0.8,0-4.3-6.8-4.3c-4.9,0-6.4,2.8-6.4,2.8l0-2.2H186l0,3.7l1.8,0
		c0,0,1.6,0.1,1.6,1.4c0,1.3,0,7.1,0,8c0,1.8-1.9,1.7-1.9,1.7h-1.6l0,3.6l13.1,0l0-3.6c0,0-2.4,0-2.4-1.7c0-1.7,0-6.6,0-7.2
		c0.1-0.7,0.8-2.9,3.3-2.9c2.6,0,2.8,2.1,2.8,2.1s0,6.2,0,7.9c0,1.7-2.1,1.6-2.1,1.6l0,3.6h13V209
		C213.7,209,210.2,209.2,210.2,207.4z"/>
	<path class="st0" d="M226.5,203.2c0,0,0,3.7,0,4.1c0,0.4-0.3,1.7-1.5,1.7c-1.5,0-1.6-1.5-1.6-2.2c0-0.7,0-9.2,0-9.2l5.2,0v-3.6
		l-5.2,0v-7.2c0,0-4.8,0-5,0c-0.4,5.4-3.9,7.2-6.3,7.3v3.6h3.7c0,0,0,4.3,0,9.5c0,3.9,3.6,5.6,7.6,5.6c4,0,6.9-2.1,6.9-5.6
		c0-4,0-4.1,0-4.1H226.5z"/>
	<path class="st0" d="M242.9,193.1c-10,0-11.5,6.5-11.6,9.6c0,3.1,1.3,9.9,11.6,9.9c10.3,0,11.5-7.1,11.5-9.9
		C254.4,199.8,252.9,193.1,242.9,193.1z M242.9,209c-3.4,0-3.4-3.5-3.4-5.8c0-2.3-0.2-6.6,3.4-6.6c3.7,0,3.3,5,3.3,6.6
		C246.2,204.8,246.3,209,242.9,209z"/>
	<path class="st0" d="M263.5,197.7c0-1.3,2.7-1.3,2.7-1.3c4.9,0,5.7,3.3,5.7,3.3l3.6,0v-6.5l-3.5,0l-0.3,0.9c0,0-2.4-1.4-6.5-1.4
		c-4,0-9.6,1.6-9.6,6.4c0,6.8,13.3,5.7,13.3,8.4c0,1.7-6.7,2.5-9.4-2.5l-3.6,0v6.9l3.6,0l0.6-1.6c0,0,2.1,2.1,7.3,2.1
		c5.2,0,8.9-2.6,8.9-6.6C276.3,199.1,263.5,200.2,263.5,197.7z"/>
</g>
</svg>
