<?xml version="1.0" encoding="utf-8"?>
<!-- Generator: Adobe Illustrator 19.1.0, SVG Export Plug-In . SVG Version: 6.00 Build 0)  -->
<svg version="1.1" id="Layer_1" xmlns="http://www.w3.org/2000/svg" xmlns:xlink="http://www.w3.org/1999/xlink" x="0px" y="0px"
	 viewBox="0 0 400 400" style="enable-background:new 0 0 400 400;" xml:space="preserve">
<style type="text/css">
	.st0{fill:#2E343F;}
	.st1{fill-rule:evenodd;clip-rule:evenodd;fill:#2E343F;}
</style>
<g>
	<path class="st0" d="M189.6,224.3v-37.5c0-1.7-0.1-2.8-0.3-3.8c-1.1-4.9-5-7.6-11.3-7.6h-2.1v21l-14.3-21h-14v37.5
		c0,1.7,0.1,2.8,0.3,3.8c1.1,4.9,5,7.6,11.3,7.6h2.1V203l14.5,21.3H189.6z M149.9,177.7h10.5l17.9,26.2v-26.3h0.4
		c4.4,0,7.3,2,8.3,5.7c0.2,0.9,0.3,2,0.3,3.7v35H177l-18-26.6v26.7h-0.4c-4.4,0-7.3-2-8.3-5.7c-0.2-0.9-0.3-2-0.3-3.7V177.7z
		 M224.9,207.1c0,3.1,1.4,5,4.4,5c3.1,0,4.4-1.9,4.4-5c0-3.1-1.4-5-4.4-5C226.3,202.1,224.9,204,224.9,207.1 M243.6,211.9
		c-0.4,0.1-0.8,0.1-1.1,0.1c-1.3,0-1.8-0.5-2.1-1.3l-1.2-2.5h-1.2v3.6h-2.5v-9.6h4c2.4,0,3.6,1.2,3.6,3c0,1.2-0.5,2.1-1.6,2.6
		L243.6,211.9z M236.1,199.3c-0.4,0-0.7,0.1-1,0.1c-1.3,0-1.7-0.4-2-1.2l-0.9-2.4h-1.1v3.6h-2.4v-9.6h3.7c2.4,0,3.6,1.2,3.6,3
		c0,1.2-0.6,2.2-1.6,2.6L236.1,199.3z M200.1,195.6c-0.3-0.7-0.8-1.8-1.3-2.7l-1.1-1.8c-0.6-1.1-1-1.3-2-1.3h-1.1v9.6h2.2v-6h0
		c0.3,0.7,0.8,1.9,1.4,2.8l1.2,2c0.5,0.9,0.9,1.2,1.9,1.2h1v-9.6h-2.2L200.1,195.6L200.1,195.6z M200.3,211.9v-4h-3.3v4h-2.5v-9.6
		h2.5v3.7h3.3v-3.7h2.5v9.6H200.3z M209.6,199.3l-0.4-1.7h-2.9l-0.4,1.7h-2.4l2.5-9.6h3.2l2.8,9.6H209.6z M242.7,199.3l-0.4-1.7
		h-2.9l-0.4,1.7h-2.4l2.6-9.6h3.2l2.7,9.6H242.7z M224.5,189.8h2.4v6.4c0,2.6-1.8,3.4-3.7,3.4c-1.9,0-3.7-0.8-3.7-3.4v-6.4h0.6
		c1.4,0,1.8,0.6,1.8,1.9v4.4c0,1,0.4,1.5,1.3,1.5c0.9,0,1.3-0.5,1.3-1.5V189.8z M212.7,212.1c-1.4,0-2.7-0.4-3.9-1.3l1-1.7
		c0.7,0.6,1.7,1.1,2.8,1.1c0.9,0,1.6-0.2,1.6-0.9c0-1.7-5-0.9-5-4.3c0-2,1.7-2.9,3.6-2.9c1.4,0,2.6,0.4,3.5,1.2l-0.9,1.7
		c-0.7-0.6-1.7-1-2.6-1c-0.8,0-1.2,0.3-1.2,0.8c0,1.7,5,0.9,5,4.3C216.6,211,214.9,212.1,212.7,212.1 M202.3,216.4v8h1.3v-9.6h-1.7
		l-2.8,6.3l-2.8-6.3h-1.7v9.6h1.3v-8h0c0.1,0.5,0.4,1.2,0.8,2.2l2,4.5h0.8l2-4.5C201.9,217.6,202.2,216.8,202.3,216.4L202.3,216.4z
		 M248,206.4l1.8-4.1h2.7l-3.3,6.4v3.2h-2.4v-3.2l-3.3-6.4h2.7L248,206.4L248,206.4z M219.7,211.9v-7.6h-2.4v-1.9h7.4v0.5
		c0,1-0.4,1.5-1.7,1.5h-0.8v7.6H219.7z M213.8,199.3v-7.6h-2.3v-1.9h7v0.5c0,1-0.4,1.5-1.7,1.5h-0.6v7.6H213.8z M246.2,199.3v-9.6
		h2.4v7.6h3.4v1.9h-3.7H246.2z M237.8,215.8c0-0.7,0.3-1,1-1h0.3v6.3c0,2.5-1.9,3.4-3.6,3.4c-1.7,0-3.6-0.9-3.6-3.4v-6.3h1.3v6.3
		c0,1.8,1.1,2.4,2.3,2.4c1.2,0,2.3-0.6,2.3-2.4V215.8z M207.2,215.8c0-0.7-0.3-1-1-1h-0.3v6.3c0,2.5,1.9,3.4,3.6,3.4
		c1.7,0,3.6-0.9,3.6-3.4v-6.3h-1.3v6.3c0,1.8-1.1,2.4-2.3,2.4c-1.2,0-2.3-0.6-2.3-2.4V215.8z M215.1,217.2c0,3.3,5.2,2.2,5.2,4.6
		c0,1.1-0.9,1.6-2.3,1.6c-1.1,0-2.1-0.4-2.8-1.2l-0.7,0.9c0.9,0.9,2.1,1.3,3.6,1.3c2,0,3.7-0.9,3.7-2.8c0-3.4-5.3-2.4-5.3-4.6
		c0-0.9,0.7-1.5,1.9-1.5c1.1,0,2,0.4,2.6,1.1l0.8-0.8c-0.8-0.9-2-1.4-3.4-1.4C216.3,214.5,215.1,215.6,215.1,217.2 M225.1,219.8h4
		v-1h-4v-3h3.7c0.7,0,1-0.3,1-0.9v-0.2h-6v9.6h6.2v-1h-4.9V219.8z M204.9,202.3h2.5v9.6h-2.5V202.3z M231.2,207.1
		c0,2-0.4,3.1-1.9,3.1c-1.4,0-1.9-1-1.9-3.1c0-2,0.4-3.1,1.9-3.1C230.8,204,231.2,205,231.2,207.1 M237.9,204.1v2.3h1.4
		c1,0,1.3-0.6,1.3-1.2s-0.4-1.1-1.3-1.1H237.9z M231.1,191.6v2.3h1.3c1,0,1.3-0.6,1.3-1.2c0-0.6-0.4-1.1-1.3-1.1H231.1z
		 M207.6,191.6l-0.9,4.2h2L207.6,191.6L207.6,191.6z M240.8,191.6l-1,4.2h2L240.8,191.6L240.8,191.6z M249.1,216.4v8h1.3v-9.6h-1.7
		l-2.8,6.3l-2.8-6.3h-1.7v9.6h1.3v-8h0c0.1,0.5,0.4,1.2,0.8,2.2l2,4.5h0.8l2-4.5C248.7,217.6,249,216.8,249.1,216.4L249.1,216.4z"/>
</g>
</svg>
