<?xml version="1.0" encoding="utf-8"?>
<!-- Generator: Adobe Illustrator 19.1.0, SVG Export Plug-In . SVG Version: 6.00 Build 0)  -->
<svg version="1.1" id="Layer_1" xmlns="http://www.w3.org/2000/svg" xmlns:xlink="http://www.w3.org/1999/xlink" x="0px" y="0px"
	 viewBox="0 0 400 400" style="enable-background:new 0 0 400 400;" xml:space="preserve">
<style type="text/css">
	.st0{fill:#2E343F;}
	.st1{fill-rule:evenodd;clip-rule:evenodd;fill:#2E343F;}
</style>
<g>
	<path class="st0" d="M193.8,192.5c-0.7,0.5-1.6,0.6-2.8,0.6h-2.5v-6.1h2.6c1,0,2,0.1,2.8,0.6c0.8,0.5,1.2,1.3,1.2,2.3
		C195.1,191.1,194.5,192,193.8,192.5 M195.4,196.1c3.4-0.9,4.6-4,4.6-6.2c0-3-1.4-5.2-4.1-6.3c-1.4-0.6-3-0.8-5.2-0.8h-7v21.8h4.9
		v-7.5h0.5c1,0,1.9,0.3,2.6,1.1c1.5,1.5,3,4.2,4.1,6.2l0.1,0.2h5.7l-0.4-0.6C200.4,202.8,197.3,197.9,195.4,196.1"/>
	<path class="st0" d="M218.5,193.7c0,4.2-2.1,6.9-5.6,6.9c-3.5,0-5.6-2.7-5.6-6.9c0-4.2,2.2-6.9,5.6-6.9
		C216.4,186.7,218.5,189.5,218.5,193.7 M212.9,182.4c-3,0-5.6,1-7.5,2.8c-2.1,2-3.2,5-3.2,8.5c0,6.8,4.3,11.3,10.7,11.3
		c6.4,0,10.6-4.6,10.6-11.3C223.5,186.8,219.4,182.4,212.9,182.4"/>
	<polygon class="st0" points="238.3,182.8 232.2,192.4 229.3,182.8 224.3,182.8 228.9,197 223.8,204.6 229.2,204.6 243.9,182.8 	"/>
	<polygon class="st0" points="265.4,200.4 265.4,182.8 260.5,182.8 260.5,204.6 272.9,204.6 274.6,200.4 	"/>
	<path class="st0" d="M246.4,195.1l4.9-7.6v7.6H246.4z M256.2,182.8h-6.6l-14.9,21.8h5.5l3.5-5.4h7.7v5.4h4.9V182.8z"/>
	<path class="st0" d="M170.5,219.8c-0.7,0.5-1.6,0.6-2.8,0.6h-2.5v-6.1h2.6c1,0,2,0.1,2.8,0.6c0.8,0.5,1.2,1.3,1.2,2.3
		C171.8,218.4,171.2,219.3,170.5,219.8 M172.1,223.4c3.4-0.9,4.6-4,4.6-6.2c0-3-1.4-5.2-4.1-6.3c-1.4-0.6-3-0.8-5.2-0.8h-7v21.8h4.9
		v-7.5h0.5c1,0,1.9,0.3,2.6,1.1c1.5,1.5,3,4.2,4.1,6.2l0.1,0.2h5.7l-0.4-0.6C177.1,230.1,174,225.2,172.1,223.4"/>
	<path class="st0" d="M231.4,219.8c-0.7,0.5-1.6,0.6-2.8,0.6h-2.5v-6.1h2.6c1,0,2,0.1,2.8,0.6c0.8,0.5,1.2,1.3,1.2,2.3
		C232.7,218.4,232.2,219.3,231.4,219.8 M233,223.4c3.4-0.9,4.6-4,4.6-6.2c0-3-1.4-5.2-4.1-6.3c-1.4-0.6-3-0.8-5.2-0.8h-7v21.8h4.9
		v-7.5h0.5c1,0,1.9,0.3,2.6,1.1c1.5,1.5,3,4.2,4.1,6.2l0.1,0.2h5.7l-0.4-0.6C238,230.1,235,225.2,233,223.4"/>
	<path class="st0" d="M213.6,221c0,4.2-2.1,6.9-5.6,6.9c-3.5,0-5.6-2.7-5.6-6.9c0-4.2,2.2-6.9,5.6-6.9
		C211.5,214.1,213.6,216.8,213.6,221 M208,209.7c-3,0-5.6,1-7.5,2.8c-2.1,2-3.2,5-3.2,8.5c0,6.8,4.3,11.3,10.7,11.3
		c6.4,0,10.6-4.6,10.6-11.3C218.6,214.1,214.5,209.7,208,209.7"/>
	<path class="st0" d="M137,222.4l4.9-7.6v7.6H137z M146.9,210.1h-6.6l-14.9,21.8h5.5l3.5-5.4h7.7v5.4h4.9V210.1z"/>
	<rect x="151" y="210.1" class="st0" width="4.9" height="21.8"/>
	<polygon class="st0" points="188.5,214.3 196.3,214.3 198.4,210 183.6,210 183.6,231.9 188.5,231.9 188.5,223 194.5,223 
		194.5,218.9 188.5,218.9 	"/>
	<path class="st0" d="M252.4,227.9c-1.7,0-3.5-0.4-4.6-1.1c-1.9-1.2-3-3.3-3-5.9c0-1.6,0.4-3.2,1.5-4.5c1.1-1.4,3.1-2.3,5.5-2.3
		c1.5,0,2.9,0.2,4.7,0.6v-4.4c-1.8-0.4-3.4-0.7-5.3-0.7c-2.8,0-6.1,0.9-8.3,3.1c-2.1,2.1-3.2,5-3.2,8.2c0,3.6,1.4,6.8,3.7,8.8
		c2.3,1.9,5.6,2.6,8.4,2.6c1.9,0,4-0.3,5.3-0.7v-4.2C255.7,227.7,254.2,227.9,252.4,227.9"/>
	<polygon class="st1" points="265.4,227.7 265.4,222.9 271.3,222.9 271.3,218.7 265.4,218.7 265.4,214.3 273,214.3 274.6,210 
		260.5,210 260.5,231.9 273.8,231.9 273.8,227.7 	"/>
	<path class="st0" d="M159.7,167.7c-10.3,0-18.6,8.3-18.6,18.6s8.3,18.6,18.6,18.6c10.3,0,18.6-8.3,18.6-18.6S170,167.7,159.7,167.7
		z M159.7,198.7c-6.9,0-12.4-5.6-12.4-12.4c0-6.9,5.6-12.4,12.4-12.4c6.9,0,12.4,5.6,12.4,12.4C172.2,193.1,166.6,198.7,159.7,198.7
		z"/>
	<path class="st0" d="M159.7,180.1c3.4,0,6.2,2.8,6.2,6.2c0,3.4-2.8,6.2-6.2,6.2c-3.4,0-6.2-2.8-6.2-6.2
		C153.5,182.9,156.3,180.1,159.7,180.1"/>
</g>
</svg>
