<?xml version="1.0" encoding="utf-8"?>
<!-- Generator: Adobe Illustrator 19.1.0, SVG Export Plug-In . SVG Version: 6.00 Build 0)  -->
<svg version="1.1" id="Layer_1" xmlns="http://www.w3.org/2000/svg" xmlns:xlink="http://www.w3.org/1999/xlink" x="0px" y="0px"
	 viewBox="0 0 400 400" style="enable-background:new 0 0 400 400;" xml:space="preserve">
<style type="text/css">
	.st0{fill:#2E343F;}
	.st1{fill-rule:evenodd;clip-rule:evenodd;fill:#2E343F;}
</style>
<g>
	<g>
		<path class="st0" d="M137.7,184.3h-11.3c0,0-2.2-0.3-3.5,1.8c-1.4,2.4,0.4,5.7,0.4,5.7l4.9,7.9c0,0,0.5,0.6,0.1,1.3
			c-0.4,0.6-1,0.5-1,0.5H122l1.4,7.5H135c0,0,2.7,0.3,4.1-2.5c1.2-2.6-0.5-4.9-0.5-4.9l-4.9-9c0,0-0.1-0.3,0-0.5
			c0.1-0.2,0.4-0.2,0.4-0.2h5L137.7,184.3z"/>
		<path class="st0" d="M155.7,209c0,0-8,0.9-13.4-7.4c-3-4.5-3.7-17,8.1-17.4c3.1,0,5.6,0,5.6,0l1.5,7.6c0,0-2.8,0-5.3,0
			c-2.4,0-3.6,1.6-3.6,3.3c0,1.7,0.2,5.1,5.9,6.4c1.9,0.4,3.3,0,3.3,0L155.7,209z"/>
		<rect x="160" y="192.7" class="st0" width="8.6" height="16.2"/>
		<polygon class="st0" points="216.5,184.3 214.2,195.3 212.1,184.3 203.6,184.3 209.6,209 218.3,209 220.2,199.4 221.9,207.4 
			225.4,192.9 224.2,184.3 		"/>
		<polygon class="st0" points="228.8,184.3 228.1,187.8 243.7,187.8 244.7,184.3 		"/>
		<polygon class="st0" points="227.9,189 226.7,193.3 234.1,193.3 235.5,189 		"/>
		<polygon class="st0" points="226.4,194.9 225.6,198.3 239.9,198.3 240.9,194.9 		"/>
		<polygon class="st0" points="225.4,199.8 232.9,199.8 230.8,209 223.3,209 		"/>
		<polygon class="st0" points="242.6,209 247.4,209 253.6,184.3 249,184.3 		"/>
		<polygon class="st0" points="256.6,184.3 261.3,184.3 264.7,192.6 272.8,184.3 278,184.3 266.6,196.7 272,209 267.1,209 
			263.3,200.4 255.2,209 249.9,209 261.6,196.1 		"/>
		<polygon class="st0" points="184.2,184.3 201.9,184.3 203.9,191.6 193.6,191.6 193.6,193 202.4,193 200.1,200.3 193.5,200.3 
			193.5,201.5 204.5,201.5 202.1,209 184.2,209 		"/>
		<path class="st0" d="M189.6,211.9c-2.6-1.1-6-2.8-8-4.8c-3.7-3.8-4.1-6.7-4.1-6.7s5.9-4.6,4.6-10c-1.5-6.1-5.4-5.9-11.3-5.9
			l-10.5-0.2l-1.4,7.6c0,0,10.2,0,11.5,0s2.9,0.1,2.8,2.2c0,1.8-3.9,3.9-3.9,3.9s-0.6,4.4,4.9,11.1c2.1,2.6,4.6,4.9,6.9,6.7
			L189.6,211.9z"/>
	</g>
</g>
</svg>
