<?xml version="1.0" encoding="utf-8"?>
<!-- Generator: Adobe Illustrator 19.1.0, SVG Export Plug-In . SVG Version: 6.00 Build 0)  -->
<svg version="1.1" id="Layer_1" xmlns="http://www.w3.org/2000/svg" xmlns:xlink="http://www.w3.org/1999/xlink" x="0px" y="0px"
	 viewBox="0 0 400 400" style="enable-background:new 0 0 400 400;" xml:space="preserve">
<style type="text/css">
	.st0{fill:#2E343F;}
	.st1{fill-rule:evenodd;clip-rule:evenodd;fill:#2E343F;}
</style>
<g>
	<polygon class="st0" points="188.2,186.2 186.6,186.2 178.6,203.4 175,211.4 171.4,203.4 163.3,186.2 161.8,186.2 174.9,214.5 
		175,214.5 	"/>
	<path class="st0" d="M134.8,185.5h-0.2l-13.1,28.1h1.6l3.7-7.9l15.9,0l3.7,7.9h1.6L134.8,185.5z M127.4,204.6L127.4,204.6l3.8-8.1
		l3.6-8l3.7,8l3.7,8.1L127.4,204.6z"/>
	<path class="st0" d="M218.1,185.5c-7.8,0-14.5,6.5-14.5,14.5c0,8,6.7,14.5,14.5,14.5c7.8,0,14.5-6.5,14.5-14.5
		C232.6,192,225.9,185.5,218.1,185.5 M205.2,200L205.2,200c0-7.2,5.9-13.1,13-13.1c7,0,13,5.8,13,13.1c0,7.2-5.9,13.1-13,13.1
		C211.1,213.1,205.2,207.2,205.2,200"/>
	<polygon class="st0" points="253.6,185.5 253.4,185.5 253.4,213.7 254.9,213.7 254.9,200 254.8,189.1 278.3,214.5 278.5,214.5 
		278.5,186.2 277,186.2 277,200 277.1,210.9 	"/>
</g>
</svg>
