<?xml version="1.0" encoding="utf-8"?>
<!-- Generator: Adobe Illustrator 19.1.0, SVG Export Plug-In . SVG Version: 6.00 Build 0)  -->
<svg version="1.1" id="Layer_1" xmlns="http://www.w3.org/2000/svg" xmlns:xlink="http://www.w3.org/1999/xlink" x="0px" y="0px"
	 viewBox="0 0 400 400" style="enable-background:new 0 0 400 400;" xml:space="preserve">
<style type="text/css">
	.st0{fill:#2E343F;}
	.st1{fill-rule:evenodd;clip-rule:evenodd;fill:#2E343F;}
</style>
<g>
	<path class="st1" d="M157.2,217.4c-2.6,2.2-6.5,2.2-9.7,2.2h-12v-1.6c2.5,0,3.6-0.8,3.6-3.6v-19.1c0-2.8-1.1-3.6-3.6-3.6v-1.8h11.8
		c1.5,0,3,0.1,4.3,0.2c4,0.4,7.1,3,7.1,7.1c0,3.7-2.5,5.8-5.9,6.5c4.3,0.7,7.1,3.4,7.1,7.8C159.8,213.8,159,215.9,157.2,217.4
		L157.2,217.4z M146.9,192.2c-0.8,0-1.5,0.1-2.3,0.1v10.5c0.4,0.1,1,0.1,1.4,0.1c3.4,0,7.1-1.5,7.1-5.6
		C153.1,193.7,150.3,192.2,146.9,192.2L146.9,192.2z M151.6,206.3c-1.4-0.9-3.2-1-4.8-1c-0.8,0-1.4,0-2.2,0.1v6.7c0,2.6,0,5,3.4,5
		c3.4,0,5.8-2.6,5.8-6C153.8,209.3,153.1,207.4,151.6,206.3L151.6,206.3z"/>
	<path class="st1" d="M205.3,219.6v-1.6c1.2,0,2.4-0.2,2.4-1.7c0-0.4-0.2-1.4-0.5-2.4l-1.2-3.3h-9.8l-0.9,2.6
		c-0.5,1.6-0.8,2.6-0.8,3.2c0,1.3,1.2,1.6,2.3,1.6v1.6h-18V218c1.4,0,2.4-0.5,2.4-1.9c0-0.9-0.5-2.4-0.8-3.1l-1-2.6h-9.8l-1,3.1
		c-0.3,1-0.8,2.4-0.8,2.7c0,1.3,1.2,1.6,2.4,1.6v1.6h-9.1v-1.6c2.4-0.1,3-1.4,3.7-3.4l9-24.9h4l9.1,25.5c0.7,2,1.2,2.7,2.2,2.7
		c1,0,1.5-0.9,2.5-3.4l8.8-24.8h4l8.5,23.6c0.8,2.2,1.1,3.2,1.6,3.7c0.4,0.7,1.1,0.9,2.2,1v1.6H205.3L205.3,219.6z M201.1,195.8
		l-4.2,12.3h8.2L201.1,195.8L201.1,195.8z M174.6,195.8l-4.2,12.3h8.2L174.6,195.8L174.6,195.8z"/>
	<path class="st1" d="M262.6,188.6l-5.1-4.3l7.1-3.9L262.6,188.6L262.6,188.6z M228.3,189.6H257l-28.8,30V189.6L228.3,189.6z
		 M242.3,219.6l16-30v30H242.3L242.3,219.6z"/>
</g>
</svg>
