<?xml version="1.0" encoding="utf-8"?>
<!-- Generator: Adobe Illustrator 19.1.0, SVG Export Plug-In . SVG Version: 6.00 Build 0)  -->
<svg version="1.1" id="Layer_1" xmlns="http://www.w3.org/2000/svg" xmlns:xlink="http://www.w3.org/1999/xlink" x="0px" y="0px"
	 viewBox="0 0 400 400" style="enable-background:new 0 0 400 400;" xml:space="preserve">
<style type="text/css">
	.st0{fill:#2E343F;}
	.st1{fill-rule:evenodd;clip-rule:evenodd;fill:#2E343F;}
</style>
<g>
	<path class="st0" d="M223.6,182.6h36.1v34.9h-36.1V182.6z M246.3,187.4c-0.2,0-0.3-0.1-0.5-0.1l-0.2,0c-0.3,0-0.6-0.1-0.8-0.1
		c-0.2,0-0.4,0-0.6,0c-0.3,0-0.7,0-1,0c-0.2,0-0.2,0-0.4,0c-0.3,0-0.5,0-0.8,0c-0.1,0-0.3,0-0.4,0c-0.2,0-0.4,0-0.6,0.1l-0.2,0
		l-0.2,0l-0.2,0c-0.1,0-0.2,0-0.3,0.1c-0.1,0-0.3,0.1-0.4,0.1c-0.9,0.2-1.7,0.4-2.4,0.7c-0.4,0.1-0.7,0.3-1.1,0.5
		c-0.3,0.1-0.6,0.3-0.8,0.5c-0.3,0.2-0.5,0.3-0.7,0.5c-0.1,0.1-0.3,0.2-0.4,0.3c-0.1,0.1-0.2,0.2-0.3,0.2c-0.2,0.2-0.5,0.4-0.7,0.6
		c-0.2,0.2-0.4,0.4-0.6,0.5c-0.2,0.2-0.3,0.3-0.4,0.5c-0.1,0.2-0.3,0.3-0.4,0.5c-0.2,0.2-0.3,0.4-0.4,0.6c-0.1,0.2-0.2,0.3-0.3,0.5
		c-0.1,0.1-0.1,0.2-0.2,0.3c-0.4,0.6-0.7,1.3-1,2c-0.3,0.9-0.6,1.9-0.7,2.9c0,0.3-0.1,0.7-0.1,1c0,0.3,0,0.5,0,0.8
		c0,0.2,0,0.4,0,0.6c0,0.2,0,0.4,0,0.6l0,0.1c0,0.2,0.1,0.5,0.1,0.7c0,0.1,0,0.2,0.1,0.3c0,0.2,0.1,0.4,0.1,0.6
		c0.1,0.2,0.1,0.5,0.2,0.7c0.1,0.3,0.2,0.6,0.3,0.8c0.2,0.4,0.4,0.8,0.6,1.2c0.1,0.2,0.2,0.5,0.4,0.7c0.1,0.2,0.2,0.3,0.3,0.5
		c0.1,0.2,0.3,0.4,0.4,0.6c0.2,0.2,0.3,0.4,0.5,0.6c0.2,0.2,0.4,0.4,0.6,0.6l0.1,0.1c0.2,0.1,0.3,0.3,0.5,0.5
		c0.1,0.1,0.3,0.2,0.4,0.4c0.1,0.1,0.3,0.2,0.4,0.3c0.2,0.1,0.4,0.3,0.6,0.4c0.2,0.1,0.4,0.3,0.7,0.4c0.5,0.3,1,0.5,1.6,0.8
		c0.2,0.1,0.4,0.2,0.7,0.3c0.2,0.1,0.5,0.2,0.7,0.2c0.4,0.1,0.9,0.2,1.3,0.3c0.4,0.1,0.8,0.1,1.1,0.2c0.4,0,0.8,0.1,1.2,0.1
		c0.2,0,0.4,0,0.6,0h0.3c0.8,0,1.5,0,2.1-0.1l0.1,0c0.3,0,0.5,0,0.8-0.1c0.4,0,0.7-0.1,1.1-0.2c0.2,0,0.4-0.1,0.6-0.1
		c0.3-0.1,0.6-0.1,0.9-0.2c0.2-0.1,0.4-0.1,0.6-0.2c0.2-0.1,0.5-0.1,0.7-0.2l0.2-0.1c0.1,0,0.2-0.1,0.4-0.2c0.2-0.1,0.5-0.2,0.8-0.3
		c0.2-0.1,0.4-0.2,0.6-0.3c0.2-0.1,0.4-0.2,0.6-0.3c0.1,0,0.2-0.1,0.2-0.1v-4.8c0,0-0.1,0.1-0.2,0.1l-0.3,0.2
		c-0.3,0.2-0.6,0.4-0.9,0.6c-0.3,0.2-0.7,0.4-1,0.5c-0.6,0.3-1.1,0.5-1.7,0.7c-1,0.4-1.9,0.6-2.8,0.8c-0.1,0-0.2,0-0.3,0.1
		c-0.2,0-0.4,0.1-0.6,0.1c-0.3,0-0.6,0.1-0.9,0.1c-0.2,0-0.3,0-0.5,0c-0.3,0-0.7,0-1,0c-0.4,0-0.8-0.1-1.2-0.1
		c-0.7-0.1-1.3-0.3-2-0.5c-0.1,0-0.2-0.1-0.3-0.1c-0.1,0-0.1-0.1-0.2-0.1c-0.1,0-0.2-0.1-0.3-0.1c-0.2-0.1-0.5-0.2-0.7-0.4
		c-0.1-0.1-0.2-0.1-0.3-0.2c-0.1-0.1-0.2-0.1-0.3-0.2c-0.1-0.1-0.3-0.2-0.4-0.3c-0.1-0.1-0.3-0.2-0.4-0.3l-0.2-0.1l-0.1-0.1l0,0
		l-0.1-0.1c-0.2-0.2-0.4-0.4-0.6-0.6c-0.1-0.1-0.2-0.2-0.3-0.4c-0.1-0.1-0.2-0.2-0.2-0.4c-0.1-0.1-0.1-0.2-0.2-0.3
		c-0.1-0.2-0.2-0.3-0.3-0.5c-0.1-0.1-0.1-0.3-0.2-0.4c-0.1-0.2-0.2-0.5-0.3-0.7c-0.1-0.2-0.1-0.4-0.1-0.5c-0.1-0.5-0.2-1-0.2-1.3
		c0-0.1,0-0.3,0-0.4c0-0.2,0-0.4,0-0.5c0-0.1,0-0.2,0-0.3c0-0.3,0-0.6,0.1-1c0-0.2,0.1-0.5,0.1-0.8c0-0.2,0.1-0.4,0.1-0.5
		c0.1-0.2,0.1-0.3,0.2-0.5c0-0.1,0.1-0.2,0.1-0.4c0.1-0.2,0.1-0.3,0.2-0.5c0.1-0.1,0.1-0.2,0.2-0.4c0.2-0.3,0.3-0.5,0.5-0.8
		c0.1-0.1,0.1-0.2,0.2-0.3c0.1-0.1,0.2-0.2,0.3-0.4c0.1-0.1,0.1-0.1,0.2-0.2c0.9-0.9,1.8-1.5,2.8-2c0.2-0.1,0.3-0.1,0.5-0.2
		c0.2-0.1,0.3-0.1,0.5-0.2c0.2-0.1,0.3-0.1,0.5-0.2c0.2,0,0.3-0.1,0.5-0.1c0.2,0,0.3-0.1,0.5-0.1c0.2,0,0.4-0.1,0.5-0.1
		c0.2,0,0.4,0,0.5-0.1c0.3,0,0.7-0.1,1-0.1h0.3c0.2,0,0.5,0,0.7,0c0.2,0,0.3,0,0.5,0c0.3,0,0.6,0.1,0.8,0.1c0.2,0,0.5,0.1,0.7,0.1
		c0.3,0.1,0.6,0.1,0.9,0.2c0.2,0.1,0.3,0.1,0.5,0.1c0.2,0.1,0.4,0.1,0.6,0.2c0.3,0.1,0.4,0.1,0.4,0.1c0.2,0.1,0.5,0.2,0.7,0.3
		c0.3,0.1,0.6,0.2,0.8,0.4c0.2,0.1,0.4,0.2,0.6,0.3c0.2,0.1,0.3,0.2,0.5,0.2c0.2,0.1,0.5,0.3,0.6,0.4l0.5,0.3v-4.7
		c0,0-0.3-0.1-0.8-0.3c-0.2-0.1-0.5-0.2-0.8-0.3c-0.2-0.1-0.3-0.1-0.5-0.2c-0.1,0-0.3-0.1-0.4-0.2c-0.2-0.1-0.4-0.1-0.5-0.2
		c-0.1,0-0.3-0.1-0.4-0.1l-0.1,0c-0.1,0-0.3-0.1-0.4-0.1c-0.2,0-0.3-0.1-0.5-0.1c-0.1,0-0.2-0.1-0.3-0.1c-0.2,0-0.4-0.1-0.6-0.1
		C246.7,187.5,246.5,187.5,246.3,187.4"/>
	<path class="st0" d="M195.8,201.8v6.9h4.3c0,0,0.1,0,0.2,0c0.1,0,0.3,0,0.6,0c0.5,0,1.1-0.1,1.7-0.3c0.5-0.2,1.1-0.5,1.5-0.9
		c0.2-0.2,0.3-0.3,0.4-0.5c0.3-0.5,0.4-1.1,0.4-1.4c0-0.1,0-0.2,0-0.2s0-0.1,0-0.2c0-0.1,0-0.4-0.1-0.7c-0.1-0.3-0.2-0.7-0.5-1
		c0-0.1-0.1-0.1-0.2-0.2c-0.1-0.1-0.2-0.2-0.4-0.3c-0.2-0.2-0.5-0.3-0.8-0.5c-0.4-0.2-0.8-0.3-1.3-0.4c-0.2,0-0.5-0.1-0.8-0.1
		c-0.2,0-0.3,0-0.5,0c-0.1,0-0.3,0-0.5,0H195.8z"/>
	<path class="st0" d="M195.8,191.4v6.5h2.1c0,0,0.1,0,0.3,0c0.1,0,0.3,0,0.5,0c0.4,0,1-0.1,1.6-0.3c0.1,0,0.2-0.1,0.3-0.1
		c0.5-0.2,0.9-0.4,1.3-0.8c0.3-0.3,0.5-0.6,0.6-0.9c0.1-0.4,0.2-0.7,0.2-1c0-0.2,0-0.4,0-0.4s0-0.1,0-0.3c0-0.3-0.1-0.7-0.3-1.2
		c-0.1-0.2-0.2-0.4-0.4-0.6c-0.2-0.2-0.5-0.4-0.8-0.6c-0.6-0.3-1.3-0.4-1.8-0.4c-0.2,0-0.5,0-0.7,0H195.8z"/>
	<path class="st0" d="M181.9,182.6h36.1v34.9h-36.1V182.6z M191.4,187.5v25.1h9.2c0,0,4.5,0.1,7-2.4c2-2.1,1.9-4.5,1.9-4.5
		s0.1-2.5-1.7-4.4c-1.6-1.6-3.6-2.1-3.6-2.1s0.9-0.4,1.6-1.2c0.3-0.3,1.5-1.4,1.5-4.1c0-2.7-1.7-4.2-1.7-4.2s-1.9-2.3-6.2-2.3H191.4
		z"/>
	<path class="st0" d="M154.2,201.8v6.9h4.3c0,0,0.1,0,0.2,0c0.1,0,0.3,0,0.6,0c0.5,0,1.1-0.1,1.7-0.3c0.5-0.2,1.1-0.5,1.5-0.9
		c0.2-0.2,0.3-0.3,0.4-0.5c0.3-0.5,0.4-1.1,0.4-1.4c0-0.1,0-0.2,0-0.2s0-0.1,0-0.2c0-0.1,0-0.4-0.1-0.7c-0.1-0.3-0.2-0.7-0.5-1
		c-0.1-0.1-0.1-0.1-0.2-0.2c-0.1-0.1-0.2-0.2-0.4-0.3c-0.2-0.2-0.5-0.3-0.8-0.5c-0.4-0.2-0.8-0.3-1.3-0.4c-0.2,0-0.5-0.1-0.8-0.1
		c-0.2,0-0.3,0-0.5,0c-0.1,0-0.3,0-0.5,0H154.2z"/>
	<path class="st0" d="M154.2,191.4v6.5h2.1c0,0,0.1,0,0.3,0c0.1,0,0.3,0,0.5,0c0.4,0,1-0.1,1.6-0.3c0.1,0,0.2-0.1,0.4-0.1
		c0.5-0.2,0.9-0.4,1.3-0.8c0.3-0.3,0.5-0.6,0.6-0.9c0.1-0.4,0.2-0.7,0.2-1c0-0.2,0-0.4,0-0.4s0-0.1,0-0.3c0-0.3-0.1-0.7-0.3-1.2
		c-0.1-0.2-0.3-0.4-0.4-0.6c-0.2-0.2-0.5-0.4-0.8-0.6c-0.6-0.3-1.3-0.4-1.8-0.4c-0.2,0-0.5,0-0.7,0H154.2z"/>
	<path class="st0" d="M140.3,182.6h36.1v34.9h-36.1V182.6z M149.8,187.5v25.1h9.2c0,0,4.5,0.1,7-2.4c2-2.1,1.9-4.5,1.9-4.5
		s0.1-2.5-1.7-4.4c-1.6-1.6-3.6-2.1-3.6-2.1s0.9-0.4,1.6-1.2c0.3-0.3,1.5-1.4,1.5-4.1c0-2.7-1.7-4.2-1.7-4.2s-1.9-2.3-6.2-2.3H149.8
		z"/>
</g>
</svg>
