<?xml version="1.0" encoding="utf-8"?>
<!-- Generator: Adobe Illustrator 19.1.0, SVG Export Plug-In . SVG Version: 6.00 Build 0)  -->
<svg version="1.1" id="Layer_1" xmlns="http://www.w3.org/2000/svg" xmlns:xlink="http://www.w3.org/1999/xlink" x="0px" y="0px"
	 viewBox="0 0 400 400" style="enable-background:new 0 0 400 400;" xml:space="preserve">
<style type="text/css">
	.st0{fill:#2E343F;}
	.st1{fill-rule:evenodd;clip-rule:evenodd;fill:#2E343F;}
</style>
<g>
	<g>
		<polygon class="st0" points="81.7,197.1 77.7,197.1 81.7,197.1 		"/>
		<polygon class="st0" points="84.9,192.5 83.4,192.5 83.4,192.5 83.4,192.5 		"/>
		<polygon class="st0" points="95.6,195 94.7,195 95.6,195 		"/>
		<path class="st0" d="M82.6,194.9l-0.3,0.1h0c-0.4,0.2-0.6,0.4-0.6,0.5l0,0l0.1,0l0,0c0.2-0.2,0.5-0.3,0.6-0.4l0.1-0.1l0.7,0h-0.7
			L82.6,194.9z"/>
		<path class="st0" d="M91.8,186c-9.5,0-17.1,6.1-17.1,13.7c0,7.6,7.7,13.7,17.1,13.7c9.5,0,17.1-6.1,17.1-13.7
			C108.9,192.1,101.2,186,91.8,186z M94.6,190.6c0,0,0.2-0.1,0.5-0.2c0.6-0.2,1.7-0.6,2.1-0.6c0.3,0,1.1-0.1,1.1-0.1
			c1.4-0.1,2.6,0.2,3.6,0.7l0.1,0L94.6,190.6L94.6,190.6z M94.6,190.8l2.9,0.1l5.7,0.2c0.3,0.2,0.6,0.4,0.9,0.7l-7.6,0.2l-3.5,0.1
			l0.1-0.1c0.1-0.1,0.3-0.1,0.6-0.2c0.1-0.2-0.2-0.3-0.7,0c-0.1-0.1-0.4-0.4-0.3-0.6c0.1-0.1,0.2-0.2,0.2-0.3l0-0.1l1,0l0.1,0.1
			c0.1,0,0.2,0.1,0.3,0.1L94.6,190.8L94.6,190.8z M91.5,190.9c0.2-0.2,0.3-0.4,0.4-0.5c0.2-0.3,0.2-0.5,0.7-0.6
			c0.8-0.1,1.6,0.5,1.8,0.6l0,0c0.2,0.1,0,0.3-0.2,0.2c-0.2-0.1-0.5-0.2-0.5,0l0,0.1l-0.9,0c0-0.2-0.2-0.2-0.3,0l-0.7,0l0.6,0l0,0
			l0,0.1c0,0.1-0.2,0.2-0.3,0.3c-0.1,0.2,0.3,0.5,0.1,0.7l-0.2,0.1v0l-0.5,0l0.5,0c0,0.2,0,0.3-0.1,0.4c-0.1,0.2-0.3,0.2-0.3,0
			l0-0.1c-0.1-0.1-0.2-0.4-0.2-0.4v0l-0.1,0c-0.1,0.1-0.4,0.3-0.5,0.1l-0.1-0.1C90.8,191.7,90.9,191.1,91.5,190.9L91.5,190.9z
			 M84,188.8c0.2-0.1,0.5-0.2,1-0.3c0.2-0.1,0.4-0.1,0.6-0.2l1.1,0l-0.7,0.3c-0.2,0.1-0.3,0.1-0.5,0.2l-0.5,0.3l-0.2,0.2l-1.1-0.1
			C83.5,189.1,83.6,188.9,84,188.8z M85.2,193.7c0.2,0,0.2,0.3,0.2,0.3l0.1,0l-0.1,0.2l-0.2-0.1c-0.1,0.1-0.1,0-0.2-0.1
			c-0.1,0-0.2,0-0.3,0l0-0.1l0,0c0-0.1,0.1-0.3,0.3-0.5l0.1-0.1c0.2-0.1,0.2-0.1,0.1,0l0,0.1l-0.1,0.1
			C85.1,193.7,85.1,193.7,85.2,193.7z M80.8,190.4c0.5-0.4,1.2-0.6,1.2-0.6l0,0l3.1-0.1c0.2,0.2,0.3,0.5,0.2,0.7l-0.1,0.2l-0.6,0
			l0-0.2c-0.1-0.1-0.3-0.2-0.3-0.2c-0.2,0-0.3,0.1-0.3,0.2l0,0.2L80.8,190.4L80.8,190.4z M84.3,191L84.3,191l0.1-0.1l0.6,0l0,0.1
			c0.1,0.3-0.1,0.5-0.6,0.5C83.8,191.5,83.5,191.3,84.3,191z M84.3,191.9L84.3,191.9l0,0.1l-0.9,0l0,0c0.3-0.4,0.6-0.5,0.9-0.4
			C84.5,191.7,84.3,191.8,84.3,191.9z M80.1,191.1l3.5-0.2c-0.4,0.2-0.8,0.4-1.2,0.8l-0.2,0.2l-2.9-0.1
			C79.5,191.5,79.8,191.3,80.1,191.1z M78.2,193c0.1-0.2,0.3-0.3,0.4-0.5l0.1-0.1l3.3-0.2l0,0.3l-3.3,0h3.3c0,0.3,0.3,0.5,0.7,0.5
			l0,0c0,0.1,0,0.1-0.1,0.3l-4.2-0.2l-0.2,0l-0.1,0L78.2,193z M77.8,197.6l3.7-0.2l-3.7-0.2v-0.1c0-0.2,0-0.3,0-0.5l0-0.3l4.1-0.2
			l0.3,0l-4.3-0.2l0-0.3c0-0.2,0.1-0.3,0.1-0.5l0,0l3.6-0.2l-0.1,0.2c-0.1,0.2-0.1,0.3-0.2,0.5l0,0h0c0,0,0.1-0.1,0.1-0.2
			c0,0,0.1-0.2,0.1-0.3l0.2,0h-0.2l0.1-0.2l0.2,0l0,0l-0.1,0.2l0,0.2l0.1-0.1l0-0.1l0,0l0.1-0.1l0.2,0l0-0.2l1.2-0.1l-1.3-0.1
			c-0.2,0-0.2-0.1-0.2-0.1l-0.1-0.2c-0.2-0.4-0.6,0.1-0.6,0.1l-0.1,0.1l0,0l0,0.1l-2.1-0.1l-1.1-0.1c0-0.2,0.1-0.3,0.1-0.5l0.1-0.3
			l4.1-0.2l0.2,0v0l0,0.1c0,0.1,0.2,0.2,0.2-0.1l0,0l2.1-0.1l-2-0.1c0-0.1,0-0.2,0.1-0.3l0.1-0.1c0.3-0.1,0.4-0.3,0.4-0.4
			c0-0.1,0-0.2-0.1-0.3l0,0l1-0.1c0,0,0.1,0.1,0.2,0l0,0l0.3,0l-0.2,0l0.1-0.1c0.1-0.1,0.2-0.3,0.2,0l0,0.1c0,0.2,0,0.3,0,0.4
			c0.1,0.2,0.3,0.4,0.3,0.5c0.1,0.1,0.1,0.2,0,0.3c-0.2,0.1-0.3,0.2-0.5,0.2c-0.3,0.2-0.5,0.3-0.6,0.5c-0.1,0.2-0.2,0.3-0.1,0.5
			l0.1,0.1l-0.1,0l-0.1,0c-0.3,0-0.4,0.2-0.5,0.4v0c0,0.2-0.2,0.3-0.4,0.5l-0.3,0.2c0,0-0.4,0.1-0.5,0.4l0,0.1
			c0,0.1,0.1,0.3,0.1,0.4c0,0.1-0.1,0.2-0.3,0.3l-0.2,0.2h0c-0.1,0.1-0.1,0.2-0.2,0.3l0,0.1l-0.1,0.3l0,0.6c0,0.2,0,0.3-0.1,0.3
			c-0.2,0-0.1-0.3-0.2-0.4v-0.1l0-0.4c-0.2-0.1-0.3-0.1-0.5-0.1c-0.1,0,0,0.2-0.2,0.3c-0.1,0-0.2-0.2-0.4-0.1
			c-0.2,0.1-0.4,0.4-0.4,0.5l0,0.2l-1.7-0.1C77.9,198.2,77.8,197.9,77.8,197.6z M81.3,194.6l0.1-0.1l0.1,0l0.1,0l0,0.1L81.3,194.6z
			 M80.5,199.7l-0.1,0.2l0,0.1l-0.3,0c0,0,0-0.1,0.1-0.2c0.1-0.1,0.1-0.3,0.3-0.3C80.5,199.4,80.5,199.5,80.5,199.7z M78.5,199.8
			l-0.1-0.2c-0.1-0.3-0.2-0.5-0.3-0.8l1.5-0.1l-0.1,0.1c0,0-0.1,0.4-0.1,0.8l0,0.2L78.5,199.8z M79.8,201.2L79.8,201.2l-0.1-0.1
			l-0.3-0.1c-0.1-0.1,0.4-0.4,0.4-0.5l-0.1,0l-0.3,0c-0.1,0-0.3,0-0.6-0.3l1.6-0.1c0,0.1-0.1,0.3-0.2,0.4c0.3-0.2,0.5,0,0.3,0.1
			l-0.2,0.2c0,0.1,0,0.2,0,0.3l0,0.1L79.8,201.2L79.8,201.2z M86.3,205.1l-0.2,0.2v0c-0.1,0.1,0,0.3,0.1,0.7c0.1,0.2,0,0.6-0.2,0.8
			L86,207c-0.2,0.2-0.6,0.2-0.6,0.6c0,0.3,0,0.6-0.1,0.8l-0.1,0.1c-0.6,0.3-0.9,0.8-0.4,1.6c0,0.3-0.3,0.4-0.8,0.1
			c-0.3-0.2-0.6-0.5-0.8-0.9l1.2-0.1l-1.3-0.1c-0.1-0.2-0.2-0.5-0.3-0.8l-0.1-0.3l2.6-0.1l-2.6-0.2c0-0.2-0.1-0.4-0.1-0.6l0-0.3
			l0-0.1l3.4-0.1l-3.5-0.2l0-0.3c-0.5-0.2-0.8-0.4-1.1-0.7l4.6-0.2l0.1,0l-5.1-0.2c-0.3-0.3-0.4-0.6-0.5-0.9L86,204l-5.4-0.2
			c0-0.2,0-0.3,0.1-0.5c0-0.1,0.1-0.3,0.2-0.4l3.3-0.1l-3.1-0.1c0-0.1,0-0.2,0-0.3v0c-0.5-0.1-0.9-0.3-1-0.6l-0.1-0.2l0.3,0
			c0.1,0.3,0.4,0.4,0.7,0.4c0.1,0,0.2-0.1,0.3-0.3c0.3-0.4,1,0.1,1.2,0.1c0.2-0.1,0.3-0.1,0.3,0c0,0.2,0.4,0.5,1,0.7l-2.8,0h2.8
			l0.2,0.1c0.1,0.4,0.3,0.7,0.6,1c0.3,0.3,0.8,0.5,1.1,0.5C86.6,203.9,86.7,204.7,86.3,205.1z M87.5,190.9c-0.1,0.2-0.2,0.4-0.4,0.7
			c-0.4,0.1-0.7-0.3-0.7-0.7l0-0.1l1.1-0.1l-1.1-0.1c0-0.1,0.1-0.2,0.1-0.3l0.2-0.2c0.3-0.2,0.4-0.4,0.4-0.6l3-0.1l-3.1-0.1
			c-0.1-0.2-0.4-0.3-0.7-0.3l-0.4,0.1c-0.3,0.1-0.4-0.1-0.2-0.2c0.5-0.3,1.1-0.5,1.8-0.7l3.6-0.1l-2.5-0.1c0.2,0,0.4-0.1,0.6-0.1
			c0.4,0,1.2-0.1,2.1,0.1l-0.1,0.1l-0.4,0.2c-0.7,0.4-0.4,1.3-1.2,1.6l-0.1,0c-0.6,0.1-1.1,0.3-1.5,0.5c-0.2,0.1-0.3,0.2-0.4,0.3
			C87.6,190.7,87.6,190.8,87.5,190.9z M90.2,193.5l-0.2,0l0,0l-0.1,0l-0.1,0c-0.2,0-0.2,0.1-0.3,0.2l-0.1,0l0.1-0.1
			c0-0.1,0.1-0.1,0.2-0.1l0-0.1l-0.1,0l-0.1-0.1l0.1-0.1V193l0-0.1l0.1,0v-0.1l-0.1,0c-0.1,0-0.1-0.1-0.1-0.2v0l0,0
			c-0.1,0-0.1,0-0.1-0.1l0.1-0.2l0.1-0.2c0.1-0.1,0.2-0.1,0.2,0l0,0l0,0.1c0.1,0,0.1,0,0.1,0.1l-0.1,0.2l0,0.1l0,0l-0.3,0h0.3
			c0.2,0.2,0.3,0.4,0.3,0.5v0c0.2,0,0.2,0.1,0.1,0.3l-0.1,0.1C90.4,193.4,90.2,193.5,90.2,193.5z M89.1,193L89.1,193l0-0.1v-0.1
			l0.1,0l0-0.1c0.2-0.1,0.3,0.1,0.3,0.2l-0.1,0.1l0,0.1c0,0.1,0,0.3-0.3,0.4l-0.2-0.1C89,193.2,89.1,193.2,89.1,193L89.1,193z
			 M95.2,208.3L95.2,208.3c-0.1,0.2-0.2,0.1-0.3,0.1l0,0c-0.1-0.1-0.1-0.2-0.1-0.3l0.5,0C95.3,208.2,95.2,208.3,95.2,208.3z
			 M95.7,206.8l0,0.1c-0.1,0.3-0.2,0.6-0.3,0.9l-0.5,0c0.1-0.4,0.3-0.8,0.4-0.9l0-0.1l0.1-0.1L95.7,206.8L95.7,206.8z M96.2,202.2
			c0,0.1,0,0.2-0.1,0.3l-7.4,0.2l7.2,0.1c-0.1,0.1-0.2,0.3-0.3,0.4c-0.2,0.2-0.3,0.4-0.5,0.7l-4,0.1l3.8,0.1c-0.3,0.4-0.5,0.7-0.5,1
			l0,0.1l-2.9,0.1l0.3,0l2.6,0.1c0.1,0.5,0.2,0.9,0.1,1.2l-3.1,0.1l3.1,0.1l0,0.1c-0.1,0.2-0.3,0.3-0.5,0.4l-0.1,0.5l0,0.1l-2.2,0.1
			L94,208c0,0.1-0.1,0.3-0.2,0.4c-0.2,0.3-0.4,0.7-0.7,0.9l-1.1,0l1,0c-0.3,0.2-0.5,0.2-0.8,0.2l-0.2-0.2c-0.1-0.2-0.2-0.6-0.2-0.9
			c0-0.1,0-0.3-0.1-0.4c-0.1-0.3-0.1-0.6-0.3-0.9l0-0.2c0-0.2,0.1-0.4,0.3-0.7c0-0.4,0-0.6-0.1-0.9c0-0.1-0.1-0.3-0.2-0.4
			c-0.4-0.4-0.5-0.9-0.2-1.5l-0.2-0.2c-0.4-0.3-0.9-0.4-0.9-0.3c0,0-0.4,0.3-0.7,0.3h-0.2l-0.1,0c-0.3-0.2-0.6-0.5-0.8-1h0
			c-0.2-0.3-0.3-0.7-0.4-1l0-0.1c0-0.2,0-0.7,0-0.9c0-0.2,0.1-0.4,0.1-0.5c0.1-0.4,0.2-0.8,0.4-1c0.3-0.5,0.5-0.3,0.6-1.1
			c0-0.1,0-0.2,0.2-0.2l0.1-0.2c0.1-0.3,0-0.6,0.5-0.3c0.1,0.1,0.2-0.1,0.3-0.3l0.2-0.1c0.2-0.1,0.8-0.1,1.1,0l0,0.1
			c-0.1,0.2-0.1,0.4,0,0.5l0.1,0.2l-2.3,0l2.4,0.1c0.2,0.2,0.4,0.3,0.8,0.4c0.3,0,0.1-0.3,0.2-0.4l0.3,0c0.2,0.1,0.5,0.3,0.9,0.3
			c0.1,0,0.3-0.1,0.4-0.2l9.7,0.2c0,0.2,0,0.5,0,0.7l-7.7,0.2c-0.1-0.1-0.1-0.2-0.2-0.4c0-0.1-0.3-0.3-0.3,0c0,0.1,0.1,0.3,0.1,0.4
			l-7.3,0.1l5.6,0.1l0.2,0.9l0.1,0.2l-6.4,0.1l6.4,0.1l0.2,0.8l0.1,0.2h0l-6.8,0.1l6.9,0.1c0.2,0.2,0.4,0.4,0.6,0.5
			c0.1-0.2,0.4-0.3,0.5-0.2C96.2,202,96.2,202.1,96.2,202.2l-3.9,0L96.2,202.2z M92,196.2L92,196.2l0.2-0.1l-0.1,0.3
			C92,196.4,91.9,196.4,92,196.2z M92.7,196.2L92.7,196.2l0.3-0.1l0.1,0.2c0,0.1-0.3,0.3-0.4,0.1C93,196.2,92.7,196.2,92.7,196.2z
			 M94.9,195.3l-0.3-0.2c-0.2-0.1-0.4-0.2-0.6-0.1l-0.1-0.1l1.6,0l0,0.2h0c0.1,0.2,0.2,0.4,0.3,0.5c0.1,0.1,0.1,0.2,0.1,0.2
			l-0.1,0.2l-2.6,0.1c0-0.1,0.1-0.3,0.3-0.4l0.1-0.1c0.2-0.1,0.4-0.1,0.7,0c0.1,0,0.2,0.1,0.3,0.1c0.1,0.1,0.2,0,0.3-0.1L94.9,195.3
			z M95.8,196.2c0,0.2,0.1,0.3,0.2,0.4l0.2,0.1l0.1-0.1l0.1-0.4l7.2,0.1l0.1,0.2l0,0.1c0.1,0.1,0.1,0.2,0.1,0.4h-0.1l-9.4,0.2
			l0.1-0.2c0.1-0.3,0-0.5-0.3-0.4c-0.2,0-0.4,0-0.6-0.1c-0.2-0.1-0.3-0.3-0.3-0.4L95.8,196.2z M97,200.3c-0.2,0.3-0.5,0.6-0.8,0.9
			l-0.8,0l-0.1-0.2l-0.3-0.9l2,0L97,200.3z M97.1,199.8l-2.3,0l-0.1-0.2l-0.3-0.8l1.5,0c0.1,0.3,0.3,0.4,0.8,0.4
			c0.2,0.1,0.3,0.2,0.3,0.4L97.1,199.8z M99.6,202l-0.2,0.2c-0.1,0.1-0.3,0.2-0.5,0.2l0-0.2c0-0.2-0.1-0.5-0.1-0.7l0.9,0
			C99.7,201.7,99.7,201.8,99.6,202z M99.7,201l0,0.1l-1,0c-0.1-0.4-0.2-0.7-0.2-0.9l1.9,0C100.2,200.5,100,200.7,99.7,201z
			 M100.6,199.7l-0.1,0.1l-2.2,0l-0.1-0.2c-0.1-0.2-0.2-0.4-0.4-0.5c-0.5,0-0.9-0.1-1.2-0.3l7.2,0.1c-0.1,0.3-0.3,0.5-0.5,0.7
			l-0.1,0.1l-2.2,0.1l0-0.1C100.9,199.5,100.8,199.5,100.6,199.7z M103.1,203.6L103.1,203.6l-0.9,0.1l0-0.1c0-0.3,0.2-0.3,0.3-0.4
			c0.1,0,0.2-0.1,0.3-0.2l0-0.1l0.3,0c-0.1,0.1-0.1,0.2-0.1,0.3C103.1,203.4,103.1,203.5,103.1,203.6z M101,201.1
			c0-0.3-0.1-0.5,0-0.7l0-0.2l1.7,0c0,0.2,0.1,0.4,0.3,0.7l0,0L101,201.1z M102.9,201.6c-0.2,0.4-0.6,0.3-0.7,0.2l-0.1-0.2
			L102.9,201.6z M101.7,201.6L101.7,201.6c0,0.2,0,0.4,0,0.6l0,0.2l-0.5,0l0-0.2c0-0.2-0.1-0.4-0.1-0.6L101.7,201.6z M101.9,202.9
			c0,0.1,0,0.2,0,0.3c0,0.1,0,0.2-0.1,0.2c-0.1,0-0.2-0.1-0.2-0.2c0-0.1-0.1-0.2-0.1-0.3L101.9,202.9z M101.8,204.2
			c0,0.4-0.3,0.4-0.4,0.2l-0.1-0.2L101.8,204.2z M101.7,204.7c0.2,0,0.5,0.1,0.5,0.1l0.6,0.3l-0.9,0c-0.2-0.1-0.3-0.1-0.3-0.1
			C101.5,204.8,101.7,204.6,101.7,204.7z M102.8,204.5c-0.1,0.1-0.4,0.1-0.4-0.1l0-0.1l0.6,0C102.8,204.4,102.8,204.5,102.8,204.5z
			 M100.9,202.9l0.4,0c0,0.1,0.1,0.2,0.2,0.3c0.1,0.2,0.2,0.3,0.2,0.5l-0.5,0c-0.1-0.2-0.1-0.4-0.2-0.5c0-0.1-0.1-0.2-0.1-0.2
			L100.9,202.9z M101.7,208.4c-0.3,0.1-0.5,0.3-0.5,0.3c-0.1,0.1-0.3,0.1-0.3-0.1l0.2-0.2l0,0l0-0.2l0.9,0
			C101.9,208.3,101.8,208.3,101.7,208.4z M103.3,208.4l-0.2,0.3c0,0-0.3,0.2-0.5,0.3l-0.1-0.1c0-0.1,0.1-0.4,0.1-0.4l-0.2,0
			l-0.1-0.1l1.1,0L103.3,208.4z M104,207.2c0,0,0,0.1-0.2,0.4l-2.7,0.1c0.1-0.3,0.3-0.6,0.5-0.8l2.4,0.1L104,207.2z M104,206.2
			l0,0.1l-1.8,0.1c0.1-0.2,0.2-0.3,0.7-0.6l0.3-0.2l0.3,0l-0.2,0.3c0.1,0.1,0.2,0.2,0.2,0.4l0.3-0.7l0.2,0
			C104.1,205.8,104,206,104,206.2z M104.8,195.5l-0.1,0.2l-8.5,0.2c0-0.1,0-0.2,0.2-0.1c0.2,0,0.1-0.2,0-0.3l-0.1-0.1
			c0,0-0.3-0.2-0.4-0.4l0-0.1l0.1-0.2l0.2,0c0.1,0.1,0.2,0.1,0.2,0l7.6,0.2l0.9,0C104.9,195.2,104.8,195.4,104.8,195.5z M91.1,193.4
			l3.6,0.1l9.6,0.2c0.1,0.1,0.2,0.2,0.3,0.3c0.1,0.1,0.2,0.3,0.2,0.4l-5.5,0.1l-3.1,0.1l-0.1-0.1l0,0c-0.2-0.1-0.3-0.1-0.5,0
			l-0.1,0.1l-0.9,0l0-0.1l0,0l-0.3-0.1c-0.1,0-0.3,0-0.4,0.1l-0.2,0.1l-3.3,0.1l3.2,0.1l-0.1,0.2h0l0,0.2c0,0.2,0.1,0.3,0,0.4l0,0
			c-0.1,0.1-0.2,0.2-0.2,0.2l-0.1-0.1c-0.1,0.1-0.2,0.2-0.3,0.3l0.1,0.1l-0.4,0c-0.1-0.1-0.1-0.3-0.1-0.5l0-0.1
			c-0.5-0.3-0.5-0.4-0.5-0.4l0,0c0-0.1-0.1-0.4-0.4-0.1l0.1,0.1h0c0.2,0.2,0.2,0.4,0.4,0.5l-0.4,0h0.4l0,0l0.2,0.4l-0.1-0.1l0,0.2
			l-0.2,0l0-0.1c-0.1-0.3-0.2-0.3-0.3-0.4l0,0c-0.1-0.1-0.1-0.3-0.2-0.5l0.1,0l-0.1,0c-0.1-0.1-0.1-0.1-0.3,0l-0.1,0.1l-0.2,0.1
			c-0.2-0.1-0.3,0-0.2,0.2l-0.1,0.1l-0.1,0.1c-0.3,0.3-0.3,0.4-0.3,0.5l0,0l-0.2,0.2l-0.1,0.2c-0.1,0-0.2,0-0.3,0l-0.1,0l0,0
			l-0.2-0.1c0,0-0.2,0.1-0.2-0.1l0-0.2l0-0.1c0-0.1,0.1-0.3,0.1-0.5l0-0.2c-0.1-0.2-0.1-0.3,0.2-0.3c0,0,0.4,0.1,0.6,0
			c0.1-0.1,0.1-0.2,0.1-0.4l-0.2-0.1c-0.1-0.1,0-0.3-0.3-0.3c0-0.1,0-0.2,0.2-0.2l0.2,0c0-0.2,0.1-0.3,0.3-0.3l0.1-0.2
			c0.1-0.1,0.2-0.2,0.3-0.3c0,0,0.2,0,0.3-0.3c0-0.1,0.1-0.2,0-0.3l0-0.1l0-0.1c0-0.2,0.2-0.2,0.2,0l0,0.1l0,0
			c0.2-0.1,0.2,0.2,0.1,0.2l0,0.1l0,0l0.1,0l0.2-0.1c0.1,0.1,0.8,0.1,0.8-0.5v-0.2c0.1-0.1,0.2,0.2,0.3,0.1l-0.1-0.2l11.9,0.3l0,0
			c0.2,0.2,0.3,0.4,0.4,0.5l0,0.1L91.1,193.4z"/>
		<polygon class="st0" points="92,195 93.5,195 93.5,195 		"/>
		<polygon class="st0" points="82.3,195 82,195 82.3,195 		"/>
		<polygon class="st0" points="88.4,202.2 92.3,202.2 88.4,202.2 		"/>
		<polygon class="st0" points="91.7,195 91.7,195 91.5,195 		"/>
	</g>
	<g>
		<path class="st1" d="M128.3,202.1h2.1c2.2,0,4.4,0.4,4.1,3.3c-0.3,2.5-2.8,3-4.9,3h-2.1L128.3,202.1 M129.4,193.5h1.7
			c2,0,4.2,0.2,3.9,2.7c-0.3,2.3-2.6,2.7-4.5,2.7h-1.8L129.4,193.5z M122.8,211.9h7.6c2.8,0,7.8-0.8,8.5-6.3c0.3-2.7-1.5-4.7-4.4-5
			l0-0.1c2.7-0.5,4.6-2.3,4.9-4.9c0.6-4.8-3.5-5.6-6.3-5.6h-7.6L122.8,211.9z"/>
		<path class="st1" d="M140,211.9h4.2l0.7-5.9c0.3-2.3,0.8-6.6,4.2-6.6c0.7,0,1.5,0.1,1.8,0.3l0.5-4.2c-0.4-0.1-0.9-0.1-1.3-0.1
			c-2.5,0-4.5,2.5-4.9,4h-0.1l0.5-3.7H142L140,211.9"/>
		<polyline class="st1" points="151.2,211.9 155.4,211.9 157.4,195.8 153.2,195.8 151.2,211.9 		"/>
		<path class="st1" d="M160.9,207c-0.4,3.2,1.2,5.2,4.5,5.2c1.3,0,2.2-0.1,3.1-0.4l0.3-3.3c-0.5,0.3-1.2,0.4-2,0.4
			c-1.6,0-1.8-1.3-1.6-2.7l0.9-7.5h3.7l0.4-3.1h-3.7l0.6-4.6l-4.4,1.3l-0.4,3.2h-3.1l-0.4,3.1h3.1L160.9,207"/>
		<polyline class="st1" points="170.2,211.9 174.4,211.9 176.4,195.8 172.2,195.8 170.2,211.9 		"/>
		<path class="st1" d="M189.4,196c-1.3-0.3-2.5-0.6-4.5-0.6c-3.3,0-6.5,1.5-6.9,5c-0.7,5.8,6.8,3.7,6.4,6.8c-0.2,1.6-1.9,2-3,2
			c-1.4,0-2.8-0.4-4-1.1l-0.7,3.4c1.5,0.4,3.1,0.7,4.7,0.7c3.4,0,6.9-1.5,7.4-5.3c0.7-5.8-6.8-4.2-6.5-6.7c0.2-1.4,1.6-1.8,2.7-1.8
			c1.5,0,2.4,0.2,3.7,0.7L189.4,196"/>
		<path class="st1" d="M190.5,211.9h4.2l1-7.9c0.2-2.1,1.3-5.4,4.3-5.4c2.7,0,2.4,2.7,2.1,4.6l-1,8.6h4.2l1.2-10.2
			c0.4-3.6-0.9-6.3-4.7-6.3c-2.2,0-4.1,1-5.4,2.6h-0.1l1.2-9.5h-4.2L190.5,211.9"/>
		<path class="st1" d="M235.3,190.6c-1.8-0.6-3.8-0.9-6.3-0.9c-7.4,0-12.5,4.2-13.4,11.7c-0.9,7.4,3.6,10.9,10.6,10.9
			c2.3,0,4.8-0.5,7.2-1.1l1.4-11.8H226l-0.4,3.4h4.6l-0.7,5.7c-0.8,0.2-1.7,0.3-2.9,0.3c-4.7,0-7-3.3-6.5-7.8
			c0.5-4.5,3.8-7.9,8.9-7.9c1.8,0,3.9,0.4,5.5,1.2L235.3,190.6"/>
		<path class="st1" d="M240.7,195.8h-4.6l4.1,16.9c-0.2,1.7-1.4,2.9-3.1,2.9c-1,0-1.6-0.1-2.1-0.3l-0.7,3.1c0.9,0.3,1.9,0.4,2.9,0.4
			c4.4,0,5.8-3.5,7.6-7.1l8-16h-4.2l-5.3,11.7h-0.1L240.7,195.8"/>
		<path class="st1" d="M251.6,218.4h4.2l1-8.4h0.1c1.2,1.8,2.7,2.2,4.4,2.2c5,0,7.3-4.1,7.9-8.5c0.5-4.4-0.8-8.4-5.7-8.4
			c-2.5,0-4.2,1.1-5.3,2.7h-0.1l0.3-2.3h-4L251.6,218.4 M262,198.6c2.7,0,3.1,3,2.8,5.1c-0.3,2.2-1.4,5.2-4.2,5.2
			c-2.8,0-3.3-2.9-3-5.2C257.9,201.5,259.3,198.6,262,198.6z"/>
		<path class="st1" d="M282.4,196c-1.3-0.3-2.5-0.6-4.5-0.6c-3.3,0-6.5,1.5-6.9,5c-0.7,5.8,6.8,3.7,6.4,6.8c-0.2,1.6-1.9,2-3,2
			c-1.4,0-2.8-0.4-4-1.1l-0.7,3.4c1.5,0.4,3.1,0.7,4.7,0.7c3.4,0,6.9-1.5,7.4-5.3c0.7-5.8-6.8-4.2-6.5-6.7c0.2-1.4,1.6-1.8,2.7-1.8
			c1.5,0,2.4,0.2,3.7,0.7L282.4,196"/>
		<path class="st1" d="M299.7,195.8h-4.2l-1,7.9c-0.3,2.1-1.3,5.3-4.3,5.3c-2.7,0-2.4-2.7-2.2-4.6l1.1-8.6h-4.2l-1.2,10.2
			c-0.4,3.6,0.9,6.3,4.7,6.3c2.2,0,4.1-1,5.6-2.6h0.1l-0.3,2.2h4L299.7,195.8"/>
		<path class="st1" d="M300.4,211.9h4.2l1-7.8c0.3-2.1,1-5.4,3.8-5.4c2.4,0,2.1,2.1,2,3.6l-1.2,9.6h4.2l1-7.8c0.3-2.1,1-5.4,3.8-5.4
			c2.4,0,2.2,2.1,2,3.6l-1.2,9.6h4.2l1.2-10.2c0.4-3.6-0.4-6.3-4.3-6.3c-2,0-4.2,0.9-5.4,2.8c-0.7-2-2.2-2.8-4.4-2.8
			c-1.6,0-3.6,0.7-5.1,2.6H306l0.3-2.3h-3.9L300.4,211.9"/>
		<g>
			<path class="st0" d="M102.3,187l1.5-11.9H97l-1.2,9.6C98.2,185.1,100.4,185.9,102.3,187z"/>
			<path class="st0" d="M109.6,195.1l2.5-19.9h-6.8l-1.6,12.8C106.5,189.8,108.6,192.2,109.6,195.1z"/>
			<polygon class="st0" points="113.7,175.1 107.5,224.9 114.3,224.9 120.4,175.1 			"/>
			<path class="st0" d="M100.7,213.2l-1.4,11.7h6.8l2.2-17.7C106.4,209.7,103.8,211.8,100.7,213.2z"/>
			<path class="st0" d="M92.1,215.1l-1.2,9.8h6.8l1.4-11C96.9,214.6,94.6,215,92.1,215.1z"/>
		</g>
		<polyline class="st1" points="153.6,193 157.8,193 158.3,189 154.1,189 153.6,193 		"/>
		<polyline class="st1" points="172.6,193 176.7,193 177.2,189 173,189 172.6,193 		"/>
	</g>
</g>
</svg>
