<?xml version="1.0" encoding="utf-8"?>
<!-- Generator: Adobe Illustrator 19.1.0, SVG Export Plug-In . SVG Version: 6.00 Build 0)  -->
<svg version="1.1" id="Layer_1" xmlns="http://www.w3.org/2000/svg" xmlns:xlink="http://www.w3.org/1999/xlink" x="0px" y="0px"
	 viewBox="0 0 400 400" style="enable-background:new 0 0 400 400;" xml:space="preserve">
<style type="text/css">
	.st0{fill:#2E343F;}
	.st1{fill-rule:evenodd;clip-rule:evenodd;fill:#2E343F;}
</style>
<g>
	<path class="st0" d="M234.2,175.3V200c-0.9,0.7-1.6,1.4-2.3,2.2v-26.8h-27.3v22.4h-2.3v-22.4h-27.3v22.5h-2.3v-22.5h-27.3v25.6
		l-7,23.2h6.1l3.1-10.3h0.9l5.1,10.3h7.4l-4.9-10.3h11.2l-3.1,10.3h6.7l3.1-10.2h1.5v0h14.9l-3,10.2h6.7l2.9-10.2h3l0.1,10.2h5.7
		l6.5-10.2h4.2l-2.2,10.2h6.6l2.2-10.2h3.8c-0.2,3.2,0.7,6,2.8,8c2.6,2.4,6.5,2.8,9.5,2.8c4,0,8.2-0.6,12.3-1.5l2.3-9.3h7.6v-38.5
		H234.2 M171.8,199.1l-0.4,1.3l-3.6,12.1l-0.1,0.4h-11.9l-0.9-2l12.9-13.1h-8.3l-10.1,10.8l3.3-10.8h-6.1v-21.5h25.3V199.1z
		 M178.9,209.3L178.9,209.3c-0.3,0-0.5,0-0.8,0c-0.4,0-0.7,0-0.9,0l-1.6,0l0.7-2.8l0.4-1.4l0.9-3.2c0.4,0,0.7,0,1.1,0
		c0.4,0,0.9,0,1.3,0c2.1,0,3.5,0.1,4,0.8c0.4,0.5,0.3,1.4-0.1,2.8C183,207.9,182,209.1,178.9,209.3 M197.3,212.9l2.7-9.5l0.1,9.5
		H197.3z M201.4,197.8H195l-4.4,15.1h-6.7c3.4-1.3,5.5-3.7,6.2-7.3c0.5-2.8,0.3-4.6-0.9-6c-1.7-2-5.1-1.9-8.2-1.9c-0.5,0-5,0-5,0
		v-21.5h25.3V197.8z M216.8,212.9h-3.8l5.8-9.1L216.8,212.9z M230.9,198.2l0,5.2c-1.8,2.4-2.9,5.1-3.4,7.3c-0.2,0.7-0.3,1.5-0.4,2.2
		h-3.7l3.2-15.1l-10.7,0l-9.6,15.1h-0.7v-36.6h25.3V198.2z M245.5,219.1c-1.4,0.3-2.9,0.4-4.3,0.4c-3.7,0-6.2-1.7-6.2-5.7h11.8
		L245.5,219.1z M260.5,212.9h-6.4l1-4.2h-12.8l-1,4.2h-6.2V212c0.1-0.5,0.2-1,0.3-1.5c1.1-4.5,4.1-9,9.3-9c2,0,4.1,0.8,3.8,3.6h7.6
		c0.3-1.3,0.8-3.6-0.6-5.6c-1.6-2.2-4.9-3.1-9.1-3.1c-3,0-7.4,0.5-11.2,3v-23h25.4V212.9z"/>
</g>
</svg>
