<?xml version="1.0" encoding="utf-8"?>
<!-- Generator: Adobe Illustrator 19.1.0, SVG Export Plug-In . SVG Version: 6.00 Build 0)  -->
<svg version="1.1" id="Layer_1" xmlns="http://www.w3.org/2000/svg" xmlns:xlink="http://www.w3.org/1999/xlink" x="0px" y="0px"
	 viewBox="0 0 400 400" style="enable-background:new 0 0 400 400;" xml:space="preserve">
<style type="text/css">
	.st0{fill:#2E343F;}
	.st1{fill-rule:evenodd;clip-rule:evenodd;fill:#2E343F;}
</style>
<g>
	<g>
		<path class="st0" d="M196.3,202.8c0,0,5.6-1.2,5.6-6.6c0,0-0.1-6-7.8-6h-13.7v21.5h3.1v-8.9h8.6c0,0,0.6-0.1,0.8,0.2l6.1,8.7h3.8
			L196.3,202.8z M192.3,200.1h-8.8v-7.5h8.8c0,0,6.1-0.3,6.1,3.8C198.4,200.7,192.3,200.1,192.3,200.1"/>
		<path class="st0" d="M142.6,190c-1.4,2.3-2.1,5.2-3.1,7.7l2.2,0l3.9-7.6C144.6,190,143.6,190.1,142.6,190"/>
		<path class="st0" d="M161.9,186.5c-8.1,0-14.7,5.5-14.7,13.5c0,8.1,6.5,13.5,14.6,13.5c8.1,0,14.6-5.4,14.6-13.5
			C176.5,192.1,170,186.5,161.9,186.5 M161.9,210.8c-6.1,0-11.1-4.6-11.1-10.8c0-6.1,5-10.8,11.1-10.8c6.1,0,11.1,4.7,11.1,10.8
			C173,206.1,168,210.8,161.9,210.8"/>
		<polygon class="st0" points="206.6,211.6 225.9,211.6 225.9,209.2 209.8,209.2 209.8,201.8 221.9,201.8 221.9,199.4 209.8,199.4 
			209.8,192.4 225.9,192.4 225.9,190.1 206.6,190.1 		"/>
		<polygon class="st0" points="216.7,186.6 214.1,189.5 222.3,186.6 		"/>
		<path class="st0" d="M238.2,190.1l-10.8,21.5h3.4l2.9-5.5h13.2l2.9,5.5h3.3l-10.7-21.5H238.2z M235.1,203.4l5-10.3l5.2,10.3H235.1
			z"/>
		<polygon class="st0" points="258.3,209.1 258.3,190.1 255.2,190.1 255.2,211.6 274.6,211.6 274.6,209.1 		"/>
		<polygon class="st0" points="128.5,190.1 125.4,190.1 125.4,211.6 144.8,211.6 144.8,209.2 128.5,209.2 		"/>
	</g>
</g>
</svg>
