<?xml version="1.0" encoding="utf-8"?>
<!-- Generator: Adobe Illustrator 19.1.0, SVG Export Plug-In . SVG Version: 6.00 Build 0)  -->
<svg version="1.1" id="Layer_1" xmlns="http://www.w3.org/2000/svg" xmlns:xlink="http://www.w3.org/1999/xlink" x="0px" y="0px"
	 viewBox="0 0 400 400" style="enable-background:new 0 0 400 400;" xml:space="preserve">
<style type="text/css">
	.st0{fill:#2E343F;}
	.st1{fill-rule:evenodd;clip-rule:evenodd;fill:#2E343F;}
</style>
<g>
	<path class="st0" d="M150,200.4l-18.5-7.8c0,0-0.6-0.3-1.5-0.3c-1.4,0-2.5,0.7-2.5,1.5v13.1c0,0.5,0.7,1,1.5,1c0.8,0,1.5-0.4,1.5-1
		v-11.5l15.6,6.6L150,200.4z M270.5,204.7h-35.9c-4.2,0-7.6-2.1-7.6-4.6c0-2.5,3.4-4.6,7.6-4.6h35.9c1.1,0,2-0.7,2-1.5
		c0-0.8-0.9-1.5-2-1.5h-35.9c-6,0-10.8,3.3-10.8,7.6c0,1.3,0.4,2.5,1.4,3.8l-23.1-11.2c-0.7-0.3-1.3-0.5-2.1-0.5
		c-0.8,0-1.4,0.2-2.1,0.5l-23.7,11.5v-10.4c0-0.8-1.1-1.5-2.5-1.5c-0.9,0-1.5,0.3-1.5,0.3l-23.2,9.8l2,0.8c0.6,0.3,1.2,0.4,1.8,0.4
		c0.7,0,1.2-0.1,1.8-0.4l18.5-7.9v11.5c0,0.5,0.7,1,1.5,1h0.1c0.4,0,0.7-0.1,1-0.2L200,195l12,5.8h-22.4l-5.9,2.9H218l8.2,4
		c0.3,0.1,0.6,0.2,1,0.2c0.9,0,1.6-0.4,1.6-1c0-0.1,0-0.2-0.1-0.4c1.6,0.7,3.6,1.3,5.9,1.2h35.9c1.1,0,2-0.7,2-1.5
		S271.6,204.7,270.5,204.7 M219.9,196.4c-1.5,0-2.7,0.6-2.7,1.3c0,0.7,1.2,1.3,2.7,1.3c1.5,0,2.6-0.6,2.6-1.3
		C222.5,197,221.3,196.4,219.9,196.4 M182.8,197.8c0,0.7-1.2,1.3-2.6,1.3s-2.6-0.6-2.6-1.3c0-0.7,1.2-1.3,2.6-1.3
		S182.8,197,182.8,197.8"/>
</g>
</svg>
