<?xml version="1.0" encoding="utf-8"?>
<!-- Generator: Adobe Illustrator 19.1.0, SVG Export Plug-In . SVG Version: 6.00 Build 0)  -->
<svg version="1.1" id="Layer_1" xmlns="http://www.w3.org/2000/svg" xmlns:xlink="http://www.w3.org/1999/xlink" x="0px" y="0px"
	 viewBox="0 0 400 400" style="enable-background:new 0 0 400 400;" xml:space="preserve">
<style type="text/css">
	.st0{fill:#2E343F;}
	.st1{fill-rule:evenodd;clip-rule:evenodd;fill:#2E343F;}
</style>
<g>
	<g>
		<path class="st0" d="M172.8,200.8v-4.1c-1.2-0.7-2.6-1-4.3-1c-5.3,0-8.9,3.5-8.9,8.6c0,5.1,3.5,8.6,8.5,8.6c1.8,0,3.3-0.4,4.6-1.1
			v-4.2c-1.1,1.3-2.5,2-4.2,2c-3.2,0-5.1-2-5.1-5.4c0-3.2,2-5.3,4.9-5.3C170.2,198.9,171.7,199.6,172.8,200.8"/>
		<path class="st0" d="M158.6,212.5l-9.6-25.7l-5.5,14.1c-0.5,1.1-0.8,2.3-1.2,3.5c-0.3-1.1-0.7-2.2-1.2-3.5l-5.6-14.1l-9.6,25.7h4
			l4.6-12.6c0.5-1.4,0.9-2.7,1.2-3.8c0.4,1.5,0.9,2.8,1.3,3.9l5.2,13.5l5-13.2c0.1-0.4,0.6-1.8,1.3-4.2c0.4,1.3,0.8,2.6,1.3,3.9
			l4.7,12.5H158.6z"/>
		<path class="st0" d="M252,212.3h3.7v-17.2c0.7,1,1.5,1.9,2.4,2.8l16,15.4v-25.7h-3.7v17.2c-0.8-1-1.7-2-2.7-3L252,186.6V212.3z"/>
		<path class="st0" d="M224.8,212.3h3.7v-17.2c0.7,1,1.5,1.9,2.4,2.8l16,15.4v-25.7h-3.7v17.2c-0.8-1-1.7-2-2.7-3l-15.7-15.1V212.3z
			"/>
		<path class="st0" d="M196.9,193.6l0.2-4c-2.4-1.7-5-2.6-8-2.6c-3.7,0-6.9,1.3-9.4,3.7c-2.5,2.4-3.8,5.7-3.8,9.3
			c0,3.6,1.3,6.9,3.7,9.3c2.4,2.4,5.7,3.7,9.5,3.7c3,0,5.5-0.8,7.7-2.3v-4.5c-2.4,2.1-5.1,3.1-8,3.1c-4.9,0-8.7-3.8-8.7-9.2
			c0-5.5,3.7-9.3,9.1-9.3C192.1,190.6,194.7,191.6,196.9,193.6"/>
		<path class="st0" d="M207.2,202.6l2.5-5.6c0.3-0.7,0.6-1.6,0.9-2.8c0.3,1.2,0.7,2.1,0.9,2.8l2.5,5.6H207.2z M210.5,186.6l-12,25.7
			h4.2l2.9-6.4h9.8l2.8,6.4h4.3L210.5,186.6z"/>
	</g>
</g>
</svg>
