<?xml version="1.0" encoding="utf-8"?>
<!-- Generator: Adobe Illustrator 19.1.0, SVG Export Plug-In . SVG Version: 6.00 Build 0)  -->
<svg version="1.1" id="Layer_1" xmlns="http://www.w3.org/2000/svg" xmlns:xlink="http://www.w3.org/1999/xlink" x="0px" y="0px"
	 viewBox="0 0 400 400" style="enable-background:new 0 0 400 400;" xml:space="preserve">
<style type="text/css">
	.st0{fill:#2E343F;}
	.st1{fill-rule:evenodd;clip-rule:evenodd;fill:#2E343F;}
</style>
<g>
	<path class="st0" d="M70.3,179.2c0.8,0.1,2.1,0.5,3.1,1.3c1,1,1.3,2.5,0.9,3.9c-0.3,1.2-0.7,1.9-2,2.7c-1.3,0.9-2.8,0.8-2.8,0.8
		v5.4l2.6,2.1l-2.6,2.1l0,7.3c0,0,2.6-1.5,4.2-4.9c0,0,0.1-0.2,0.2-0.5c0.1,0.9,0.1,2.7-1,5.1c-0.8,1.8-2.2,3.5-3.9,4.4
		c-3.1,1.7-5.4,1.9-7.9,1.4c-2.9-0.6-5.6-2.2-7.4-5.1c-1.3-2-1.8-4.4-1.8-6.9c0.1-5,3.8-9.2,8.1-10.8c0.5-0.2,0.7-0.3,1.5-0.4
		c-0.3,0.2-0.7,0.5-1.2,0.8c-1.4,0.9-2.5,2.7-3,4.1l8.3-3.7V200l-6.7,3.3c0.8,1.1,3.1,2.7,5,2.9c3.4,0.4,5.3-1.1,5.3-1.1l0-7.5
		l-2.6-2.1l2.6-2.1v-5.4c-1.4-0.2-3.1-0.6-4.2-0.9c-1.5-0.4-6.4-1.8-7.2-1.9c-0.8-0.1-1.7-0.1-2.3,0.4c-0.6,0.5-0.9,1.4-0.7,2.3
		c0.1,0.5,0.5,0.7,0.7,1c0,0-0.3,0-0.8-0.3c-0.9-0.6-1.6-1.7-1.7-3c-0.1-1.8,0.6-3.4,2.1-4.4c1.3-0.8,2.7-1.3,4.4-1.1
		c2.4,0.3,5.7,1.7,8.6,2.4c1.1,0.3,2,0.4,2.8-0.1c0.4-0.3,1-1,0.5-1.9c-0.6-1.1-1.8-1-2.8-1.2C69.4,179.2,69.6,179.2,70.3,179.2
		 M60.5,202.2v-11.2l-3.4,1.5c0,0-0.9,1.9-0.7,4.7c0.1,2.2,1.3,4.8,2.3,5.9L60.5,202.2z"/>
	<path class="st0" d="M102.4,190.5c0,0-2.5,1.5-4.2,2.6c-1.7,1-4,2.1-4,2.1v10.7l-1.5,1.2l0.2,0.2l1.5-1.2l4.7,4.2l8.1-6.4l-0.2-0.2
		l-4.5,3.5l-3.7-3.4l0-1.3l7.4-5.4L102.4,190.5 M102.5,199.3l-3.8,2.8v-9.2L102.5,199.3z"/>
	<path class="st0" d="M81.1,214.3c1.1,0.3,2.9,0.4,5.2-0.7c2.5-1.3,3.8-3.9,3.7-6.6l0.1-3.9l0-8.4l1.6-1.2l-0.2-0.2l-1.6,1.2l-3.6-4
		l-4.7,4v-13.6l-5.8,4.5c0.3,0.2,1.1,0.3,1.1,1.5v19.1l-2.5,1.8l0.2,0.3l1.2-0.9l3.3,3.1l5.2-4.2l-0.2-0.2l-1.2,1l-1.3-1.3l0-10.6
		l1.5-1.3l2.3,2.8c0,0,0,6.9,0,9.2c0,2.4,0,5.5-1.3,6.9C82.9,213.8,82.4,214,81.1,214.3"/>
	<path class="st0" d="M117.4,213.4c-2.1-0.2-3-1.5-2.9-2.5c0-0.6,0.6-1.9,1.9-2.1c1.3-0.2,2.6,0.4,3.7,1.7l4.8-5.3l-0.2-0.2
		l-1.3,1.4c-1.3-1.5-3.2-2.4-5-2.7v-16.2l12.5,22.8c0,0,0.1,0.3,0.6,0.3c0.4,0,0.3-0.4,0.3-0.4l0-23c1,0,2.6-0.6,3.3-1.4
		c2.4-2.5,1.4-5.2,1.2-5.4c-0.1,1.2-1.1,2.4-2.6,2.4c-2,0-3.2-1.5-3.2-1.5l-4.8,5.5l0.2,0.2l1.4-1.6c1.7,1.5,2.9,1.7,4.2,1.8l0,13.3
		l-9.3-16.9c-0.8-1.4-2.1-2.6-4.1-2.6c-2.3,0-4,2-4.2,3.8c-0.2,2,0,2.4,0,2.4s0.3-2.2,1.7-2.2c1.2,0,1.9,1.1,2.4,2v4.9
		c-1.3,0.1-4.6,0.2-4.8,3.7c0,1.3,0.8,2.6,1.5,3.1c0.9,0.6,1.6,0.6,1.6,0.6s-1.1-0.6-0.7-1.7c0.3-1,2.4-1.2,2.4-0.7v6.9
		c-1,0-4.2,0.1-5.7,2.9c-0.9,1.7-0.8,3.5,0.1,4.8C113.1,212.5,114.7,213.8,117.4,213.4"/>
	<path class="st0" d="M143.8,190.5c0,0-2.5,1.5-4.2,2.6c-1.7,1-4,2.1-4,2.1v10.7l-1.5,1.2l0.2,0.2l1.5-1.2l4.7,4.2l8.1-6.4l-0.2-0.2
		l-4.5,3.5l-3.7-3.4l0-1.3l7.4-5.4L143.8,190.5 M143.9,199.3l-3.8,2.8v-9.2L143.9,199.3z"/>
	<path class="st0" d="M155.2,210.4l-4-3.3l-1.7,1.3l-0.2-0.2l1.8-1.3v-9.2c0.1-3.8-3.5-2.9-3.3-6.9c0.1-1.8,1.8-3.1,2.7-3.6
		c0.9-0.5,1.9-0.5,1.9-0.5s-1.6,1-1.2,2.5c0.6,2.3,4.5,2.5,4.5,5.5v10.5l2.8,2.3l0.7-0.6v-11.3l-1.5-1.5l3.9-3.5l3.6,3.2l-1.4,1.5
		v10l3.4,2.8l0.6-0.4v-12.1l-1.5-1.4l4-3.6l3.7,3.1l1.5-1.3l0.2,0.2l-3.3,2.9v9.9l-8.5,5.2l-4.4-3.4L155.2,210.4"/>
	<path class="st0" d="M329.2,190.5c0,0-2.5,1.5-4.2,2.6c-1.7,1-4,2.1-4,2.1l0,10.7l-1.5,1.2l0.2,0.2l1.5-1.2l4.7,4.2l8.1-6.4
		l-0.2-0.2l-4.5,3.5l-3.7-3.4v-1.3l7.4-5.4L329.2,190.5 M329.3,199.3l-3.8,2.8v-9.2L329.3,199.3z"/>
	<polyline class="st0" points="291.2,195 291.4,195.2 292.9,193.9 295.1,196.5 295.1,205.3 294,206.3 297.6,210.3 301.2,206.7 
		299.7,205.2 299.7,194.5 300.6,193.8 303.1,196.7 303.1,205.5 302.2,206.4 305.5,210.2 309,206.6 307.7,205.2 307.7,194.5 
		308.7,193.8 311.3,196.6 311.3,205.4 310.4,206.2 314.1,210.2 319,205.7 318.8,205.5 317.6,206.6 315.8,204.5 315.8,194.6 
		317.5,193.2 317.4,193 315.6,194.3 312.2,190.6 307.4,194.3 304.1,190.7 299.5,194.3 296.1,190.7 291.2,195 	"/>
	<polyline class="st0" points="281.1,194.7 281.3,194.9 282.6,193.8 284.6,196.2 284.6,206.3 283.2,207.5 283.4,207.8 284.9,206.5 
		288.2,210.2 292.9,206 292.7,205.8 291.3,207 289.3,204.8 289.3,194.9 291,193.5 290.8,193.3 289.2,194.6 285.8,190.6 281.1,194.7 
			"/>
	<polyline class="st0" points="283.8,186.6 287.2,183.4 290.1,186.6 286.6,189.7 283.8,186.6 	"/>
	<path class="st0" d="M277.7,179.2c0.8,0.1,2.1,0.5,3.1,1.3c1,1,1.3,2.5,0.9,3.9c-0.3,1.2-0.7,1.9-2,2.7c-1.3,0.9-2.8,0.8-2.8,0.8
		v5.4l2.6,2.1l-2.6,2.1l0,7.3c0,0,2.6-1.5,4.2-4.9c0,0,0.1-0.2,0.2-0.5c0.1,0.9,0.1,2.7-1,5.1c-0.8,1.8-2.2,3.5-3.9,4.4
		c-3.1,1.7-5.4,1.9-7.9,1.4c-2.9-0.6-5.6-2.2-7.4-5.1c-1.3-2-1.8-4.4-1.8-6.9c0.1-5,3.8-9.2,8.1-10.8c0.5-0.2,0.7-0.3,1.5-0.4
		c-0.3,0.2-0.7,0.5-1.2,0.8c-1.4,0.9-2.5,2.7-3,4.1l8.3-3.7V200l-6.7,3.3c0.8,1.1,3.1,2.7,5,2.9c3.4,0.4,5.3-1.1,5.3-1.1v-7.5
		l-2.6-2.1l2.6-2.1v-5.4c-1.4-0.2-3.1-0.6-4.2-0.9c-1.5-0.4-6.4-1.8-7.2-1.9c-0.8-0.1-1.7-0.1-2.3,0.4c-0.6,0.5-0.9,1.4-0.7,2.3
		c0.1,0.5,0.5,0.7,0.7,1c0,0-0.3,0-0.8-0.3c-0.9-0.6-1.6-1.7-1.7-3c-0.1-1.8,0.6-3.4,2.1-4.4c1.3-0.8,2.7-1.3,4.4-1.1
		c2.4,0.3,5.7,1.7,8.6,2.4c1.1,0.3,2,0.4,2.8-0.1c0.4-0.3,1-1,0.5-1.9c-0.6-1.1-1.8-1-2.8-1.2C276.9,179.2,277.1,179.2,277.7,179.2
		 M267.9,202.2v-11.2l-3.4,1.5c0,0-0.9,1.9-0.7,4.7c0.1,2.2,1.3,4.8,2.3,5.9L267.9,202.2z"/>
	<path class="st0" d="M338.2,211.7c-0.5,0.2-2.9-0.4-3.4-2.8c-0.5-2.4,1.1-4,3.6-6.5l-2.9-2.7v-5.1c0,0,2.1-1.1,3.8-2.1
		c1.7-1.1,3.4-2.2,3.4-2.2s1.3,1.6,2.7,1.5c2.2-0.2,2.1-1.9,2.1-2.4c0.4,0.7,1.4,2.7-2.5,7.2l3.2,2.6v6.6c0,0-3.7,1.9-7.2,4.5
		c0,0-1.9-2.4-3.6-1.3C336.1,209.8,336.6,211.1,338.2,211.7 M335.4,206.6c0,0,1.7-2.8,4.6-2.2c2.8,0.6,3.7,3.5,3.7,3.5v-6.7
		l-1.9-1.7C339.7,201.7,335.9,204.7,335.4,206.6z M339.7,192.6v5.3l1.8,1.5c0,0,3.8-3.1,5.2-5.9c0,0-1.7,2.3-4,1.6
		C340.7,194.5,339.7,192.6,339.7,192.6z"/>
	<path class="st0" d="M219.1,194.9l1.4-1.3l0.2,0.2l-1.4,1.3v10.5c0,0-2.6,1.4-4.5,2.4c-1.8,1-3.8,2.3-3.8,2.3l-4.9-4.1l-1.3,1.1
		l-0.2-0.2l1.3-1.2v-11.3h0c0,0,2.3-1,4.2-2.1c1.7-1,3.7-2.1,3.7-2.1L219.1,194.9 M210.6,204.2l4.1,3.7v-11.3l-4.1-3.8V204.2z"/>
	<path class="st0" d="M228.6,193.9l3.1-3.2c0,0,0.4,0.4,0.8,0.6c0.2,0.1,1.2,0.6,2,0.1c0.5-0.3,0.5-0.3,1-0.8
		c0.1,2.5-1.1,4.2-2.5,4.9c-0.6,0.3-2.4,0.9-4.2-1.4v11.3l2,1.7l1.6-1.3l0.2,0.2l-5.1,4.3l-3.9-3.5l-1.4,1.3l-0.2-0.2l2.1-1.9l0-9.8
		l-1.6-2.2l-1.4,1.2l-0.2-0.2l4.9-4.4L228.6,193.9"/>
	<path class="st0" d="M241.6,198.6l5.7-8.3c0,0,0.7,0.9,2.1,1.2c1.8,0.5,3.3-1.3,3.3-1.3c-0.3,2.2-1.4,4.7-3.7,5.1
		c-2,0.3-3.9-1.2-3.9-1.2l-0.4,0.6l7.9,11.9l1.6-1.4l0.2,0.2l-5.4,4.7L241.6,198.6"/>
	<path class="st0" d="M236.9,187.5c0-1.8-0.7-2.9-1.7-2.8l6.2-4.4V205h0l1.6,1.7l1.2-1.1l0.2,0.2l-5,4.4l-3.4-3.2l-1.4,1.2l-0.2-0.2
		l2.4-2.1V187.5"/>
	<path class="st0" d="M185,187.1c0-1.7-0.7-2.6-1.8-2.6c-1.6,0-2,2.2-2,2.2s-0.3-1.7,1.1-3.3c0.8-0.9,2.3-2.1,4.7-1.5
		c2.4,0.6,3.1,2.5,3.1,4.1v23c0,0,0.9,0.1,1.6,0.2c0.7,0.2,1.4,0.4,1.4,0.4v-27.7h0.3v3.7l5-4l3.7,3.2l1.7-1.5l0.2,0.2l-1.8,1.5
		v21.4c-0.1,1.4-0.3,2.8-1.6,3.6c-2.9,1.7-6.5-0.3-9.6-0.7c-2.3-0.3-6-0.8-6.9,1.4c-0.3,0.7-0.3,1.8,0.8,2.5
		c2.1,1.4,11.6-2.4,14.9-0.9c3,1.4,3,3.6,2.5,5.1c-0.8,2.8-4.3,3.3-4.3,3.3s1.7-1,1.2-2.7c-0.3-0.8-0.8-1.1-2.7-0.9
		c-4.1,0.5-8.9,2.4-12.2,1.1c-1.7-0.7-2.9-2.8-2.8-4.9c0.1-3,3.5-4.2,3.5-4.2l0-11c-0.1-0.4-1.9-0.3-2.3,0.5
		c-0.6,1.2,0.8,1.8,0.8,1.8s-1.1,0.2-2.1-0.9c-0.5-0.5-1.4-2.4-0.2-4.1c1-1.4,2.3-1.7,3.8-1.9V187.1 M193.5,209.7
		c0,0,1.4,0.4,2.5-0.5c1.2-1,1-2.3,1-2.3v-8.6c0,0-0.7-0.9-1.8-0.9c-1.1,0-1.8,0.9-1.8,0.9V209.7z M197,187.2l-2.4-2.1l-1.2,0.9v7.9
		c0,0,0.7,0.9,1.8,0.9c1.1,0,1.8-0.9,1.8-0.9V187.2z M197,194.5c0,0-0.7,0.8-1.8,0.8c-1.1,0-1.8-0.8-1.8-0.8v3.4
		c0,0,0.7-0.8,1.8-0.8c1.1,0,1.8,0.7,1.8,0.7V194.5z"/>
</g>
</svg>
