<?xml version="1.0" encoding="utf-8"?>
<!-- Generator: Adobe Illustrator 19.1.0, SVG Export Plug-In . SVG Version: 6.00 Build 0)  -->
<svg version="1.1" id="Layer_1" xmlns="http://www.w3.org/2000/svg" xmlns:xlink="http://www.w3.org/1999/xlink" x="0px" y="0px"
	 viewBox="0 0 400 400" style="enable-background:new 0 0 400 400;" xml:space="preserve">
<style type="text/css">
	.st0{fill:#2E343F;}
	.st1{fill-rule:evenodd;clip-rule:evenodd;fill:#2E343F;}
</style>
<g>
	<path class="st1" d="M215.4,224c0.7,0.3,2,0.8,3.7,0.8c2.9,0.1,4.5-1.1,5.7-3.7l15.7-35c-0.6-0.3-2.1-0.7-3.3-0.8
		c-2,0-4.7,0.4-6.5,4.5l-5.1,12l-10-16.2c-0.6-0.2-2.2-0.5-3.4-0.5c-3.5,0-5.5,1.3-7.5,3.5l-9.7,10.6l7.8,12.3
		c1.4,2.2,3.3,3.4,6.4,3.4c2,0,3.7-0.5,4.5-0.8l-9.4-14.1l6.6-7.1l10.9,17.1L215.4,224 M194.8,210.8c0,2.6-1,4.1-6,4.1
		c-0.7,0-1.2,0-1.8-0.1v-34.2c0-2.6,0.9-5.3,6-5.3c0.6,0,1.3,0.1,1.9,0.2V210.8z M184.4,205.6c0,4.8-3.1,8.3-9.5,9
		c-4.6,0.5-11.3-0.1-14.5-0.5c-0.1-0.5-0.2-1.2-0.2-1.7c0-4.2,2.3-5.2,4.4-5.2c2.2,0,5.7,0.4,8.3,0.4c2.9,0,3.7-1,3.7-1.9
		c0-1.2-1.1-1.7-3.4-2.1l-6.1-1.2c-5-1-7.7-4.5-7.7-8.2c0-4.5,3.2-8.3,9.5-9c4.7-0.5,10.5,0.1,13.7,0.5c0.1,0.5,0.2,1.1,0.2,1.6
		c0,4.2-2.2,5.1-4.3,5.1c-1.6,0-4.2-0.3-7.1-0.3c-3,0-4.2,0.8-4.2,1.8c0,1.1,1.2,1.5,3,1.8l5.8,1.1
		C181.9,198.1,184.4,201.5,184.4,205.6"/>
</g>
</svg>
