<?xml version="1.0" encoding="utf-8"?>
<!-- Generator: Adobe Illustrator 19.1.0, SVG Export Plug-In . SVG Version: 6.00 Build 0)  -->
<svg version="1.1" id="Layer_1" xmlns="http://www.w3.org/2000/svg" xmlns:xlink="http://www.w3.org/1999/xlink" x="0px" y="0px"
	 viewBox="0 0 400 400" style="enable-background:new 0 0 400 400;" xml:space="preserve">
<style type="text/css">
	.st0{fill:#2E343F;}
	.st1{fill-rule:evenodd;clip-rule:evenodd;fill:#2E343F;}
</style>
<g>
	<path class="st0" d="M135.5,184.3c0.1,0,11.3,0,11.4,0c0.1,0,0,0.3,0,0.3c-0.1,0-2.3,0-2.3,0s-0.7,0-0.5,0.3c0,0.1,8,21.9,8,21.9
		s0.1,0.4,0.3,0.4c0,0,7.1-21.9,7.1-22c0.1-0.2,0.3-0.7-0.1-0.7c-0.3,0-2.5,0-2.6,0c0,0,0-0.3,0-0.3c0,0,6.1,0,6.1,0
		c0,0,0,0.3,0,0.3c0,0-2.3,0-2.3,0c-0.6,0-0.6,0.2-0.7,0.5c-0.1,0.2-9.9,30.8-9.9,30.8s0-0.1-0.1-0.3c-4.2-12-10.6-28.8-11.1-30.6
		c-0.2-0.5-0.2-0.5-0.5-0.5c-0.1,0-2.7,0-2.7,0C135.4,184.7,135.4,184.3,135.5,184.3z"/>
	<path class="st0" d="M165.1,199.8c0-8.8,1.7-15.9,7.9-15.9c6.7,0,8,7.5,8,15.9c0,8.8-1.3,16.3-8,16.3
		C165.9,216.1,165.1,209,165.1,199.8z M172.9,216.4c6.6,0,13.8-7.3,13.8-16.4c0-9.5-6.9-16.3-13.7-16.4c-7-0.1-13.7,7.6-13.7,16.4
		C159.3,209,165.6,216.3,172.9,216.4z"/>
	<path class="st0" d="M205.5,202.9c0.3,0,2.6,0,2.6,0s0.5-0.1,0.5,0.2c0,0,0,7.4,0,7.4c0,5.7-5.7,5.8-7.3,5.6
		c-6-0.7-6.1-13-6.1-16.2c-0.1-8.8,1.3-16.4,7.3-16.1c7.1,0.4,9,10.6,9.1,11c0.2,0.1,0.2-0.1,0.2-0.1l0-11.1c0,0,0-0.1-0.2,0
		c-0.1,0-0.1,0.1-0.2,0.2c-3.1,3.2-4.7-0.2-9.3-0.3c-5.6-0.2-12.6,7.6-12.7,16.6c-0.1,9.1,5.9,16.1,12.4,16.3
		c3.5,0.1,3.5-0.8,7.8-2.2c2.7-0.8,3.9,1,4,1.7c0.2,0.1,0.2-0.1,0.2-0.1s0-12.8,0-12.7c0-0.3,0.4-0.2,0.4-0.2s2.3,0,2.4,0
		c0.1,0,0.1-0.4,0-0.4c-0.1,0-10.9,0-11,0C205.4,202.5,205.4,202.9,205.5,202.9z"/>
	<path class="st0" d="M263.9,184.4c0,0,0,11.4,0,11.4c0,0.1-0.2,0.1-0.2,0c0-0.1,0.2-11.1-10-11.1c-0.9,0-3,0-3.8,0
		c-0.2,0-0.3,0-0.3,0.2c0,0.2,0,12.5,0,14.3c0,0.1,0.1,0.2,0.3,0.2c0.3,0,0.9,0,1.3,0c6.1,0,5.6-6.1,5.6-6.2c0-0.1,0.2-0.1,0.2,0
		c0,0.1,0,12.8,0,12.9c0,0.1-0.2,0.1-0.2,0c0-0.1-0.1-6.4-5.8-6.4c-0.2,0-0.8,0-1.1,0c-0.2,0-0.3,0.1-0.3,0.2c0,1.8,0,15.3,0,15.4
		c0,0.1,0.1,0.2,0.3,0.2c0.9,0,3.1,0,3.7,0c11,0,10.9-11.8,10.9-11.8c0-0.1,0.3-0.1,0.3,0c0,0.1,0,12.2,0,12.2s-23.1,0-23.2,0
		c-0.1,0-0.1-0.3,0-0.3c0,0,1.6,0,2.3,0c0.2,0,0.3-0.1,0.3-0.2c0-2.7,0-30.2,0-30.4c0-0.2-0.3-0.2-0.3-0.2c-0.1,0-5.1,0-5.1,0
		s-0.3,0-0.3,0.2c0,2.2,0,20.4,0,23l0,0c0,6.4-4.9,8.5-8.5,8.6l0,0c-4.2,0-11.7-0.7-11.7-10c0,0,0-21.1,0-21.4
		c0-0.5-0.6-0.4-0.6-0.4s-2.4,0-2.5,0c-0.1,0-0.1-0.3,0-0.3c0.1,0,11.5,0,11.6,0c0.1,0,0,0.3,0,0.3c0,0-2.5,0-2.5,0s-0.8,0-0.8,0.5
		c0,0.7,0,23.6,0,24.4c0,3.6,2,6.7,6.4,6.7c3.4-0.1,8.2-2.1,8.2-8.3c0-0.3,0-20.7,0-23c0-0.2-0.4-0.2-0.4-0.2s-3.1,0-3.2,0
		c-0.1,0-0.1-0.3,0-0.3C234.4,184.4,263.9,184.4,263.9,184.4z"/>
</g>
</svg>
